Golden Age.ufo
<glyph name="exclam" format="2">
  <advance width="216"/>
  <unicode hex="0021"/>
  <outline>
    <contour>
      <point x="130" y="233" type="curve"/>
      <point x="191" y="779" type="line"/>
      <point x="189" y="781"/>
      <point x="186" y="784"/>
      <point x="183" y="788" type="curve" smooth="yes"/>
      <point x="179" y="792"/>
      <point x="174" y="795"/>
      <point x="168" y="797" type="curve" smooth="yes"/>
      <point x="161" y="799"/>
      <point x="153" y="799"/>
      <point x="144" y="798" type="curve" smooth="yes"/>
      <point x="135" y="796"/>
      <point x="123" y="790"/>
      <point x="110" y="781" type="curve"/>
      <point x="54" y="255" type="line"/>
      <point x="57" y="251"/>
      <point x="61" y="246"/>
      <point x="66" y="240" type="curve" smooth="yes"/>
      <point x="71" y="233"/>
      <point x="77" y="228"/>
      <point x="84" y="223" type="curve" smooth="yes"/>
      <point x="91" y="218"/>
      <point x="98" y="216"/>
      <point x="106" y="217" type="curve" smooth="yes"/>
      <point x="114" y="218"/>
      <point x="122" y="223"/>
    </contour>
    <contour>
      <point x="118" y="93" type="curve" smooth="yes"/>
      <point x="98" y="124"/>
      <point x="74" y="131"/>
      <point x="47" y="114" type="curve" smooth="yes"/>
      <point x="32" y="105"/>
      <point x="23" y="94"/>
      <point x="19" y="81" type="curve" smooth="yes"/>
      <point x="14" y="68"/>
      <point x="17" y="54"/>
      <point x="26" y="39" type="curve" smooth="yes"/>
      <point x="36" y="24"/>
      <point x="47" y="14"/>
      <point x="58" y="10" type="curve" smooth="yes"/>
      <point x="69" y="6"/>
      <point x="82" y="9"/>
      <point x="97" y="18" type="curve" smooth="yes"/>
      <point x="112" y="27"/>
      <point x="121" y="39"/>
      <point x="126" y="52" type="curve" smooth="yes"/>
      <point x="130" y="65"/>
      <point x="127" y="78"/>
    </contour>
  </outline>
</glyph>
<glyph name="quotedbl" format="2">
  <advance width="304"/>
  <unicode hex="0022"/>
  <outline>
    <contour>
      <point x="119" y="555" type="curve" smooth="yes"/>
      <point x="119" y="565"/>
      <point x="119" y="579"/>
      <point x="120" y="596" type="curve"/>
      <point x="120" y="613"/>
      <point x="120" y="630"/>
      <point x="120" y="648" type="curve" smooth="yes"/>
      <point x="120" y="666"/>
      <point x="119" y="683"/>
      <point x="118" y="699" type="curve" smooth="yes"/>
      <point x="117" y="714"/>
      <point x="114" y="725"/>
      <point x="111" y="731" type="curve"/>
      <point x="107" y="729"/>
      <point x="101" y="727"/>
      <point x="93" y="725" type="curve" smooth="yes"/>
      <point x="84" y="723"/>
      <point x="76" y="720"/>
      <point x="67" y="717" type="curve" smooth="yes"/>
      <point x="58" y="713"/>
      <point x="51" y="708"/>
      <point x="45" y="703" type="curve" smooth="yes"/>
      <point x="38" y="697"/>
      <point x="35" y="689"/>
      <point x="35" y="679" type="curve" smooth="yes"/>
      <point x="35" y="672"/>
      <point x="35" y="659"/>
      <point x="34" y="640" type="curve" smooth="yes"/>
      <point x="33" y="621"/>
      <point x="33" y="601"/>
      <point x="33" y="580" type="curve" smooth="yes"/>
      <point x="33" y="559"/>
      <point x="33" y="540"/>
      <point x="34" y="522" type="curve" smooth="yes"/>
      <point x="35" y="504"/>
      <point x="36" y="492"/>
      <point x="39" y="487" type="curve"/>
      <point x="46" y="490"/>
      <point x="54" y="494"/>
      <point x="63" y="498" type="curve" smooth="yes"/>
      <point x="72" y="501"/>
      <point x="81" y="506"/>
      <point x="90" y="511" type="curve" smooth="yes"/>
      <point x="98" y="516"/>
      <point x="105" y="522"/>
      <point x="111" y="529" type="curve" smooth="yes"/>
      <point x="116" y="536"/>
      <point x="119" y="545"/>
    </contour>
    <contour>
      <point x="259" y="571" type="curve" smooth="yes"/>
      <point x="259" y="581"/>
      <point x="259" y="595"/>
      <point x="260" y="612" type="curve"/>
      <point x="260" y="629"/>
      <point x="260" y="646"/>
      <point x="260" y="664" type="curve" smooth="yes"/>
      <point x="260" y="682"/>
      <point x="259" y="699"/>
      <point x="258" y="715" type="curve" smooth="yes"/>
      <point x="257" y="730"/>
      <point x="254" y="741"/>
      <point x="251" y="747" type="curve"/>
      <point x="247" y="745"/>
      <point x="241" y="743"/>
      <point x="233" y="741" type="curve" smooth="yes"/>
      <point x="224" y="739"/>
      <point x="216" y="736"/>
      <point x="207" y="733" type="curve" smooth="yes"/>
      <point x="198" y="729"/>
      <point x="191" y="724"/>
      <point x="185" y="719" type="curve" smooth="yes"/>
      <point x="178" y="713"/>
      <point x="175" y="705"/>
      <point x="175" y="695" type="curve" smooth="yes"/>
      <point x="175" y="688"/>
      <point x="175" y="675"/>
      <point x="174" y="656" type="curve" smooth="yes"/>
      <point x="173" y="637"/>
      <point x="173" y="617"/>
      <point x="173" y="596" type="curve" smooth="yes"/>
      <point x="173" y="575"/>
      <point x="173" y="556"/>
      <point x="174" y="538" type="curve" smooth="yes"/>
      <point x="175" y="520"/>
      <point x="176" y="508"/>
      <point x="179" y="503" type="curve"/>
      <point x="186" y="506"/>
      <point x="194" y="510"/>
      <point x="203" y="514" type="curve" smooth="yes"/>
      <point x="212" y="517"/>
      <point x="221" y="522"/>
      <point x="230" y="527" type="curve" smooth="yes"/>
      <point x="238" y="532"/>
      <point x="245" y="538"/>
      <point x="251" y="545" type="curve" smooth="yes"/>
      <point x="256" y="552"/>
      <point x="259" y="561"/>
    </contour>
  </outline>
</glyph>
<glyph name="numbersign" format="2">
  <advance width="488"/>
  <unicode hex="0023"/>
  <outline>
    <contour>
      <point x="445" y="647" type="curve"/>
      <point x="436" y="649"/>
      <point x="421" y="650"/>
      <point x="398" y="651" type="curve" smooth="yes"/>
      <point x="375" y="652"/>
      <point x="348" y="653"/>
      <point x="316" y="654" type="curve" name="hr01"/>
      <point x="319" y="684"/>
      <point x="322" y="710"/>
      <point x="324" y="732" type="curve" smooth="yes"/>
      <point x="325" y="753"/>
      <point x="326" y="768"/>
      <point x="325" y="776" type="curve"/>
      <point x="312" y="773"/>
      <point x="301" y="767"/>
      <point x="294" y="759" type="curve" smooth="yes"/>
      <point x="286" y="750"/>
      <point x="281" y="736"/>
      <point x="278" y="717" type="curve" smooth="yes"/>
      <point x="277" y="709"/>
      <point x="274" y="688"/>
      <point x="269" y="654" type="curve"/>
      <point x="201" y="654" type="line"/>
      <point x="204" y="684"/>
      <point x="207" y="710"/>
      <point x="209" y="732" type="curve" smooth="yes"/>
      <point x="210" y="753"/>
      <point x="211" y="768"/>
      <point x="210" y="776" type="curve"/>
      <point x="197" y="773"/>
      <point x="186" y="767"/>
      <point x="179" y="759" type="curve" smooth="yes"/>
      <point x="171" y="750"/>
      <point x="166" y="736"/>
      <point x="163" y="717" type="curve" smooth="yes"/>
      <point x="162" y="713"/>
      <point x="162" y="706"/>
      <point x="161" y="696" type="curve" smooth="yes"/>
      <point x="160" y="685"/>
      <point x="158" y="672"/>
      <point x="156" y="655" type="curve"/>
      <point x="133" y="654"/>
      <point x="114" y="653"/>
      <point x="99" y="653" type="curve" smooth="yes"/>
      <point x="68" y="653" type="line" smooth="yes"/>
      <point x="58" y="653"/>
      <point x="50" y="651" name="hr02"/>
      <point x="43" y="647" type="curve" smooth="yes"/>
      <point x="36" y="643"/>
      <point x="30" y="638"/>
      <point x="25" y="632" type="curve" smooth="yes"/>
      <point x="20" y="626"/>
      <point x="17" y="619"/>
      <point x="14" y="612" type="curve" smooth="yes"/>
      <point x="11" y="605"/>
      <point x="8" y="597"/>
      <point x="5" y="590" type="curve"/>
      <point x="14" y="589"/>
      <point x="31" y="588"/>
      <point x="56" y="587" type="curve" smooth="yes"/>
      <point x="81" y="586"/>
      <point x="111" y="586"/>
      <point x="146" y="585" type="curve" name="hr04"/>
      <point x="144" y="570"/>
      <point x="142" y="557"/>
      <point x="141" y="544" type="curve" smooth="yes"/>
      <point x="140" y="531"/>
      <point x="138" y="516"/>
      <point x="137" y="501" type="curve"/>
      <point x="118" y="500"/>
      <point x="102" y="499"/>
      <point x="89" y="499" type="curve" smooth="yes"/>
      <point x="63" y="499" type="line" smooth="yes"/>
      <point x="53" y="499"/>
      <point x="45" y="497"/>
      <point x="38" y="493" type="curve" smooth="yes"/>
      <point x="31" y="489"/>
      <point x="26" y="484"/>
      <point x="21" y="478" type="curve" smooth="yes"/>
      <point x="16" y="472"/>
      <point x="12" y="465"/>
      <point x="9" y="458" type="curve" smooth="yes"/>
      <point x="6" y="451"/>
      <point x="3" y="443"/>
      <point x="0" y="436" type="curve"/>
      <point x="9" y="435"/>
      <point x="24" y="434"/>
      <point x="47" y="434" type="curve"/>
      <point x="69" y="433"/>
      <point x="96" y="433"/>
      <point x="129" y="432" type="curve"/>
      <point x="126" y="401"/>
      <point x="123" y="374"/>
      <point x="121" y="352" type="curve" smooth="yes"/>
      <point x="119" y="329"/>
      <point x="119" y="314"/>
      <point x="120" y="305" type="curve"/>
      <point x="129" y="307"/>
      <point x="138" y="310"/>
      <point x="147" y="313" type="curve" smooth="yes"/>
      <point x="156" y="316"/>
      <point x="162" y="327"/>
      <point x="165" y="345" type="curve" smooth="yes"/>
      <point x="166" y="350"/>
      <point x="167" y="359"/>
      <point x="169" y="374" type="curve" smooth="yes"/>
      <point x="171" y="389"/>
      <point x="174" y="408"/>
      <point x="177" y="431" type="curve" name="hr05"/>
      <point x="244" y="431" type="line"/>
      <point x="241" y="400"/>
      <point x="238" y="374"/>
      <point x="236" y="352" type="curve" smooth="yes"/>
      <point x="234" y="329"/>
      <point x="234" y="314"/>
      <point x="235" y="305" type="curve"/>
      <point x="239" y="306"/>
      <point x="243" y="308"/>
      <point x="248" y="309" type="curve" smooth="yes"/>
      <point x="252" y="310"/>
      <point x="256" y="311"/>
      <point x="260" y="314" type="curve" smooth="yes"/>
      <point x="264" y="316"/>
      <point x="268" y="320"/>
      <point x="272" y="325" type="curve" smooth="yes"/>
      <point x="275" y="330"/>
      <point x="278" y="336"/>
      <point x="280" y="345" type="curve" smooth="yes"/>
      <point x="281" y="350"/>
      <point x="283" y="359"/>
      <point x="285" y="374" type="curve" smooth="yes"/>
      <point x="286" y="388"/>
      <point x="289" y="407"/>
      <point x="292" y="430" type="curve"/>
      <point x="320" y="431"/>
      <point x="343" y="431"/>
      <point x="360" y="431" type="curve" smooth="yes"/>
      <point x="394" y="431" type="line" smooth="yes"/>
      <point x="403" y="431"/>
      <point x="411" y="433"/>
      <point x="416" y="438" type="curve" smooth="yes"/>
      <point x="421" y="443"/>
      <point x="426" y="448"/>
      <point x="429" y="455" type="curve" smooth="yes"/>
      <point x="432" y="461"/>
      <point x="434" y="468"/>
      <point x="435" y="475" type="curve" smooth="yes"/>
      <point x="436" y="482"/>
      <point x="438" y="488"/>
      <point x="440" y="493" type="curve"/>
      <point x="431" y="495"/>
      <point x="414" y="497"/>
      <point x="390" y="498" type="curve" smooth="yes"/>
      <point x="365" y="499"/>
      <point x="336" y="500" name="hr06"/>
      <point x="302" y="501" type="curve"/>
      <point x="303" y="516"/>
      <point x="305" y="530"/>
      <point x="306" y="543" type="curve" smooth="yes"/>
      <point x="307" y="556"/>
      <point x="308" y="570"/>
      <point x="309" y="585" type="curve"/>
      <point x="398" y="585" type="line" smooth="yes"/>
      <point x="407" y="585"/>
      <point x="415" y="587" name="hr07"/>
      <point x="420" y="592" type="curve" smooth="yes"/>
      <point x="425" y="597"/>
      <point x="430" y="602"/>
      <point x="433" y="609" type="curve" smooth="yes"/>
      <point x="436" y="615"/>
      <point x="438" y="622"/>
      <point x="440" y="629" type="curve" smooth="yes"/>
      <point x="441" y="636"/>
      <point x="443" y="642"/>
    </contour>
    <contour>
      <point x="195" y="585" type="curve"/>
      <point x="261" y="585" type="line" name="hr08"/>
      <point x="259" y="570"/>
      <point x="257" y="556"/>
      <point x="256" y="543" type="curve" smooth="yes"/>
      <point x="254" y="530"/>
      <point x="252" y="515"/>
      <point x="251" y="500" type="curve"/>
      <point x="184" y="500" type="line"/>
      <point x="186" y="516"/>
      <point x="188" y="531"/>
      <point x="189" y="544" type="curve" smooth="yes"/>
      <point x="190" y="557"/>
      <point x="192" y="570"/>
    </contour>
  </outline>
</glyph>
<glyph name="dollar" format="2">
  <advance width="511"/>
  <unicode hex="0024"/>
  <outline>
    <contour>
      <point x="504" y="643" type="curve"/>
      <point x="502" y="647"/>
      <point x="499" y="653"/>
      <point x="494" y="660" type="curve" smooth="yes"/>
      <point x="489" y="667"/>
      <point x="483" y="675"/>
      <point x="476" y="684" type="curve"/>
      <point x="468" y="692"/>
      <point x="459" y="700"/>
      <point x="448" y="708" type="curve" smooth="yes"/>
      <point x="437" y="716"/>
      <point x="425" y="723"/>
      <point x="410" y="728" type="curve" smooth="yes"/>
      <point x="401" y="731"/>
      <point x="391" y="734"/>
      <point x="382" y="736" type="curve" smooth="yes"/>
      <point x="372" y="738"/>
      <point x="362" y="739"/>
      <point x="351" y="740" type="curve"/>
      <point x="351" y="741"/>
      <point x="351" y="743"/>
      <point x="352" y="748" type="curve"/>
      <point x="352" y="753"/>
      <point x="353" y="758"/>
      <point x="354" y="763" type="curve" smooth="yes"/>
      <point x="355" y="770"/>
      <point x="356" y="777"/>
      <point x="357" y="785" type="curve"/>
      <point x="355" y="787"/>
      <point x="354" y="790"/>
      <point x="353" y="793" type="curve" smooth="yes"/>
      <point x="352" y="796"/>
      <point x="349" y="799"/>
      <point x="346" y="801" type="curve" smooth="yes"/>
      <point x="343" y="802"/>
      <point x="338" y="802"/>
      <point x="331" y="800" type="curve" smooth="yes"/>
      <point x="324" y="798"/>
      <point x="313" y="792"/>
      <point x="300" y="783" type="curve"/>
      <point x="293" y="735" type="line"/>
      <point x="271" y="730"/>
      <point x="249" y="720"/>
      <point x="227" y="707" type="curve" smooth="yes"/>
      <point x="204" y="693"/>
      <point x="182" y="674"/>
      <point x="161" y="651" type="curve" smooth="yes"/>
      <point x="158" y="647"/>
      <point x="153" y="638"/>
      <point x="147" y="624" type="curve" smooth="yes"/>
      <point x="141" y="610"/>
      <point x="136" y="594"/>
      <point x="132" y="575" type="curve" smooth="yes"/>
      <point x="128" y="556"/>
      <point x="126" y="536"/>
      <point x="127" y="516" type="curve"/>
      <point x="127" y="495"/>
      <point x="132" y="477"/>
      <point x="142" y="461" type="curve" smooth="yes"/>
      <point x="153" y="443"/>
      <point x="162" y="429"/>
      <point x="169" y="420" type="curve" smooth="yes"/>
      <point x="175" y="411"/>
      <point x="181" y="403"/>
      <point x="186" y="398" type="curve" smooth="yes"/>
      <point x="191" y="393"/>
      <point x="197" y="388"/>
      <point x="204" y="385" type="curve" smooth="yes"/>
      <point x="232" y="371" type="line"/>
      <point x="194" y="149" type="line"/>
      <point x="172" y="152"/>
      <point x="152" y="160"/>
      <point x="133" y="172" type="curve" smooth="yes"/>
      <point x="114" y="183"/>
      <point x="99" y="199"/>
      <point x="90" y="220" type="curve" smooth="yes"/>
      <point x="83" y="234"/>
      <point x="75" y="241"/>
      <point x="66" y="242" type="curve" smooth="yes"/>
      <point x="57" y="243"/>
      <point x="42" y="232"/>
      <point x="23" y="211" type="curve" smooth="yes"/>
      <point x="17" y="204"/>
      <point x="15" y="196"/>
      <point x="16" y="185" type="curve" smooth="yes"/>
      <point x="17" y="174"/>
      <point x="21" y="163"/>
      <point x="27" y="152" type="curve" smooth="yes"/>
      <point x="33" y="141"/>
      <point x="40" y="130"/>
      <point x="49" y="120" type="curve" smooth="yes"/>
      <point x="57" y="110"/>
      <point x="65" y="102"/>
      <point x="72" y="96" type="curve" smooth="yes"/>
      <point x="89" y="83"/>
      <point x="107" y="73"/>
      <point x="125" y="68" type="curve"/>
      <point x="142" y="62"/>
      <point x="160" y="58"/>
      <point x="179" y="57" type="curve"/>
      <point x="176" y="29" type="line"/>
      <point x="179" y="25"/>
      <point x="181" y="20"/>
      <point x="184" y="15" type="curve" smooth="yes"/>
      <point x="187" y="10"/>
      <point x="190" y="6"/>
      <point x="194" y="3" type="curve" smooth="yes"/>
      <point x="197" y="0"/>
      <point x="202" y="0"/>
      <point x="208" y="2" type="curve" smooth="yes"/>
      <point x="213" y="3"/>
      <point x="220" y="9"/>
      <point x="228" y="19" type="curve"/>
      <point x="235" y="58" type="line"/>
      <point x="254" y="61"/>
      <point x="273" y="65"/>
      <point x="292" y="71" type="curve" smooth="yes"/>
      <point x="310" y="77"/>
      <point x="327" y="86"/>
      <point x="343" y="99" type="curve" smooth="yes"/>
      <point x="359" y="112"/>
      <point x="373" y="128"/>
      <point x="386" y="148" type="curve" smooth="yes"/>
      <point x="399" y="168"/>
      <point x="408" y="193"/>
      <point x="415" y="223" type="curve" smooth="yes"/>
      <point x="421" y="250"/>
      <point x="421" y="276"/>
      <point x="416" y="300" type="curve" smooth="yes"/>
      <point x="410" y="324"/>
      <point x="401" y="346"/>
      <point x="389" y="365" type="curve" smooth="yes"/>
      <point x="377" y="384"/>
      <point x="363" y="400"/>
      <point x="347" y="413" type="curve" smooth="yes"/>
      <point x="331" y="426"/>
      <point x="316" y="436"/>
      <point x="302" y="441" type="curve"/>
      <point x="301" y="441"/>
      <point x="301" y="441"/>
      <point x="300" y="442" type="curve"/>
      <point x="306" y="480"/>
      <point x="312" y="514"/>
      <point x="317" y="543" type="curve" smooth="yes"/>
      <point x="319" y="556"/>
      <point x="321" y="568"/>
      <point x="324" y="580" type="curve" smooth="yes"/>
      <point x="326" y="592"/>
      <point x="328" y="603"/>
      <point x="329" y="612" type="curve" smooth="yes"/>
      <point x="330" y="621"/>
      <point x="332" y="629"/>
      <point x="333" y="635" type="curve" smooth="yes"/>
      <point x="334" y="643" type="line"/>
      <point x="355" y="636"/>
      <point x="375" y="627"/>
      <point x="394" y="616" type="curve" smooth="yes"/>
      <point x="413" y="605"/>
      <point x="428" y="594"/>
      <point x="439" y="585" type="curve" smooth="yes"/>
      <point x="445" y="580"/>
      <point x="452" y="580"/>
      <point x="459" y="583" type="curve" smooth="yes"/>
      <point x="466" y="586"/>
      <point x="472" y="592"/>
      <point x="478" y="599" type="curve" smooth="yes"/>
      <point x="484" y="606"/>
      <point x="489" y="614"/>
      <point x="494" y="623" type="curve" smooth="yes"/>
      <point x="499" y="632"/>
      <point x="502" y="638"/>
    </contour>
    <contour>
      <point x="280" y="654" type="curve"/>
      <point x="280" y="654" type="line"/>
      <point x="248" y="467" type="line"/>
      <point x="228" y="479"/>
      <point x="211" y="493"/>
      <point x="196" y="510" type="curve" smooth="yes"/>
      <point x="181" y="527"/>
      <point x="175" y="545"/>
      <point x="176" y="564" type="curve" smooth="yes"/>
      <point x="177" y="587"/>
      <point x="182" y="604"/>
      <point x="191" y="616" type="curve" smooth="yes"/>
      <point x="199" y="627"/>
      <point x="209" y="636"/>
      <point x="220" y="641" type="curve" smooth="yes"/>
      <point x="231" y="646"/>
      <point x="242" y="650"/>
      <point x="253" y="651" type="curve" smooth="yes"/>
      <point x="264" y="652"/>
      <point x="273" y="653"/>
    </contour>
    <contour>
      <point x="366" y="223" type="curve"/>
      <point x="355" y="202"/>
      <point x="339" y="185"/>
      <point x="318" y="172" type="curve" smooth="yes"/>
      <point x="297" y="159"/>
      <point x="275" y="151"/>
      <point x="250" y="148" type="curve"/>
      <point x="283" y="344" type="line"/>
      <point x="289" y="341" type="line"/>
      <point x="314" y="326"/>
      <point x="333" y="312"/>
      <point x="344" y="298" type="curve" smooth="yes"/>
      <point x="355" y="284"/>
      <point x="363" y="271"/>
      <point x="366" y="260" type="curve" smooth="yes"/>
      <point x="370" y="247"/>
      <point x="370" y="235"/>
    </contour>
  </outline>
</glyph>
<glyph name="percent" format="2">
  <advance width="517"/>
  <unicode hex="0025"/>
  <outline>
    <contour>
      <point x="484" y="253" type="curve" smooth="yes"/>
      <point x="498" y="286"/>
      <point x="505" y="318"/>
      <point x="504" y="349" type="curve" smooth="yes"/>
      <point x="503" y="379"/>
      <point x="493" y="402"/>
      <point x="473" y="419" type="curve" smooth="yes"/>
      <point x="462" y="428"/>
      <point x="451" y="433"/>
      <point x="439" y="435" type="curve" smooth="yes"/>
      <point x="427" y="437"/>
      <point x="415" y="437"/>
      <point x="404" y="434" type="curve" smooth="yes"/>
      <point x="393" y="431"/>
      <point x="382" y="425"/>
      <point x="372" y="417" type="curve" smooth="yes"/>
      <point x="361" y="409"/>
      <point x="352" y="399"/>
      <point x="345" y="388" type="curve" smooth="yes"/>
      <point x="342" y="383"/>
      <point x="340" y="377"/>
      <point x="337" y="370" type="curve" smooth="yes"/>
      <point x="332" y="359"/>
      <point x="327" y="340"/>
      <point x="321" y="313" type="curve" smooth="yes"/>
      <point x="318" y="300"/>
      <point x="317" y="287"/>
      <point x="317" y="272" type="curve" smooth="yes"/>
      <point x="317" y="257"/>
      <point x="319" y="244"/>
      <point x="323" y="231" type="curve" smooth="yes"/>
      <point x="327" y="218"/>
      <point x="333" y="206"/>
      <point x="341" y="197" type="curve" smooth="yes"/>
      <point x="348" y="188"/>
      <point x="358" y="182"/>
      <point x="370" y="180" type="curve"/>
      <point x="393" y="173"/>
      <point x="414" y="175"/>
      <point x="433" y="186" type="curve" smooth="yes"/>
      <point x="452" y="197"/>
      <point x="469" y="219"/>
    </contour>
    <contour>
      <point x="123" y="23" type="curve"/>
      <point x="449" y="754" type="line" smooth="yes"/>
      <point x="453" y="763"/>
      <point x="455" y="767"/>
      <point x="455" y="768" type="curve"/>
      <point x="455" y="769"/>
      <point x="453" y="772"/>
      <point x="450" y="775" type="curve" smooth="yes"/>
      <point x="447" y="778"/>
      <point x="444" y="780"/>
      <point x="439" y="783" type="curve" smooth="yes"/>
      <point x="434" y="785"/>
      <point x="429" y="786"/>
      <point x="423" y="787" type="curve"/>
      <point x="416" y="787"/>
      <point x="409" y="786"/>
      <point x="401" y="784" type="curve" smooth="yes"/>
      <point x="393" y="782"/>
      <point x="384" y="778"/>
      <point x="375" y="771" type="curve"/>
      <point x="47" y="45" type="line"/>
      <point x="50" y="41"/>
      <point x="54" y="36"/>
      <point x="59" y="30" type="curve" smooth="yes"/>
      <point x="64" y="23"/>
      <point x="70" y="18"/>
      <point x="77" y="13" type="curve" smooth="yes"/>
      <point x="84" y="8"/>
      <point x="91" y="6"/>
      <point x="99" y="7" type="curve" smooth="yes"/>
      <point x="107" y="8"/>
      <point x="115" y="13"/>
    </contour>
    <contour>
      <point x="179" y="449" type="curve" smooth="yes"/>
      <point x="193" y="483"/>
      <point x="200" y="515"/>
      <point x="199" y="546" type="curve" smooth="yes"/>
      <point x="198" y="576"/>
      <point x="187" y="599"/>
      <point x="168" y="616" type="curve" smooth="yes"/>
      <point x="157" y="625"/>
      <point x="146" y="630"/>
      <point x="135" y="632" type="curve" smooth="yes"/>
      <point x="123" y="634"/>
      <point x="111" y="633"/>
      <point x="100" y="630" type="curve" smooth="yes"/>
      <point x="89" y="627"/>
      <point x="78" y="621"/>
      <point x="68" y="613" type="curve" smooth="yes"/>
      <point x="57" y="605"/>
      <point x="48" y="595"/>
      <point x="40" y="584" type="curve" smooth="yes"/>
      <point x="37" y="580"/>
      <point x="35" y="574"/>
      <point x="32" y="567" type="curve" smooth="yes"/>
      <point x="27" y="556"/>
      <point x="22" y="537"/>
      <point x="16" y="510" type="curve" smooth="yes"/>
      <point x="13" y="497"/>
      <point x="12" y="484"/>
      <point x="12" y="469" type="curve" smooth="yes"/>
      <point x="12" y="454"/>
      <point x="14" y="441"/>
      <point x="18" y="428" type="curve" smooth="yes"/>
      <point x="22" y="415"/>
      <point x="28" y="403"/>
      <point x="36" y="394" type="curve" smooth="yes"/>
      <point x="43" y="385"/>
      <point x="53" y="379"/>
      <point x="65" y="377" type="curve"/>
      <point x="88" y="370"/>
      <point x="109" y="371"/>
      <point x="128" y="382" type="curve" smooth="yes"/>
      <point x="147" y="393"/>
      <point x="164" y="415"/>
    </contour>
    <contour>
      <point x="448" y="334" type="curve"/>
      <point x="448" y="324"/>
      <point x="446" y="314"/>
      <point x="443" y="303" type="curve" smooth="yes"/>
      <point x="440" y="292"/>
      <point x="436" y="282"/>
      <point x="431" y="273" type="curve" smooth="yes"/>
      <point x="426" y="264"/>
      <point x="420" y="256"/>
      <point x="415" y="251" type="curve" smooth="yes"/>
      <point x="409" y="245"/>
      <point x="404" y="242"/>
      <point x="399" y="241" type="curve" smooth="yes"/>
      <point x="392" y="240"/>
      <point x="387" y="242"/>
      <point x="384" y="245" type="curve" smooth="yes"/>
      <point x="381" y="248"/>
      <point x="379" y="252"/>
      <point x="378" y="258" type="curve" smooth="yes"/>
      <point x="377" y="263"/>
      <point x="376" y="270"/>
      <point x="377" y="277" type="curve"/>
      <point x="377" y="284"/>
      <point x="377" y="291"/>
      <point x="377" y="299" type="curve" smooth="yes"/>
      <point x="377" y="308"/>
      <point x="379" y="318"/>
      <point x="382" y="327" type="curve" smooth="yes"/>
      <point x="385" y="336"/>
      <point x="389" y="344"/>
      <point x="394" y="352" type="curve" smooth="yes"/>
      <point x="398" y="359"/>
      <point x="403" y="365"/>
      <point x="408" y="370" type="curve" smooth="yes"/>
      <point x="413" y="375"/>
      <point x="417" y="377"/>
      <point x="421" y="378" type="curve"/>
      <point x="430" y="375"/>
      <point x="437" y="371"/>
      <point x="442" y="365" type="curve" smooth="yes"/>
      <point x="447" y="358"/>
      <point x="449" y="348"/>
    </contour>
    <contour>
      <point x="143" y="531" type="curve"/>
      <point x="143" y="521"/>
      <point x="141" y="511"/>
      <point x="138" y="500" type="curve" smooth="yes"/>
      <point x="135" y="489"/>
      <point x="131" y="479"/>
      <point x="126" y="470" type="curve" smooth="yes"/>
      <point x="121" y="461"/>
      <point x="116" y="453"/>
      <point x="111" y="447" type="curve" smooth="yes"/>
      <point x="105" y="441"/>
      <point x="100" y="438"/>
      <point x="95" y="437" type="curve" smooth="yes"/>
      <point x="88" y="436"/>
      <point x="82" y="438"/>
      <point x="79" y="441" type="curve" smooth="yes"/>
      <point x="76" y="444"/>
      <point x="74" y="448"/>
      <point x="73" y="454" type="curve" smooth="yes"/>
      <point x="72" y="459"/>
      <point x="71" y="466"/>
      <point x="72" y="473" type="curve"/>
      <point x="72" y="480"/>
      <point x="72" y="487"/>
      <point x="72" y="495" type="curve" smooth="yes"/>
      <point x="72" y="504"/>
      <point x="74" y="514"/>
      <point x="77" y="524" type="curve" smooth="yes"/>
      <point x="80" y="533"/>
      <point x="84" y="542"/>
      <point x="89" y="550" type="curve" smooth="yes"/>
      <point x="94" y="557"/>
      <point x="99" y="563"/>
      <point x="104" y="568" type="curve" smooth="yes"/>
      <point x="109" y="573"/>
      <point x="113" y="575"/>
      <point x="116" y="574" type="curve" smooth="yes"/>
      <point x="125" y="572"/>
      <point x="132" y="568"/>
      <point x="137" y="562" type="curve" smooth="yes"/>
      <point x="142" y="555"/>
      <point x="144" y="545"/>
    </contour>
  </outline>
</glyph>
<glyph name="ampersand" format="2">
  <advance width="503"/>
  <unicode hex="0026"/>
  <outline>
    <contour>
      <point x="428" y="159" type="curve" smooth="yes"/>
      <point x="421" y="170"/>
      <point x="418" y="179"/>
      <point x="417" y="185" type="curve" smooth="yes"/>
      <point x="416" y="191"/>
      <point x="413" y="196"/>
      <point x="408" y="199" type="curve" smooth="yes"/>
      <point x="402" y="203"/>
      <point x="396" y="205"/>
      <point x="389" y="204" type="curve" smooth="yes"/>
      <point x="382" y="203"/>
      <point x="376" y="200"/>
      <point x="370" y="196" type="curve" smooth="yes"/>
      <point x="364" y="192"/>
      <point x="358" y="187"/>
      <point x="353" y="182" type="curve" smooth="yes"/>
      <point x="348" y="177"/>
      <point x="343" y="172"/>
      <point x="340" y="167" type="curve"/>
      <point x="245" y="454" type="line"/>
      <point x="269" y="468"/>
      <point x="291" y="482"/>
      <point x="311" y="496" type="curve" smooth="yes"/>
      <point x="331" y="510"/>
      <point x="348" y="526"/>
      <point x="361" y="543" type="curve" smooth="yes"/>
      <point x="374" y="560"/>
      <point x="384" y="579"/>
      <point x="389" y="602" type="curve" smooth="yes"/>
      <point x="394" y="624"/>
      <point x="394" y="650"/>
      <point x="388" y="681" type="curve" smooth="yes"/>
      <point x="383" y="709"/>
      <point x="374" y="731"/>
      <point x="361" y="747" type="curve" smooth="yes"/>
      <point x="348" y="762"/>
      <point x="333" y="773"/>
      <point x="316" y="778" type="curve" smooth="yes"/>
      <point x="299" y="783"/>
      <point x="281" y="784"/>
      <point x="262" y="780" type="curve" smooth="yes"/>
      <point x="243" y="776"/>
      <point x="226" y="769"/>
      <point x="210" y="758" type="curve" smooth="yes"/>
      <point x="193" y="747"/>
      <point x="179" y="733"/>
      <point x="168" y="716" type="curve" smooth="yes"/>
      <point x="156" y="699"/>
      <point x="148" y="681"/>
      <point x="145" y="660" type="curve" smooth="yes"/>
      <point x="143" y="646"/>
      <point x="144" y="631"/>
      <point x="147" y="615" type="curve" smooth="yes"/>
      <point x="150" y="598"/>
      <point x="155" y="583"/>
      <point x="160" y="568" type="curve" smooth="yes"/>
      <point x="166" y="551"/>
      <point x="173" y="534"/>
      <point x="180" y="518" type="curve"/>
      <point x="155" y="506"/>
      <point x="132" y="487"/>
      <point x="111" y="461" type="curve" smooth="yes"/>
      <point x="90" y="434"/>
      <point x="72" y="404"/>
      <point x="58" y="371" type="curve" smooth="yes"/>
      <point x="43" y="338"/>
      <point x="33" y="303"/>
      <point x="27" y="266" type="curve" smooth="yes"/>
      <point x="21" y="229"/>
      <point x="21" y="194"/>
      <point x="27" y="161" type="curve" smooth="yes"/>
      <point x="33" y="128"/>
      <point x="46" y="98"/>
      <point x="65" y="72" type="curve" smooth="yes"/>
      <point x="84" y="46"/>
      <point x="111" y="27"/>
      <point x="147" y="15" type="curve" smooth="yes"/>
      <point x="164" y="10"/>
      <point x="180" y="8"/>
      <point x="195" y="9" type="curve" smooth="yes"/>
      <point x="210" y="10"/>
      <point x="226" y="12"/>
      <point x="241" y="17" type="curve" smooth="yes"/>
      <point x="256" y="21"/>
      <point x="271" y="27"/>
      <point x="286" y="34" type="curve" smooth="yes"/>
      <point x="301" y="41"/>
      <point x="316" y="47"/>
      <point x="331" y="53" type="curve"/>
      <point x="344" y="17" type="line"/>
      <point x="350" y="7"/>
      <point x="355" y="1"/>
      <point x="360" y="-3" type="curve" smooth="yes"/>
      <point x="364" y="-6"/>
      <point x="368" y="-6"/>
      <point x="372" y="-5" type="curve" smooth="yes"/>
      <point x="376" y="-4"/>
      <point x="380" y="-1"/>
      <point x="383" y="3" type="curve" smooth="yes"/>
      <point x="386" y="7"/>
      <point x="390" y="10"/>
      <point x="393" y="13" type="curve"/>
      <point x="368" y="82" type="line"/>
      <point x="374" y="88"/>
      <point x="382" y="93"/>
      <point x="392" y="98" type="curve" smooth="yes"/>
      <point x="401" y="103"/>
      <point x="410" y="108"/>
      <point x="418" y="113" type="curve" smooth="yes"/>
      <point x="425" y="118"/>
      <point x="431" y="125"/>
      <point x="434" y="132" type="curve" smooth="yes"/>
      <point x="437" y="139"/>
      <point x="435" y="148"/>
    </contour>
    <contour>
      <point x="351" y="624" type="curve" smooth="yes"/>
      <point x="345" y="613"/>
      <point x="337" y="603"/>
      <point x="326" y="594" type="curve" smooth="yes"/>
      <point x="315" y="585"/>
      <point x="303" y="576"/>
      <point x="290" y="569" type="curve" smooth="yes"/>
      <point x="277" y="561"/>
      <point x="264" y="554"/>
      <point x="251" y="549" type="curve" smooth="yes"/>
      <point x="238" y="543"/>
      <point x="226" y="539"/>
      <point x="215" y="537" type="curve"/>
      <point x="188" y="624" type="line"/>
      <point x="187" y="648"/>
      <point x="191" y="667"/>
      <point x="202" y="682" type="curve" smooth="yes"/>
      <point x="213" y="697"/>
      <point x="226" y="707"/>
      <point x="242" y="713" type="curve" smooth="yes"/>
      <point x="257" y="719"/>
      <point x="274" y="721"/>
      <point x="291" y="720" type="curve" smooth="yes"/>
      <point x="308" y="719"/>
      <point x="323" y="714"/>
      <point x="336" y="706" type="curve"/>
      <point x="348" y="697"/>
      <point x="356" y="686"/>
      <point x="361" y="673" type="curve"/>
      <point x="365" y="659"/>
      <point x="362" y="643"/>
    </contour>
    <contour>
      <point x="203" y="441" type="curve"/>
      <point x="300" y="139" type="line"/>
      <point x="279" y="131"/>
      <point x="260" y="121"/>
      <point x="241" y="109" type="curve" smooth="yes"/>
      <point x="222" y="97"/>
      <point x="204" y="89"/>
      <point x="186" y="84" type="curve" smooth="yes"/>
      <point x="168" y="79"/>
      <point x="150" y="81"/>
      <point x="131" y="89" type="curve" smooth="yes"/>
      <point x="112" y="96"/>
      <point x="93" y="116"/>
      <point x="73" y="147" type="curve"/>
      <point x="68" y="174"/>
      <point x="67" y="203"/>
      <point x="70" y="233" type="curve" smooth="yes"/>
      <point x="72" y="262"/>
      <point x="78" y="291"/>
      <point x="89" y="318" type="curve" smooth="yes"/>
      <point x="99" y="345"/>
      <point x="114" y="369"/>
      <point x="133" y="391" type="curve" smooth="yes"/>
      <point x="152" y="413"/>
      <point x="175" y="430"/>
    </contour>
  </outline>
</glyph>
<glyph name="quotesingle" format="2">
  <advance width="136"/>
  <unicode hex="0027"/>
  <outline>
    <contour>
      <point x="118" y="559" type="curve" smooth="yes"/>
      <point x="118" y="569"/>
      <point x="118" y="583"/>
      <point x="119" y="600" type="curve"/>
      <point x="119" y="617"/>
      <point x="119" y="634"/>
      <point x="119" y="652" type="curve" smooth="yes"/>
      <point x="119" y="670"/>
      <point x="118" y="687"/>
      <point x="117" y="703" type="curve" smooth="yes"/>
      <point x="116" y="718"/>
      <point x="113" y="729"/>
      <point x="110" y="735" type="curve"/>
      <point x="106" y="733"/>
      <point x="100" y="731"/>
      <point x="92" y="729" type="curve" smooth="yes"/>
      <point x="83" y="727"/>
      <point x="75" y="724"/>
      <point x="66" y="721" type="curve" smooth="yes"/>
      <point x="57" y="717"/>
      <point x="50" y="712"/>
      <point x="44" y="707" type="curve" smooth="yes"/>
      <point x="37" y="701"/>
      <point x="34" y="693"/>
      <point x="34" y="683" type="curve" smooth="yes"/>
      <point x="34" y="676"/>
      <point x="34" y="663"/>
      <point x="33" y="644" type="curve" smooth="yes"/>
      <point x="32" y="625"/>
      <point x="32" y="605"/>
      <point x="32" y="584" type="curve" smooth="yes"/>
      <point x="32" y="563"/>
      <point x="32" y="544"/>
      <point x="33" y="526" type="curve" smooth="yes"/>
      <point x="34" y="508"/>
      <point x="35" y="496"/>
      <point x="38" y="491" type="curve"/>
      <point x="45" y="494"/>
      <point x="53" y="498"/>
      <point x="62" y="502" type="curve" smooth="yes"/>
      <point x="71" y="505"/>
      <point x="80" y="510"/>
      <point x="89" y="515" type="curve" smooth="yes"/>
      <point x="97" y="520"/>
      <point x="104" y="526"/>
      <point x="110" y="533" type="curve" smooth="yes"/>
      <point x="115" y="540"/>
      <point x="118" y="549"/>
    </contour>
  </outline>
</glyph>
<glyph name="parenleft" format="2">
  <advance width="294"/>
  <unicode hex="0028"/>
  <outline>
    <contour>
      <point x="264" y="802" type="curve" smooth="yes"/>
      <point x="255" y="811"/>
      <point x="246" y="817"/>
      <point x="239" y="820" type="curve" smooth="yes"/>
      <point x="232" y="823"/>
      <point x="225" y="823"/>
      <point x="219" y="822" type="curve" smooth="yes"/>
      <point x="213" y="821"/>
      <point x="208" y="818"/>
      <point x="203" y="814" type="curve" smooth="yes"/>
      <point x="198" y="809"/>
      <point x="192" y="804"/>
      <point x="187" y="798" type="curve" smooth="yes"/>
      <point x="147" y="754"/>
      <point x="114" y="706"/>
      <point x="87" y="654" type="curve" smooth="yes"/>
      <point x="60" y="602"/>
      <point x="39" y="541"/>
      <point x="26" y="471" type="curve"/>
      <point x="25" y="442"/>
      <point x="24" y="413"/>
      <point x="25" y="384" type="curve" smooth="yes"/>
      <point x="26" y="359"/>
      <point x="27" y="332"/>
      <point x="30" y="303" type="curve" smooth="yes"/>
      <point x="33" y="274"/>
      <point x="37" y="246"/>
      <point x="42" y="221" type="curve" smooth="yes"/>
      <point x="47" y="200"/>
      <point x="53" y="178"/>
      <point x="61" y="154" type="curve" smooth="yes"/>
      <point x="69" y="129"/>
      <point x="78" y="105"/>
      <point x="89" y="81" type="curve" smooth="yes"/>
      <point x="99" y="57"/>
      <point x="110" y="35"/>
      <point x="122" y="15" type="curve" smooth="yes"/>
      <point x="134" y="-6"/>
      <point x="146" y="-22"/>
      <point x="159" y="-35" type="curve" smooth="yes"/>
      <point x="171" y="-48"/>
      <point x="183" y="-55"/>
      <point x="195" y="-57" type="curve" smooth="yes"/>
      <point x="207" y="-59"/>
      <point x="219" y="-53"/>
      <point x="230" y="-40" type="curve" smooth="yes"/>
      <point x="239" y="-29"/>
      <point x="243" y="-20"/>
      <point x="243" y="-11" type="curve" smooth="yes"/>
      <point x="243" y="-2"/>
      <point x="240" y="6"/>
      <point x="234" y="15" type="curve" smooth="yes"/>
      <point x="228" y="23"/>
      <point x="220" y="32"/>
      <point x="210" y="42" type="curve"/>
      <point x="199" y="51"/>
      <point x="188" y="62"/>
      <point x="177" y="74" type="curve" smooth="yes"/>
      <point x="165" y="86"/>
      <point x="153" y="100"/>
      <point x="142" y="116" type="curve" smooth="yes"/>
      <point x="131" y="131"/>
      <point x="121" y="150"/>
      <point x="112" y="171" type="curve" smooth="yes"/>
      <point x="103" y="194"/>
      <point x="95" y="214"/>
      <point x="88" y="230" type="curve" smooth="yes"/>
      <point x="81" y="245"/>
      <point x="75" y="262"/>
      <point x="71" y="280" type="curve" smooth="yes"/>
      <point x="67" y="298"/>
      <point x="65" y="319"/>
      <point x="64" y="343" type="curve" smooth="yes"/>
      <point x="63" y="367"/>
      <point x="65" y="399"/>
      <point x="69" y="439" type="curve" smooth="yes"/>
      <point x="72" y="472"/>
      <point x="76" y="496"/>
      <point x="79" y="512" type="curve" smooth="yes"/>
      <point x="82" y="528"/>
      <point x="86" y="541"/>
      <point x="91" y="550" type="curve" smooth="yes"/>
      <point x="96" y="559"/>
      <point x="102" y="567"/>
      <point x="109" y="575" type="curve" smooth="yes"/>
      <point x="116" y="582"/>
      <point x="124" y="594"/>
      <point x="134" y="611" type="curve" smooth="yes"/>
      <point x="149" y="634"/>
      <point x="166" y="656"/>
      <point x="185" y="675" type="curve" smooth="yes"/>
      <point x="204" y="694"/>
      <point x="221" y="712"/>
      <point x="236" y="727" type="curve" smooth="yes"/>
      <point x="251" y="742"/>
      <point x="262" y="756"/>
      <point x="269" y="769" type="curve" smooth="yes"/>
      <point x="276" y="781"/>
      <point x="274" y="792"/>
    </contour>
  </outline>
</glyph>
<glyph name="parenright" format="2">
  <advance width="351"/>
  <unicode hex="0029"/>
  <outline>
    <contour>
      <point x="301" y="279" type="curve"/>
      <point x="303" y="308"/>
      <point x="304" y="337"/>
      <point x="305" y="366" type="curve" smooth="yes"/>
      <point x="306" y="391"/>
      <point x="305" y="419"/>
      <point x="304" y="448" type="curve" smooth="yes"/>
      <point x="303" y="477"/>
      <point x="299" y="504"/>
      <point x="294" y="529" type="curve" smooth="yes"/>
      <point x="290" y="550"/>
      <point x="285" y="573"/>
      <point x="278" y="598" type="curve" smooth="yes"/>
      <point x="271" y="623"/>
      <point x="262" y="647"/>
      <point x="253" y="671" type="curve" smooth="yes"/>
      <point x="244" y="695"/>
      <point x="233" y="718"/>
      <point x="222" y="739" type="curve" smooth="yes"/>
      <point x="211" y="760"/>
      <point x="199" y="776"/>
      <point x="187" y="789" type="curve" smooth="yes"/>
      <point x="175" y="802"/>
      <point x="163" y="809"/>
      <point x="151" y="812" type="curve" smooth="yes"/>
      <point x="138" y="815"/>
      <point x="126" y="809"/>
      <point x="115" y="796" type="curve" smooth="yes"/>
      <point x="102" y="781"/>
      <point x="98" y="767"/>
      <point x="103" y="755" type="curve" smooth="yes"/>
      <point x="108" y="743"/>
      <point x="118" y="730"/>
      <point x="133" y="715" type="curve" smooth="yes"/>
      <point x="148" y="700"/>
      <point x="164" y="682"/>
      <point x="182" y="661" type="curve" smooth="yes"/>
      <point x="200" y="640"/>
      <point x="215" y="613"/>
      <point x="226" y="581" type="curve"/>
      <point x="235" y="558"/>
      <point x="242" y="538"/>
      <point x="249" y="522" type="curve" smooth="yes"/>
      <point x="255" y="506"/>
      <point x="260" y="489"/>
      <point x="263" y="471" type="curve" smooth="yes"/>
      <point x="266" y="453"/>
      <point x="268" y="432"/>
      <point x="268" y="408" type="curve"/>
      <point x="267" y="384"/>
      <point x="264" y="352"/>
      <point x="259" y="312" type="curve" smooth="yes"/>
      <point x="255" y="279"/>
      <point x="251" y="255"/>
      <point x="247" y="240" type="curve" smooth="yes"/>
      <point x="243" y="224"/>
      <point x="239" y="212"/>
      <point x="234" y="203" type="curve" smooth="yes"/>
      <point x="229" y="194"/>
      <point x="222" y="185"/>
      <point x="215" y="178" type="curve" smooth="yes"/>
      <point x="208" y="170"/>
      <point x="199" y="158"/>
      <point x="188" y="142" type="curve" smooth="yes"/>
      <point x="173" y="119"/>
      <point x="155" y="99"/>
      <point x="136" y="81" type="curve" smooth="yes"/>
      <point x="116" y="62"/>
      <point x="98" y="46"/>
      <point x="83" y="31" type="curve" smooth="yes"/>
      <point x="67" y="16"/>
      <point x="55" y="2"/>
      <point x="48" y="-11" type="curve" smooth="yes"/>
      <point x="41" y="-23"/>
      <point x="42" y="-34"/>
      <point x="52" y="-44" type="curve" smooth="yes"/>
      <point x="61" y="-53"/>
      <point x="70" y="-60"/>
      <point x="77" y="-63" type="curve" smooth="yes"/>
      <point x="84" y="-66"/>
      <point x="90" y="-67"/>
      <point x="96" y="-66" type="curve" smooth="yes"/>
      <point x="102" y="-65"/>
      <point x="108" y="-62"/>
      <point x="113" y="-58" type="curve" smooth="yes"/>
      <point x="118" y="-53"/>
      <point x="124" y="-48"/>
      <point x="129" y="-43" type="curve" smooth="yes"/>
      <point x="171" y="0"/>
      <point x="206" y="47"/>
      <point x="235" y="98" type="curve" smooth="yes"/>
      <point x="263" y="149"/>
      <point x="285" y="209"/>
    </contour>
  </outline>
</glyph>
<glyph name="asterisk" format="2">
  <advance width="400"/>
  <unicode hex="002A"/>
  <outline>
    <contour>
      <point x="388" y="490" type="curve"/>
      <point x="387" y="493"/>
      <point x="383" y="499"/>
      <point x="375" y="507" type="curve" smooth="yes"/>
      <point x="367" y="515"/>
      <point x="357" y="525"/>
      <point x="344" y="536" type="curve" smooth="yes"/>
      <point x="331" y="547"/>
      <point x="317" y="559"/>
      <point x="302" y="572" type="curve" smooth="yes"/>
      <point x="287" y="585"/>
      <point x="272" y="598"/>
      <point x="257" y="611" type="curve"/>
      <point x="272" y="620"/>
      <point x="287" y="629"/>
      <point x="302" y="638" type="curve" smooth="yes"/>
      <point x="317" y="646"/>
      <point x="330" y="654"/>
      <point x="342" y="661" type="curve" smooth="yes"/>
      <point x="354" y="668"/>
      <point x="364" y="674"/>
      <point x="372" y="679" type="curve" smooth="yes"/>
      <point x="379" y="684"/>
      <point x="384" y="688"/>
      <point x="386" y="691" type="curve"/>
      <point x="382" y="694"/>
      <point x="379" y="698"/>
      <point x="378" y="703" type="curve" smooth="yes"/>
      <point x="376" y="708"/>
      <point x="374" y="712"/>
      <point x="372" y="716" type="curve" smooth="yes"/>
      <point x="370" y="720"/>
      <point x="367" y="723"/>
      <point x="364" y="724" type="curve" smooth="yes"/>
      <point x="360" y="725"/>
      <point x="354" y="722"/>
      <point x="345" y="717" type="curve"/>
      <point x="342" y="714"/>
      <point x="330" y="708"/>
      <point x="310" y="698" type="curve" smooth="yes"/>
      <point x="289" y="688"/>
      <point x="267" y="676"/>
      <point x="243" y="663" type="curve"/>
      <point x="243" y="689"/>
      <point x="243" y="712"/>
      <point x="242" y="732" type="curve" smooth="yes"/>
      <point x="241" y="752"/>
      <point x="240" y="765"/>
      <point x="240" y="770" type="curve" smooth="yes"/>
      <point x="240" y="779"/>
      <point x="239" y="786"/>
      <point x="237" y="789" type="curve" smooth="yes"/>
      <point x="234" y="792"/>
      <point x="231" y="794"/>
      <point x="227" y="795" type="curve" smooth="yes"/>
      <point x="223" y="796"/>
      <point x="219" y="796"/>
      <point x="215" y="796" type="curve"/>
      <point x="210" y="795"/>
      <point x="206" y="796"/>
      <point x="202" y="798" type="curve"/>
      <point x="201" y="795"/>
      <point x="200" y="790"/>
      <point x="199" y="782" type="curve" smooth="yes"/>
      <point x="198" y="774"/>
      <point x="197" y="764"/>
      <point x="196" y="753" type="curve" smooth="yes"/>
      <point x="195" y="741" name=".hr01"/>
      <point x="195" y="728"/>
      <point x="195" y="713" type="curve"/>
      <point x="194" y="698"/>
      <point x="194" y="683"/>
      <point x="194" y="668" type="curve"/>
      <point x="171" y="684"/>
      <point x="152" y="699"/>
      <point x="135" y="713" type="curve" smooth="yes"/>
      <point x="118" y="727"/>
      <point x="107" y="736"/>
      <point x="104" y="739" type="curve" smooth="yes"/>
      <point x="97" y="746"/>
      <point x="91" y="749"/>
      <point x="85" y="750" type="curve" smooth="yes"/>
      <point x="79" y="751"/>
      <point x="74" y="750"/>
      <point x="69" y="748" type="curve" smooth="yes"/>
      <point x="64" y="745"/>
      <point x="59" y="743"/>
      <point x="54" y="740" type="curve" smooth="yes"/>
      <point x="49" y="737"/>
      <point x="45" y="734"/>
      <point x="40" y="733" type="curve"/>
      <point x="41" y="729"/>
      <point x="46" y="724"/>
      <point x="54" y="717" type="curve" smooth="yes"/>
      <point x="62" y="710"/>
      <point x="72" y="702"/>
      <point x="84" y="693" type="curve" smooth="yes"/>
      <point x="96" y="684"/>
      <point x="109" y="673"/>
      <point x="124" y="662" type="curve" smooth="yes"/>
      <point x="138" y="651"/>
      <point x="152" y="638"/>
      <point x="167" y="625" type="curve"/>
      <point x="152" y="616"/>
      <point x="137" y="608"/>
      <point x="122" y="599" type="curve" smooth="yes"/>
      <point x="106" y="590"/>
      <point x="91" y="581"/>
      <point x="78" y="573" type="curve" smooth="yes"/>
      <point x="64" y="564"/>
      <point x="53" y="557"/>
      <point x="44" y="551" type="curve" smooth="yes"/>
      <point x="35" y="545"/>
      <point x="29" y="541"/>
      <point x="28" y="538" type="curve"/>
      <point x="34" y="534"/>
      <point x="39" y="530"/>
      <point x="42" y="526" type="curve" smooth="yes"/>
      <point x="45" y="522"/>
      <point x="47" y="519"/>
      <point x="50" y="516" type="curve" smooth="yes"/>
      <point x="53" y="513"/>
      <point x="56" y="512"/>
      <point x="61" y="513" type="curve" smooth="yes"/>
      <point x="65" y="514"/>
      <point x="71" y="516"/>
      <point x="80" y="521" type="curve" smooth="yes"/>
      <point x="96" y="529" type="line"/>
      <point x="124" y="543" type="line" smooth="yes"/>
      <point x="135" y="548"/>
      <point x="146" y="554"/>
      <point x="158" y="561" type="curve" smooth="yes"/>
      <point x="170" y="567"/>
      <point x="181" y="573"/>
      <point x="192" y="579" type="curve"/>
      <point x="192" y="558"/>
      <point x="192" y="539"/>
      <point x="193" y="521" type="curve" smooth="yes"/>
      <point x="194" y="502"/>
      <point x="194" y="490"/>
      <point x="194" y="484" type="curve" smooth="yes"/>
      <point x="194" y="473"/>
      <point x="195" y="466" name=".hr03"/>
      <point x="197" y="461" type="curve" smooth="yes"/>
      <point x="198" y="456"/>
      <point x="201" y="452"/>
      <point x="204" y="449" type="curve" smooth="yes"/>
      <point x="207" y="446"/>
      <point x="211" y="445"/>
      <point x="216" y="444" type="curve" smooth="yes"/>
      <point x="221" y="443"/>
      <point x="226" y="441"/>
      <point x="233" y="438" type="curve"/>
      <point x="234" y="440"/>
      <point x="236" y="445"/>
      <point x="237" y="453" type="curve" smooth="yes"/>
      <point x="238" y="460"/>
      <point x="239" y="470"/>
      <point x="240" y="482" type="curve" smooth="yes"/>
      <point x="241" y="493"/>
      <point x="241" y="506"/>
      <point x="242" y="520" type="curve"/>
      <point x="242" y="534"/>
      <point x="242" y="548"/>
      <point x="242" y="562" type="curve"/>
      <point x="259" y="549"/>
      <point x="273" y="535"/>
      <point x="286" y="522" type="curve" smooth="yes"/>
      <point x="299" y="509"/>
      <point x="307" y="500"/>
      <point x="312" y="496" type="curve" smooth="yes"/>
      <point x="319" y="489"/>
      <point x="326" y="485"/>
      <point x="332" y="482" type="curve" smooth="yes"/>
      <point x="338" y="479"/>
      <point x="344" y="478"/>
      <point x="350" y="479" type="curve" smooth="yes"/>
      <point x="356" y="480"/>
      <point x="362" y="481"/>
      <point x="368" y="484" type="curve" smooth="yes"/>
      <point x="374" y="486"/>
      <point x="381" y="488"/>
    </contour>
  </outline>
</glyph>
<glyph name="plus" format="2">
  <advance width="468"/>
  <unicode hex="002B"/>
  <outline>
    <contour>
      <point x="447" y="410" type="curve" smooth="yes"/>
      <point x="448" y="416"/>
      <point x="448" y="420"/>
      <point x="449" y="423" type="curve" smooth="yes"/>
      <point x="450" y="425"/>
      <point x="450" y="426"/>
      <point x="449" y="427" type="curve"/>
      <point x="448" y="427"/>
      <point x="447" y="427"/>
      <point x="444" y="427" type="curve"/>
      <point x="442" y="427"/>
      <point x="438" y="427"/>
      <point x="433" y="428" type="curve" smooth="yes"/>
      <point x="418" y="429"/>
      <point x="396" y="430"/>
      <point x="368" y="431" type="curve" smooth="yes"/>
      <point x="340" y="432"/>
      <point x="311" y="432"/>
      <point x="280" y="433" type="curve" name=".hr01"/>
      <point x="289" y="466"/>
      <point x="296" y="495"/>
      <point x="302" y="520" type="curve" smooth="yes"/>
      <point x="307" y="545"/>
      <point x="309" y="560"/>
      <point x="308" y="565" type="curve"/>
      <point x="301" y="564"/>
      <point x="294" y="564"/>
      <point x="289" y="565" type="curve" smooth="yes"/>
      <point x="283" y="566"/>
      <point x="278" y="566"/>
      <point x="273" y="566" type="curve"/>
      <point x="268" y="565"/>
      <point x="264" y="563"/>
      <point x="261" y="560" type="curve" smooth="yes"/>
      <point x="258" y="557"/>
      <point x="255" y="550"/>
      <point x="252" y="541" type="curve" smooth="yes"/>
      <point x="250" y="534"/>
      <point x="246" y="520"/>
      <point x="241" y="501" type="curve" smooth="yes"/>
      <point x="236" y="481"/>
      <point x="229" y="458"/>
      <point x="222" y="433" type="curve"/>
      <point x="194" y="433"/>
      <point x="169" y="433"/>
      <point x="148" y="433" type="curve"/>
      <point x="126" y="432"/>
      <point x="111" y="432"/>
      <point x="104" y="432" type="curve" smooth="yes"/>
      <point x="94" y="432"/>
      <point x="85" y="429"/>
      <point x="78" y="423" type="curve" smooth="yes"/>
      <point x="71" y="416"/>
      <point x="65" y="409"/>
      <point x="60" y="400" type="curve" smooth="yes"/>
      <point x="55" y="391"/>
      <point x="50" y="382"/>
      <point x="47" y="373" type="curve" smooth="yes"/>
      <point x="43" y="363"/>
      <point x="39" y="355"/>
      <point x="36" y="348" type="curve"/>
      <point x="39" y="347"/>
      <point x="45" y="346"/>
      <point x="55" y="345" type="curve" smooth="yes"/>
      <point x="64" y="344"/>
      <point x="76" y="344"/>
      <point x="91" y="344" type="curve" smooth="yes"/>
      <point x="141" y="344" type="line"/>
      <point x="199" y="344" type="line"/>
      <point x="190" y="310"/>
      <point x="182" y="280"/>
      <point x="177" y="253" type="curve" smooth="yes"/>
      <point x="171" y="226"/>
      <point x="169" y="209"/>
      <point x="170" y="203" type="curve"/>
      <point x="175" y="204"/>
      <point x="180" y="204"/>
      <point x="185" y="201" type="curve" smooth="yes"/>
      <point x="190" y="198"/>
      <point x="194" y="196"/>
      <point x="199" y="195" type="curve" smooth="yes"/>
      <point x="204" y="194"/>
      <point x="208" y="194"/>
      <point x="212" y="196" type="curve" smooth="yes"/>
      <point x="216" y="197"/>
      <point x="219" y="203"/>
      <point x="222" y="212" type="curve"/>
      <point x="223" y="218"/>
      <point x="228" y="233"/>
      <point x="235" y="257" type="curve" smooth="yes"/>
      <point x="242" y="280"/>
      <point x="249" y="308"/>
      <point x="258" y="340" type="curve" name=".hr02"/>
      <point x="400" y="340" type="line" smooth="yes"/>
      <point x="408" y="340"/>
      <point x="415" y="343"/>
      <point x="420" y="348" type="curve" smooth="yes"/>
      <point x="425" y="353"/>
      <point x="430" y="359"/>
      <point x="434" y="366" type="curve" smooth="yes"/>
      <point x="438" y="373"/>
      <point x="441" y="380"/>
      <point x="443" y="388" type="curve" smooth="yes"/>
      <point x="445" y="396"/>
      <point x="446" y="403"/>
    </contour>
  </outline>
</glyph>
<glyph name="comma" format="2">
  <advance width="229"/>
  <unicode hex="002C"/>
  <outline>
    <contour>
      <point x="166" y="93" type="curve" smooth="yes"/>
      <point x="155" y="108"/>
      <point x="142" y="117"/>
      <point x="127" y="120" type="curve" smooth="yes"/>
      <point x="112" y="123"/>
      <point x="96" y="118"/>
      <point x="81" y="107" type="curve" smooth="yes"/>
      <point x="66" y="96"/>
      <point x="57" y="81"/>
      <point x="54" y="63" type="curve" smooth="yes"/>
      <point x="51" y="45"/>
      <point x="55" y="28"/>
      <point x="66" y="13" type="curve" smooth="yes"/>
      <point x="71" y="6"/>
      <point x="77" y="1"/>
      <point x="84" y="-1" type="curve" smooth="yes"/>
      <point x="90" y="-3"/>
      <point x="97" y="-5"/>
      <point x="104" y="-7" type="curve"/>
      <point x="102" y="-10"/>
      <point x="98" y="-14"/>
      <point x="93" y="-20" type="curve" smooth="yes"/>
      <point x="87" y="-26"/>
      <point x="81" y="-33"/>
      <point x="75" y="-41" type="curve"/>
      <point x="68" y="-48"/>
      <point x="63" y="-56"/>
      <point x="58" y="-63" type="curve" smooth="yes"/>
      <point x="53" y="-70"/>
      <point x="49" y="-75"/>
      <point x="48" y="-80" type="curve" smooth="yes"/>
      <point x="47" y="-86"/>
      <point x="49" y="-93"/>
      <point x="55" y="-100" type="curve" smooth="yes"/>
      <point x="60" y="-107"/>
      <point x="64" y="-114"/>
      <point x="65" y="-119" type="curve"/>
      <point x="74" y="-116"/>
      <point x="84" y="-110"/>
      <point x="94" y="-99" type="curve" smooth="yes"/>
      <point x="104" y="-88"/>
      <point x="114" y="-77"/>
      <point x="123" y="-66" type="curve" smooth="yes"/>
      <point x="134" y="-53"/>
      <point x="144" y="-38"/>
      <point x="153" y="-22" type="curve"/>
      <point x="158" y="-18"/>
      <point x="163" y="-12"/>
      <point x="168" y="-3" type="curve" smooth="yes"/>
      <point x="173" y="7"/>
      <point x="176" y="17"/>
      <point x="178" y="28" type="curve" smooth="yes"/>
      <point x="179" y="39"/>
      <point x="179" y="51"/>
      <point x="178" y="63" type="curve" smooth="yes"/>
      <point x="177" y="74"/>
      <point x="173" y="84"/>
    </contour>
  </outline>
</glyph>
<glyph name="hyphen" format="2">
  <advance width="314"/>
  <unicode hex="002D"/>
  <unicode hex="00AD"/>
  <outline>
    <contour>
      <point x="278" y="323" type="curve"/>
      <point x="279" y="324"/>
      <point x="280" y="327"/>
      <point x="281" y="330" type="curve" smooth="yes"/>
      <point x="282" y="333"/>
      <point x="281" y="334"/>
      <point x="279" y="334" type="curve"/>
      <point x="274" y="338"/>
      <point x="264" y="341"/>
      <point x="247" y="342" type="curve" smooth="yes"/>
      <point x="230" y="343"/>
      <point x="211" y="343"/>
      <point x="190" y="343" type="curve" smooth="yes"/>
      <point x="169" y="343"/>
      <point x="149" y="343"/>
      <point x="130" y="342" type="curve" smooth="yes"/>
      <point x="111" y="341"/>
      <point x="96" y="340"/>
      <point x="87" y="340" type="curve" smooth="yes"/>
      <point x="77" y="340"/>
      <point x="68" y="338"/>
      <point x="61" y="333" type="curve" smooth="yes"/>
      <point x="54" y="328"/>
      <point x="48" y="323"/>
      <point x="43" y="316" type="curve" smooth="yes"/>
      <point x="38" y="309"/>
      <point x="33" y="301"/>
      <point x="30" y="293" type="curve" smooth="yes"/>
      <point x="26" y="284"/>
      <point x="22" y="277"/>
      <point x="19" y="270" type="curve"/>
      <point x="24" y="267"/>
      <point x="37" y="266"/>
      <point x="57" y="265" type="curve" smooth="yes"/>
      <point x="77" y="264"/>
      <point x="99" y="263"/>
      <point x="122" y="263" type="curve" smooth="yes"/>
      <point x="145" y="263"/>
      <point x="168" y="263"/>
      <point x="189" y="264" type="curve" smooth="yes"/>
      <point x="210" y="265"/>
      <point x="224" y="265"/>
      <point x="231" y="266" type="curve" smooth="yes"/>
      <point x="239" y="267"/>
      <point x="246" y="269"/>
      <point x="251" y="273" type="curve" smooth="yes"/>
      <point x="256" y="277"/>
      <point x="261" y="282"/>
      <point x="265" y="288" type="curve" smooth="yes"/>
      <point x="268" y="293"/>
      <point x="271" y="299"/>
      <point x="273" y="306" type="curve" smooth="yes"/>
      <point x="275" y="313"/>
      <point x="277" y="318"/>
    </contour>
  </outline>
</glyph>
<glyph name="period" format="2">
  <advance width="227"/>
  <unicode hex="002E"/>
  <outline>
    <contour>
      <point x="113" y="106" type="curve" smooth="yes"/>
      <point x="102" y="117"/>
      <point x="90" y="123"/>
      <point x="75" y="124" type="curve"/>
      <point x="60" y="124"/>
      <point x="46" y="119"/>
      <point x="35" y="108" type="curve" smooth="yes"/>
      <point x="24" y="97"/>
      <point x="18" y="85"/>
      <point x="18" y="70" type="curve"/>
      <point x="17" y="55"/>
      <point x="22" y="41"/>
      <point x="33" y="30" type="curve" smooth="yes"/>
      <point x="44" y="19"/>
      <point x="57" y="13"/>
      <point x="72" y="13" type="curve"/>
      <point x="87" y="12"/>
      <point x="100" y="17"/>
      <point x="111" y="28" type="curve" smooth="yes"/>
      <point x="122" y="39"/>
      <point x="128" y="52"/>
      <point x="129" y="67" type="curve"/>
      <point x="129" y="82"/>
      <point x="124" y="95"/>
    </contour>
  </outline>
</glyph>
<glyph name="slash" format="2">
  <advance width="435"/>
  <unicode hex="002F"/>
  <outline>
    <contour>
      <point x="93" y="19" type="curve"/>
      <point x="418" y="748" type="line"/>
      <point x="423" y="757"/>
      <point x="425" y="763"/>
      <point x="426" y="765" type="curve"/>
      <point x="427" y="766"/>
      <point x="423" y="770"/>
      <point x="416" y="775" type="curve" smooth="yes"/>
      <point x="413" y="778"/>
      <point x="410" y="780"/>
      <point x="406" y="782" type="curve" smooth="yes"/>
      <point x="401" y="784"/>
      <point x="396" y="785"/>
      <point x="390" y="785" type="curve" smooth="yes"/>
      <point x="385" y="785"/>
      <point x="378" y="784"/>
      <point x="371" y="781" type="curve" smooth="yes"/>
      <point x="363" y="778"/>
      <point x="354" y="774"/>
      <point x="345" y="767" type="curve"/>
      <point x="17" y="41" type="line"/>
      <point x="20" y="37"/>
      <point x="24" y="32"/>
      <point x="29" y="26" type="curve" smooth="yes"/>
      <point x="34" y="19"/>
      <point x="40" y="14"/>
      <point x="47" y="9" type="curve" smooth="yes"/>
      <point x="54" y="4"/>
      <point x="61" y="2"/>
      <point x="69" y="3" type="curve" smooth="yes"/>
      <point x="77" y="4"/>
      <point x="85" y="9"/>
    </contour>
  </outline>
</glyph>
<glyph name="zero" format="2">
  <advance width="547"/>
  <unicode hex="0030"/>
  <outline>
    <contour>
      <point x="477" y="240" type="curve" smooth="yes"/>
      <point x="497" y="289"/>
      <point x="513" y="339"/>
      <point x="524" y="388" type="curve" smooth="yes"/>
      <point x="535" y="437"/>
      <point x="541" y="483"/>
      <point x="540" y="528" type="curve" smooth="yes"/>
      <point x="539" y="572"/>
      <point x="530" y="613"/>
      <point x="515" y="650" type="curve" smooth="yes"/>
      <point x="500" y="687"/>
      <point x="476" y="718"/>
      <point x="444" y="744" type="curve" smooth="yes"/>
      <point x="415" y="767"/>
      <point x="385" y="781"/>
      <point x="354" y="785" type="curve" smooth="yes"/>
      <point x="323" y="789"/>
      <point x="292" y="786"/>
      <point x="263" y="775" type="curve" smooth="yes"/>
      <point x="233" y="764"/>
      <point x="205" y="747"/>
      <point x="178" y="723" type="curve" smooth="yes"/>
      <point x="151" y="699"/>
      <point x="127" y="671"/>
      <point x="107" y="638" type="curve" smooth="yes"/>
      <point x="98" y="623"/>
      <point x="90" y="605"/>
      <point x="81" y="583" type="curve" smooth="yes"/>
      <point x="74" y="564"/>
      <point x="66" y="540"/>
      <point x="57" y="511" type="curve" smooth="yes"/>
      <point x="48" y="482"/>
      <point x="38" y="448"/>
      <point x="29" y="408" type="curve" smooth="yes"/>
      <point x="20" y="370"/>
      <point x="16" y="330"/>
      <point x="16" y="287" type="curve" smooth="yes"/>
      <point x="16" y="244"/>
      <point x="21" y="204"/>
      <point x="30" y="167" type="curve" smooth="yes"/>
      <point x="39" y="130"/>
      <point x="54" y="97"/>
      <point x="74" y="70" type="curve" smooth="yes"/>
      <point x="94" y="42"/>
      <point x="120" y="24"/>
      <point x="151" y="15" type="curve" smooth="yes"/>
      <point x="214" y="-2"/>
      <point x="274" y="7"/>
      <point x="331" y="42" type="curve" smooth="yes"/>
      <point x="388" y="77"/>
      <point x="437" y="143"/>
    </contour>
    <contour>
      <point x="467" y="483" type="curve" smooth="yes"/>
      <point x="466" y="456"/>
      <point x="462" y="428"/>
      <point x="454" y="399" type="curve" smooth="yes"/>
      <point x="446" y="370"/>
      <point x="436" y="341"/>
      <point x="424" y="314" type="curve" smooth="yes"/>
      <point x="411" y="286"/>
      <point x="397" y="260"/>
      <point x="382" y="236" type="curve" smooth="yes"/>
      <point x="367" y="211"/>
      <point x="351" y="190"/>
      <point x="335" y="171" type="curve" smooth="yes"/>
      <point x="319" y="152"/>
      <point x="303" y="136"/>
      <point x="288" y="125" type="curve" smooth="yes"/>
      <point x="273" y="113"/>
      <point x="259" y="106"/>
      <point x="246" y="105" type="curve"/>
      <point x="209" y="100"/>
      <point x="181" y="104"/>
      <point x="160" y="117" type="curve" smooth="yes"/>
      <point x="139" y="130"/>
      <point x="123" y="149"/>
      <point x="113" y="174" type="curve" smooth="yes"/>
      <point x="102" y="199"/>
      <point x="96" y="230"/>
      <point x="94" y="265" type="curve" smooth="yes"/>
      <point x="91" y="300"/>
      <point x="90" y="337"/>
      <point x="90" y="376" type="curve" smooth="yes"/>
      <point x="90" y="403"/>
      <point x="94" y="430"/>
      <point x="103" y="457" type="curve" smooth="yes"/>
      <point x="112" y="484"/>
      <point x="123" y="511"/>
      <point x="137" y="536" type="curve" smooth="yes"/>
      <point x="151" y="561"/>
      <point x="167" y="584"/>
      <point x="184" y="606" type="curve" smooth="yes"/>
      <point x="201" y="628"/>
      <point x="219" y="647"/>
      <point x="236" y="663" type="curve" smooth="yes"/>
      <point x="253" y="679"/>
      <point x="269" y="691"/>
      <point x="284" y="700" type="curve" smooth="yes"/>
      <point x="299" y="708"/>
      <point x="311" y="711"/>
      <point x="320" y="709" type="curve" smooth="yes"/>
      <point x="341" y="705"/>
      <point x="361" y="698"/>
      <point x="380" y="689" type="curve" smooth="yes"/>
      <point x="398" y="680"/>
      <point x="414" y="666"/>
      <point x="427" y="649" type="curve" smooth="yes"/>
      <point x="440" y="632"/>
      <point x="451" y="610"/>
      <point x="458" y="583" type="curve" smooth="yes"/>
      <point x="465" y="556"/>
      <point x="468" y="522"/>
    </contour>
  </outline>
</glyph>
<glyph name="one" format="2">
  <advance width="362"/>
  <unicode hex="0031"/>
  <outline>
    <contour>
      <point x="298" y="70" type="curve" smooth="yes"/>
      <point x="298" y="81" type="line" smooth="yes"/>
      <point x="298" y="84"/>
      <point x="298" y="85"/>
      <point x="297" y="86" type="curve"/>
      <point x="296" y="87"/>
      <point x="295" y="87"/>
      <point x="292" y="87" type="curve" smooth="yes"/>
      <point x="280" y="87" type="line"/>
      <point x="205" y="87" type="line"/>
      <point x="215" y="192"/>
      <point x="224" y="289"/>
      <point x="232" y="379" type="curve" smooth="yes"/>
      <point x="235" y="417"/>
      <point x="239" y="455"/>
      <point x="243" y="494" type="curve" smooth="yes"/>
      <point x="246" y="533"/>
      <point x="250" y="569"/>
      <point x="253" y="603" type="curve" smooth="yes"/>
      <point x="256" y="636"/>
      <point x="260" y="666"/>
      <point x="263" y="692" type="curve" smooth="yes"/>
      <point x="266" y="718"/>
      <point x="268" y="738"/>
      <point x="270" y="751" type="curve" smooth="yes"/>
      <point x="273" y="770"/>
      <point x="274" y="783"/>
      <point x="271" y="789" type="curve" smooth="yes"/>
      <point x="268" y="794"/>
      <point x="265" y="796"/>
      <point x="261" y="795" type="curve" smooth="yes"/>
      <point x="256" y="794"/>
      <point x="251" y="789"/>
      <point x="244" y="782" type="curve"/>
      <point x="238" y="772"/>
      <point x="229" y="761"/>
      <point x="217" y="748" type="curve" smooth="yes"/>
      <point x="204" y="735"/>
      <point x="191" y="722"/>
      <point x="178" y="709" type="curve" smooth="yes"/>
      <point x="164" y="696"/>
      <point x="150" y="683"/>
      <point x="137" y="670" type="curve" smooth="yes"/>
      <point x="123" y="657"/>
      <point x="111" y="644"/>
      <point x="102" y="633" type="curve" smooth="yes"/>
      <point x="93" y="622"/>
      <point x="91" y="614"/>
      <point x="94" y="607" type="curve" smooth="yes"/>
      <point x="97" y="600"/>
      <point x="103" y="597"/>
      <point x="111" y="596" type="curve"/>
      <point x="116" y="596"/>
      <point x="123" y="596"/>
      <point x="131" y="597" type="curve" smooth="yes"/>
      <point x="139" y="598"/>
      <point x="147" y="599"/>
      <point x="154" y="600" type="curve" smooth="yes"/>
      <point x="180" y="604" type="line"/>
      <point x="134" y="88" type="line"/>
      <point x="64" y="88" type="line" smooth="yes"/>
      <point x="56" y="88"/>
      <point x="50" y="85"/>
      <point x="45" y="78" type="curve" smooth="yes"/>
      <point x="40" y="71"/>
      <point x="36" y="64"/>
      <point x="33" y="55" type="curve" smooth="yes"/>
      <point x="30" y="46"/>
      <point x="29" y="37"/>
      <point x="29" y="28" type="curve"/>
      <point x="28" y="19"/>
      <point x="29" y="12"/>
      <point x="30" y="8" type="curve"/>
      <point x="39" y="8"/>
      <point x="54" y="8"/>
      <point x="77" y="7" type="curve" smooth="yes"/>
      <point x="100" y="6"/>
      <point x="124" y="6"/>
      <point x="149" y="6" type="curve" smooth="yes"/>
      <point x="223" y="6" type="line" smooth="yes"/>
      <point x="246" y="6"/>
      <point x="263" y="6"/>
      <point x="273" y="7" type="curve" smooth="yes"/>
      <point x="278" y="8"/>
      <point x="283" y="10"/>
      <point x="286" y="15" type="curve" smooth="yes"/>
      <point x="289" y="19"/>
      <point x="292" y="24"/>
      <point x="294" y="31" type="curve" smooth="yes"/>
      <point x="296" y="37"/>
      <point x="297" y="44"/>
      <point x="298" y="51" type="curve"/>
      <point x="298" y="58"/>
      <point x="298" y="64"/>
    </contour>
  </outline>
</glyph>
<glyph name="two" format="2">
  <advance width="511"/>
  <unicode hex="0032"/>
  <outline>
    <contour>
      <point x="463" y="78" type="curve" smooth="yes"/>
      <point x="460" y="93" type="line" smooth="yes"/>
      <point x="459" y="96"/>
      <point x="459" y="99"/>
      <point x="458" y="100" type="curve"/>
      <point x="457" y="101"/>
      <point x="455" y="101"/>
      <point x="452" y="101" type="curve"/>
      <point x="449" y="100"/>
      <point x="444" y="100"/>
      <point x="438" y="100" type="curve"/>
      <point x="427" y="99"/>
      <point x="412" y="98"/>
      <point x="393" y="97" type="curve" smooth="yes"/>
      <point x="374" y="96"/>
      <point x="354" y="95"/>
      <point x="333" y="94" type="curve" smooth="yes"/>
      <point x="311" y="93"/>
      <point x="289" y="93"/>
      <point x="266" y="93" type="curve"/>
      <point x="243" y="92"/>
      <point x="222" y="93"/>
      <point x="203" y="94" type="curve" smooth="yes"/>
      <point x="183" y="95"/>
      <point x="166" y="96"/>
      <point x="152" y="99" type="curve" smooth="yes"/>
      <point x="138" y="101"/>
      <point x="129" y="104"/>
      <point x="125" y="108" type="curve" smooth="yes"/>
      <point x="119" y="114"/>
      <point x="117" y="121"/>
      <point x="119" y="128" type="curve" smooth="yes"/>
      <point x="120" y="135"/>
      <point x="124" y="143"/>
      <point x="131" y="152" type="curve" smooth="yes"/>
      <point x="137" y="161"/>
      <point x="145" y="170"/>
      <point x="154" y="181" type="curve" smooth="yes"/>
      <point x="163" y="191"/>
      <point x="172" y="202"/>
      <point x="181" y="214" type="curve" smooth="yes"/>
      <point x="188" y="222"/>
      <point x="198" y="235"/>
      <point x="213" y="252" type="curve" smooth="yes"/>
      <point x="227" y="269"/>
      <point x="243" y="288"/>
      <point x="262" y="309" type="curve" smooth="yes"/>
      <point x="280" y="330"/>
      <point x="299" y="353"/>
      <point x="320" y="377" type="curve" smooth="yes"/>
      <point x="340" y="400"/>
      <point x="359" y="423"/>
      <point x="376" y="444" type="curve" smooth="yes"/>
      <point x="393" y="465"/>
      <point x="408" y="485"/>
      <point x="421" y="502" type="curve" smooth="yes"/>
      <point x="434" y="519"/>
      <point x="442" y="531"/>
      <point x="446" y="540" type="curve" smooth="yes"/>
      <point x="451" y="553"/>
      <point x="456" y="570"/>
      <point x="460" y="593" type="curve" smooth="yes"/>
      <point x="464" y="615"/>
      <point x="466" y="638"/>
      <point x="465" y="661" type="curve" smooth="yes"/>
      <point x="464" y="684"/>
      <point x="461" y="705"/>
      <point x="454" y="725" type="curve" smooth="yes"/>
      <point x="447" y="744"/>
      <point x="435" y="757"/>
      <point x="418" y="764" type="curve" smooth="yes"/>
      <point x="384" y="778"/>
      <point x="351" y="787"/>
      <point x="319" y="791" type="curve"/>
      <point x="286" y="794"/>
      <point x="255" y="788"/>
      <point x="226" y="773" type="curve" smooth="yes"/>
      <point x="210" y="764"/>
      <point x="195" y="755"/>
      <point x="180" y="746" type="curve" smooth="yes"/>
      <point x="165" y="737"/>
      <point x="151" y="725"/>
      <point x="138" y="712" type="curve" smooth="yes"/>
      <point x="125" y="698"/>
      <point x="114" y="681"/>
      <point x="105" y="662" type="curve" smooth="yes"/>
      <point x="95" y="643"/>
      <point x="87" y="619"/>
      <point x="81" y="590" type="curve" smooth="yes"/>
      <point x="80" y="583"/>
      <point x="81" y="578"/>
      <point x="86" y="576" type="curve" smooth="yes"/>
      <point x="91" y="574"/>
      <point x="96" y="573"/>
      <point x="101" y="572" type="curve" smooth="yes"/>
      <point x="108" y="571"/>
      <point x="115" y="572"/>
      <point x="124" y="574" type="curve"/>
      <point x="132" y="589"/>
      <point x="140" y="602"/>
      <point x="149" y="615" type="curve" smooth="yes"/>
      <point x="156" y="626"/>
      <point x="165" y="637"/>
      <point x="175" y="648" type="curve" smooth="yes"/>
      <point x="185" y="658"/>
      <point x="195" y="666"/>
      <point x="204" y="671" type="curve" smooth="yes"/>
      <point x="213" y="676"/>
      <point x="226" y="681"/>
      <point x="242" y="686" type="curve" smooth="yes"/>
      <point x="257" y="690"/>
      <point x="273" y="693"/>
      <point x="290" y="694" type="curve" smooth="yes"/>
      <point x="307" y="695"/>
      <point x="323" y="694"/>
      <point x="339" y="691" type="curve" smooth="yes"/>
      <point x="355" y="688"/>
      <point x="368" y="680"/>
      <point x="379" y="669" type="curve" smooth="yes"/>
      <point x="387" y="661"/>
      <point x="391" y="650"/>
      <point x="391" y="635" type="curve"/>
      <point x="390" y="620"/>
      <point x="388" y="605"/>
      <point x="385" y="590" type="curve" smooth="yes"/>
      <point x="381" y="573"/>
      <point x="375" y="554"/>
      <point x="367" y="535" type="curve"/>
      <point x="324" y="485"/>
      <point x="285" y="438"/>
      <point x="248" y="395" type="curve" smooth="yes"/>
      <point x="232" y="376"/>
      <point x="216" y="358"/>
      <point x="200" y="339" type="curve" smooth="yes"/>
      <point x="184" y="320"/>
      <point x="169" y="302"/>
      <point x="155" y="285" type="curve" smooth="yes"/>
      <point x="141" y="268"/>
      <point x="128" y="252"/>
      <point x="117" y="238" type="curve" smooth="yes"/>
      <point x="106" y="224"/>
      <point x="97" y="213"/>
      <point x="91" y="204" type="curve" smooth="yes"/>
      <point x="78" y="187"/>
      <point x="68" y="168"/>
      <point x="61" y="145" type="curve" smooth="yes"/>
      <point x="54" y="122"/>
      <point x="48" y="101"/>
      <point x="44" y="80" type="curve" smooth="yes"/>
      <point x="39" y="56"/>
      <point x="36" y="32"/>
      <point x="35" y="7" type="curve"/>
      <point x="106" y="6"/>
      <point x="170" y="5"/>
      <point x="228" y="4" type="curve" smooth="yes"/>
      <point x="253" y="3"/>
      <point x="277" y="3"/>
      <point x="302" y="2" type="curve" smooth="yes"/>
      <point x="326" y="1"/>
      <point x="348" y="1"/>
      <point x="369" y="0" type="curve" smooth="yes"/>
      <point x="390" y="-1"/>
      <point x="407" y="-1"/>
      <point x="422" y="-2" type="curve" smooth="yes"/>
      <point x="436" y="-3"/>
      <point x="445" y="-3"/>
      <point x="450" y="-4" type="curve" smooth="yes"/>
      <point x="457" y="-5"/>
      <point x="462" y="-3"/>
      <point x="465" y="3" type="curve" smooth="yes"/>
      <point x="468" y="8"/>
      <point x="469" y="15"/>
      <point x="470" y="24" type="curve"/>
      <point x="470" y="32"/>
      <point x="469" y="41"/>
      <point x="468" y="51" type="curve" smooth="yes"/>
      <point x="467" y="61"/>
      <point x="465" y="70"/>
    </contour>
  </outline>
</glyph>
<glyph name="three" format="2">
  <advance width="552"/>
  <unicode hex="0033"/>
  <outline>
    <contour>
      <point x="497" y="541" type="curve" smooth="yes"/>
      <point x="501" y="551"/>
      <point x="506" y="564"/>
      <point x="511" y="580" type="curve" smooth="yes"/>
      <point x="516" y="595"/>
      <point x="519" y="612"/>
      <point x="519" y="631" type="curve" smooth="yes"/>
      <point x="519" y="650"/>
      <point x="515" y="670"/>
      <point x="507" y="691" type="curve" smooth="yes"/>
      <point x="498" y="712"/>
      <point x="483" y="732"/>
      <point x="461" y="751" type="curve" smooth="yes"/>
      <point x="439" y="770"/>
      <point x="412" y="783"/>
      <point x="380" y="788" type="curve" smooth="yes"/>
      <point x="348" y="793"/>
      <point x="317" y="793"/>
      <point x="287" y="788" type="curve" smooth="yes"/>
      <point x="256" y="783"/>
      <point x="229" y="773"/>
      <point x="206" y="758" type="curve" smooth="yes"/>
      <point x="183" y="743"/>
      <point x="169" y="726"/>
      <point x="164" y="705" type="curve" smooth="yes"/>
      <point x="161" y="693"/>
      <point x="161" y="682"/>
      <point x="164" y="672" type="curve" smooth="yes"/>
      <point x="167" y="662"/>
      <point x="171" y="654"/>
      <point x="176" y="647" type="curve" smooth="yes"/>
      <point x="181" y="640"/>
      <point x="188" y="634"/>
      <point x="195" y="631" type="curve" smooth="yes"/>
      <point x="202" y="627"/>
      <point x="208" y="626"/>
      <point x="214" y="627" type="curve" smooth="yes"/>
      <point x="221" y="628"/>
      <point x="229" y="634"/>
      <point x="238" y="643" type="curve" smooth="yes"/>
      <point x="247" y="652"/>
      <point x="257" y="662"/>
      <point x="269" y="671" type="curve" smooth="yes"/>
      <point x="280" y="680"/>
      <point x="294" y="687"/>
      <point x="310" y="692" type="curve" smooth="yes"/>
      <point x="326" y="697"/>
      <point x="345" y="697"/>
      <point x="367" y="691" type="curve" smooth="yes"/>
      <point x="390" y="685"/>
      <point x="407" y="676"/>
      <point x="416" y="665" type="curve" smooth="yes"/>
      <point x="425" y="654"/>
      <point x="431" y="642"/>
      <point x="433" y="631" type="curve" smooth="yes"/>
      <point x="436" y="618"/>
      <point x="434" y="605"/>
      <point x="429" y="590" type="curve"/>
      <point x="428" y="573"/>
      <point x="421" y="556"/>
      <point x="408" y="539" type="curve" smooth="yes"/>
      <point x="395" y="522"/>
      <point x="379" y="506"/>
      <point x="362" y="492" type="curve" smooth="yes"/>
      <point x="345" y="478"/>
      <point x="327" y="466"/>
      <point x="310" y="457" type="curve" smooth="yes"/>
      <point x="292" y="448"/>
      <point x="277" y="442"/>
      <point x="266" y="440" type="curve" smooth="yes"/>
      <point x="258" y="439"/>
      <point x="251" y="433"/>
      <point x="246" y="423" type="curve" smooth="yes"/>
      <point x="241" y="413"/>
      <point x="237" y="402"/>
      <point x="236" y="391" type="curve" smooth="yes"/>
      <point x="235" y="380"/>
      <point x="236" y="369"/>
      <point x="240" y="359" type="curve" smooth="yes"/>
      <point x="243" y="349"/>
      <point x="250" y="343"/>
      <point x="259" y="342" type="curve" smooth="yes"/>
      <point x="272" y="340"/>
      <point x="287" y="336"/>
      <point x="304" y="330" type="curve" smooth="yes"/>
      <point x="321" y="323"/>
      <point x="338" y="315"/>
      <point x="354" y="306" type="curve" smooth="yes"/>
      <point x="370" y="296"/>
      <point x="384" y="285"/>
      <point x="396" y="273" type="curve" smooth="yes"/>
      <point x="407" y="261"/>
      <point x="413" y="249"/>
      <point x="413" y="236" type="curve"/>
      <point x="414" y="205"/>
      <point x="408" y="179"/>
      <point x="397" y="158" type="curve" smooth="yes"/>
      <point x="385" y="136"/>
      <point x="370" y="118"/>
      <point x="351" y="105" type="curve" smooth="yes"/>
      <point x="332" y="92"/>
      <point x="310" y="83"/>
      <point x="287" y="78" type="curve" smooth="yes"/>
      <point x="263" y="73"/>
      <point x="240" y="72"/>
      <point x="218" y="75" type="curve"/>
      <point x="195" y="77"/>
      <point x="175" y="83"/>
      <point x="156" y="92" type="curve" smooth="yes"/>
      <point x="137" y="101"/>
      <point x="123" y="114"/>
      <point x="114" y="130" type="curve"/>
      <point x="111" y="137"/>
      <point x="107" y="144"/>
      <point x="102" y="151" type="curve" smooth="yes"/>
      <point x="97" y="158"/>
      <point x="91" y="165"/>
      <point x="85" y="170" type="curve" smooth="yes"/>
      <point x="79" y="175"/>
      <point x="73" y="179"/>
      <point x="66" y="181" type="curve" smooth="yes"/>
      <point x="59" y="183"/>
      <point x="51" y="182"/>
      <point x="43" y="178" type="curve" smooth="yes"/>
      <point x="35" y="174"/>
      <point x="30" y="167"/>
      <point x="28" y="157" type="curve" smooth="yes"/>
      <point x="25" y="147"/>
      <point x="25" y="136"/>
      <point x="26" y="123" type="curve" smooth="yes"/>
      <point x="27" y="110"/>
      <point x="29" y="98"/>
      <point x="33" y="85" type="curve" smooth="yes"/>
      <point x="37" y="72"/>
      <point x="42" y="61"/>
      <point x="47" y="52" type="curve" smooth="yes"/>
      <point x="53" y="42"/>
      <point x="67" y="32"/>
      <point x="88" y="22" type="curve" smooth="yes"/>
      <point x="109" y="12"/>
      <point x="134" y="4"/>
      <point x="162" y="-2" type="curve" smooth="yes"/>
      <point x="190" y="-8"/>
      <point x="219" y="-11"/>
      <point x="249" y="-10" type="curve" smooth="yes"/>
      <point x="278" y="-9"/>
      <point x="304" y="-2"/>
      <point x="326" y="10" type="curve" smooth="yes"/>
      <point x="354" y="25"/>
      <point x="377" y="39"/>
      <point x="395" y="52" type="curve" smooth="yes"/>
      <point x="412" y="64"/>
      <point x="426" y="77"/>
      <point x="437" y="90" type="curve" smooth="yes"/>
      <point x="448" y="103"/>
      <point x="456" y="117"/>
      <point x="462" y="133" type="curve" smooth="yes"/>
      <point x="467" y="148"/>
      <point x="472" y="167"/>
      <point x="477" y="188" type="curve" smooth="yes"/>
      <point x="480" y="203"/>
      <point x="482" y="217"/>
      <point x="482" y="231" type="curve"/>
      <point x="481" y="245"/>
      <point x="480" y="259"/>
      <point x="477" y="272" type="curve" smooth="yes"/>
      <point x="474" y="285"/>
      <point x="471" y="297"/>
      <point x="466" y="308" type="curve" smooth="yes"/>
      <point x="461" y="319"/>
      <point x="455" y="330"/>
      <point x="450" y="340" type="curve" smooth="yes"/>
      <point x="437" y="363"/>
      <point x="421" y="384"/>
      <point x="402" y="404" type="curve"/>
      <point x="417" y="423"/>
      <point x="430" y="441"/>
      <point x="443" y="458" type="curve" smooth="yes"/>
      <point x="454" y="473"/>
      <point x="465" y="488"/>
      <point x="476" y="504" type="curve" smooth="yes"/>
      <point x="486" y="519"/>
      <point x="493" y="532"/>
    </contour>
  </outline>
</glyph>
<glyph name="four" format="2">
  <advance width="578"/>
  <unicode hex="0034"/>
  <outline>
    <contour>
      <point x="579" y="354" type="curve" smooth="yes"/>
      <point x="582" y="361"/>
      <point x="584" y="367"/>
      <point x="585" y="370" type="curve" smooth="yes"/>
      <point x="586" y="373"/>
      <point x="586" y="376"/>
      <point x="585" y="377" type="curve"/>
      <point x="584" y="378"/>
      <point x="581" y="379"/>
      <point x="578" y="379" type="curve"/>
      <point x="575" y="378"/>
      <point x="570" y="378"/>
      <point x="563" y="378" type="curve"/>
      <point x="409" y="380" type="line"/>
      <point x="422" y="441"/>
      <point x="433" y="497"/>
      <point x="443" y="548" type="curve" smooth="yes"/>
      <point x="447" y="570"/>
      <point x="451" y="592"/>
      <point x="455" y="614" type="curve" smooth="yes"/>
      <point x="459" y="635"/>
      <point x="463" y="655"/>
      <point x="466" y="674" type="curve" smooth="yes"/>
      <point x="469" y="692"/>
      <point x="471" y="708"/>
      <point x="473" y="722" type="curve" smooth="yes"/>
      <point x="474" y="735"/>
      <point x="475" y="745"/>
      <point x="474" y="751" type="curve"/>
      <point x="473" y="770"/>
      <point x="468" y="783"/>
      <point x="460" y="790" type="curve"/>
      <point x="451" y="796"/>
      <point x="442" y="799"/>
      <point x="432" y="800" type="curve" smooth="yes"/>
      <point x="420" y="801"/>
      <point x="407" y="798"/>
      <point x="393" y="792" type="curve"/>
      <point x="18" y="331" type="line"/>
      <point x="13" y="321"/>
      <point x="11" y="312"/>
      <point x="13" y="305" type="curve" smooth="yes"/>
      <point x="14" y="298"/>
      <point x="17" y="291"/>
      <point x="21" y="286" type="curve" smooth="yes"/>
      <point x="26" y="280"/>
      <point x="32" y="275"/>
      <point x="40" y="272" type="curve"/>
      <point x="304" y="270" type="line"/>
      <point x="259" y="13" type="line"/>
      <point x="264" y="3"/>
      <point x="270" y="-3"/>
      <point x="278" y="-5" type="curve" smooth="yes"/>
      <point x="285" y="-7"/>
      <point x="293" y="-7"/>
      <point x="300" y="-5" type="curve" smooth="yes"/>
      <point x="309" y="-2"/>
      <point x="318" y="2"/>
      <point x="329" y="7" type="curve"/>
      <point x="376" y="270" type="line"/>
      <point x="501" y="270" type="line"/>
      <point x="525" y="279"/>
      <point x="543" y="292"/>
      <point x="555" y="309" type="curve" smooth="yes"/>
      <point x="566" y="326"/>
      <point x="574" y="341"/>
    </contour>
    <contour>
      <point x="126" y="376" type="curve"/>
      <point x="408" y="732" type="line"/>
      <point x="337" y="402" type="line" smooth="yes"/>
      <point x="336" y="398"/>
      <point x="335" y="394"/>
      <point x="332" y="391" type="curve" smooth="yes"/>
      <point x="329" y="388"/>
      <point x="326" y="385"/>
      <point x="322" y="382" type="curve" smooth="yes"/>
      <point x="318" y="379"/>
      <point x="312" y="377"/>
      <point x="305" y="376" type="curve" smooth="yes"/>
      <point x="298" y="375"/>
      <point x="284" y="374"/>
      <point x="265" y="374" type="curve"/>
      <point x="246" y="373"/>
      <point x="226" y="373"/>
      <point x="205" y="374" type="curve" smooth="yes"/>
      <point x="181" y="375"/>
      <point x="155" y="375"/>
    </contour>
  </outline>
</glyph>
<glyph name="five" format="2">
  <advance width="529"/>
  <unicode hex="0035"/>
  <outline>
    <contour>
      <point x="521" y="779" type="curve" smooth="yes"/>
      <point x="521" y="782"/>
      <point x="521" y="786"/>
      <point x="522" y="790" type="curve"/>
      <point x="522" y="794"/>
      <point x="520" y="797"/>
      <point x="517" y="798" type="curve"/>
      <point x="219" y="790" type="line"/>
      <point x="208" y="790"/>
      <point x="197" y="789"/>
      <point x="188" y="786" type="curve" smooth="yes"/>
      <point x="180" y="784"/>
      <point x="172" y="781"/>
      <point x="165" y="778" type="curve" smooth="yes"/>
      <point x="158" y="775"/>
      <point x="153" y="769"/>
      <point x="151" y="762" type="curve"/>
      <point x="94" y="356" type="line"/>
      <point x="171" y="356" type="line" smooth="yes"/>
      <point x="192" y="356"/>
      <point x="214" y="356"/>
      <point x="236" y="356" type="curve"/>
      <point x="258" y="355"/>
      <point x="276" y="354"/>
      <point x="291" y="353" type="curve" smooth="yes"/>
      <point x="312" y="352"/>
      <point x="331" y="347"/>
      <point x="347" y="338" type="curve" smooth="yes"/>
      <point x="362" y="329"/>
      <point x="374" y="317"/>
      <point x="383" y="302" type="curve" smooth="yes"/>
      <point x="392" y="287"/>
      <point x="397" y="269"/>
      <point x="398" y="248" type="curve" smooth="yes"/>
      <point x="399" y="227"/>
      <point x="396" y="203"/>
      <point x="388" y="177" type="curve"/>
      <point x="369" y="141"/>
      <point x="344" y="117"/>
      <point x="311" y="104" type="curve" smooth="yes"/>
      <point x="278" y="91"/>
      <point x="234" y="90"/>
      <point x="179" y="102" type="curve" smooth="yes"/>
      <point x="156" y="107"/>
      <point x="137" y="112"/>
      <point x="121" y="117" type="curve" smooth="yes"/>
      <point x="104" y="122"/>
      <point x="91" y="126"/>
      <point x="80" y="127" type="curve" smooth="yes"/>
      <point x="69" y="128"/>
      <point x="59" y="127"/>
      <point x="52" y="122" type="curve" smooth="yes"/>
      <point x="45" y="117"/>
      <point x="39" y="107"/>
      <point x="34" y="92" type="curve" smooth="yes"/>
      <point x="31" y="81"/>
      <point x="27" y="69"/>
      <point x="24" y="57" type="curve" smooth="yes"/>
      <point x="20" y="45"/>
      <point x="18" y="34"/>
      <point x="19" y="25" type="curve"/>
      <point x="19" y="16"/>
      <point x="23" y="8"/>
      <point x="31" y="3" type="curve"/>
      <point x="38" y="-3"/>
      <point x="51" y="-6"/>
      <point x="70" y="-5" type="curve" smooth="yes"/>
      <point x="84" y="-4"/>
      <point x="100" y="-5"/>
      <point x="118" y="-7" type="curve" smooth="yes"/>
      <point x="135" y="-9"/>
      <point x="154" y="-11"/>
      <point x="175" y="-12" type="curve" smooth="yes"/>
      <point x="196" y="-13"/>
      <point x="217" y="-14"/>
      <point x="239" y="-13" type="curve" smooth="yes"/>
      <point x="260" y="-12"/>
      <point x="282" y="-9"/>
      <point x="304" y="-2" type="curve" smooth="yes"/>
      <point x="325" y="5"/>
      <point x="346" y="15"/>
      <point x="367" y="28" type="curve" smooth="yes"/>
      <point x="387" y="41"/>
      <point x="405" y="60"/>
      <point x="422" y="84" type="curve" smooth="yes"/>
      <point x="439" y="108"/>
      <point x="452" y="134"/>
      <point x="461" y="162" type="curve" smooth="yes"/>
      <point x="470" y="190"/>
      <point x="474" y="218"/>
      <point x="474" y="247" type="curve" smooth="yes"/>
      <point x="474" y="276"/>
      <point x="470" y="305"/>
      <point x="461" y="334" type="curve" smooth="yes"/>
      <point x="452" y="362"/>
      <point x="439" y="388"/>
      <point x="422" y="413" type="curve" smooth="yes"/>
      <point x="415" y="424"/>
      <point x="404" y="433"/>
      <point x="389" y="440" type="curve" smooth="yes"/>
      <point x="374" y="447"/>
      <point x="357" y="452"/>
      <point x="338" y="456" type="curve" smooth="yes"/>
      <point x="319" y="460"/>
      <point x="300" y="463"/>
      <point x="280" y="465" type="curve" smooth="yes"/>
      <point x="260" y="466"/>
      <point x="241" y="467"/>
      <point x="223" y="467" type="curve"/>
      <point x="214" y="468"/>
      <point x="207" y="469"/>
      <point x="201" y="468" type="curve" smooth="yes"/>
      <point x="194" y="467"/>
      <point x="189" y="466"/>
      <point x="186" y="465" type="curve" smooth="yes"/>
      <point x="182" y="464"/>
      <point x="179" y="462"/>
      <point x="176" y="461" type="curve"/>
      <point x="203" y="684" type="line"/>
      <point x="245" y="683"/>
      <point x="284" y="683"/>
      <point x="321" y="683" type="curve" smooth="yes"/>
      <point x="352" y="683"/>
      <point x="383" y="683"/>
      <point x="413" y="684" type="curve"/>
      <point x="443" y="684"/>
      <point x="465" y="685"/>
      <point x="478" y="687" type="curve" smooth="yes"/>
      <point x="488" y="688"/>
      <point x="496" y="693"/>
      <point x="502" y="700" type="curve" smooth="yes"/>
      <point x="508" y="707"/>
      <point x="513" y="715"/>
      <point x="516" y="724" type="curve" smooth="yes"/>
      <point x="519" y="733"/>
      <point x="520" y="742"/>
      <point x="521" y="752" type="curve"/>
      <point x="521" y="762"/>
      <point x="521" y="771"/>
    </contour>
  </outline>
</glyph>
<glyph name="six" format="2">
  <advance width="514"/>
  <unicode hex="0036"/>
  <outline>
    <contour>
      <point x="455" y="745" type="curve"/>
      <point x="454" y="760"/>
      <point x="447" y="772"/>
      <point x="434" y="780" type="curve" smooth="yes"/>
      <point x="421" y="787"/>
      <point x="408" y="793"/>
      <point x="394" y="796" type="curve" smooth="yes"/>
      <point x="377" y="799"/>
      <point x="359" y="801"/>
      <point x="338" y="800" type="curve"/>
      <point x="321" y="797"/>
      <point x="303" y="792"/>
      <point x="286" y="785" type="curve"/>
      <point x="271" y="780"/>
      <point x="256" y="772"/>
      <point x="241" y="763" type="curve" smooth="yes"/>
      <point x="226" y="754"/>
      <point x="212" y="742"/>
      <point x="201" y="727" type="curve" smooth="yes"/>
      <point x="190" y="714"/>
      <point x="178" y="695"/>
      <point x="164" y="670" type="curve" smooth="yes"/>
      <point x="149" y="645"/>
      <point x="135" y="616"/>
      <point x="120" y="585" type="curve" smooth="yes"/>
      <point x="105" y="553"/>
      <point x="91" y="519"/>
      <point x="78" y="482" type="curve" smooth="yes"/>
      <point x="64" y="445"/>
      <point x="53" y="407"/>
      <point x="44" y="370" type="curve" smooth="yes"/>
      <point x="35" y="332"/>
      <point x="30" y="295"/>
      <point x="28" y="259" type="curve" smooth="yes"/>
      <point x="25" y="222"/>
      <point x="28" y="188"/>
      <point x="36" y="157" type="curve" smooth="yes"/>
      <point x="43" y="126"/>
      <point x="57" y="98"/>
      <point x="76" y="75" type="curve" smooth="yes"/>
      <point x="95" y="51"/>
      <point x="122" y="33"/>
      <point x="157" y="20" type="curve" smooth="yes"/>
      <point x="194" y="7"/>
      <point x="228" y="0"/>
      <point x="258" y="0" type="curve" smooth="yes"/>
      <point x="288" y="0"/>
      <point x="314" y="4"/>
      <point x="337" y="11" type="curve" smooth="yes"/>
      <point x="359" y="18"/>
      <point x="377" y="27"/>
      <point x="391" y="38" type="curve" smooth="yes"/>
      <point x="405" y="49"/>
      <point x="415" y="59"/>
      <point x="420" y="68" type="curve" smooth="yes"/>
      <point x="424" y="75"/>
      <point x="430" y="84"/>
      <point x="437" y="97" type="curve" smooth="yes"/>
      <point x="444" y="109"/>
      <point x="452" y="123"/>
      <point x="459" y="140" type="curve" smooth="yes"/>
      <point x="466" y="156"/>
      <point x="472" y="174"/>
      <point x="478" y="193" type="curve" smooth="yes"/>
      <point x="483" y="212"/>
      <point x="486" y="232"/>
      <point x="486" y="252" type="curve" smooth="yes"/>
      <point x="486" y="273"/>
      <point x="483" y="293"/>
      <point x="477" y="313" type="curve" smooth="yes"/>
      <point x="470" y="333"/>
      <point x="458" y="352"/>
      <point x="441" y="369" type="curve" smooth="yes"/>
      <point x="413" y="398"/>
      <point x="382" y="420"/>
      <point x="348" y="434" type="curve"/>
      <point x="313" y="447"/>
      <point x="280" y="454"/>
      <point x="248" y="455" type="curve" smooth="yes"/>
      <point x="216" y="456"/>
      <point x="187" y="451"/>
      <point x="161" y="441" type="curve" smooth="yes"/>
      <point x="134" y="430"/>
      <point x="115" y="416"/>
      <point x="102" y="398" type="curve" smooth="yes"/>
      <point x="100" y="395"/>
      <point x="99" y="396"/>
      <point x="100" y="403" type="curve"/>
      <point x="100" y="410"/>
      <point x="102" y="420"/>
      <point x="105" y="433" type="curve" smooth="yes"/>
      <point x="108" y="446"/>
      <point x="113" y="462"/>
      <point x="119" y="480" type="curve" smooth="yes"/>
      <point x="124" y="497"/>
      <point x="131" y="515"/>
      <point x="140" y="534" type="curve" smooth="yes"/>
      <point x="149" y="553"/>
      <point x="158" y="571"/>
      <point x="169" y="589" type="curve" smooth="yes"/>
      <point x="180" y="606"/>
      <point x="192" y="621"/>
      <point x="205" y="634" type="curve" smooth="yes"/>
      <point x="234" y="661"/>
      <point x="261" y="678"/>
      <point x="286" y="684" type="curve" smooth="yes"/>
      <point x="311" y="690"/>
      <point x="333" y="691"/>
      <point x="352" y="687" type="curve" smooth="yes"/>
      <point x="371" y="683"/>
      <point x="386" y="677"/>
      <point x="398" y="670" type="curve" smooth="yes"/>
      <point x="410" y="663"/>
      <point x="418" y="659"/>
      <point x="421" y="660" type="curve" smooth="yes"/>
      <point x="424" y="661"/>
      <point x="427" y="664"/>
      <point x="432" y="669" type="curve" smooth="yes"/>
      <point x="436" y="673"/>
      <point x="440" y="679"/>
      <point x="444" y="686" type="curve" smooth="yes"/>
      <point x="448" y="693"/>
      <point x="451" y="701"/>
      <point x="454" y="711" type="curve" smooth="yes"/>
      <point x="457" y="721"/>
      <point x="457" y="732"/>
    </contour>
    <contour>
      <point x="429" y="198" type="curve"/>
      <point x="420" y="175"/>
      <point x="409" y="157"/>
      <point x="396" y="144" type="curve" smooth="yes"/>
      <point x="382" y="131"/>
      <point x="367" y="121"/>
      <point x="352" y="115" type="curve" smooth="yes"/>
      <point x="336" y="109"/>
      <point x="320" y="105"/>
      <point x="305" y="104" type="curve" smooth="yes"/>
      <point x="289" y="102"/>
      <point x="274" y="101"/>
      <point x="260" y="100" type="curve" smooth="yes"/>
      <point x="233" y="99"/>
      <point x="210" y="100"/>
      <point x="191" y="103" type="curve" smooth="yes"/>
      <point x="171" y="106"/>
      <point x="154" y="111"/>
      <point x="141" y="117" type="curve" smooth="yes"/>
      <point x="128" y="123"/>
      <point x="117" y="130"/>
      <point x="108" y="138" type="curve" smooth="yes"/>
      <point x="99" y="146"/>
      <point x="93" y="154"/>
      <point x="88" y="163" type="curve" smooth="yes"/>
      <point x="77" y="184"/>
      <point x="73" y="207"/>
      <point x="78" y="234" type="curve"/>
      <point x="84" y="252"/>
      <point x="91" y="270"/>
      <point x="99" y="288" type="curve" smooth="yes"/>
      <point x="106" y="305"/>
      <point x="117" y="320"/>
      <point x="132" y="333" type="curve" smooth="yes"/>
      <point x="146" y="345"/>
      <point x="165" y="354"/>
      <point x="188" y="359" type="curve" smooth="yes"/>
      <point x="211" y="364"/>
      <point x="241" y="364"/>
      <point x="278" y="357" type="curve"/>
      <point x="299" y="351"/>
      <point x="320" y="344"/>
      <point x="339" y="335" type="curve" smooth="yes"/>
      <point x="358" y="326"/>
      <point x="375" y="315"/>
      <point x="389" y="302" type="curve" smooth="yes"/>
      <point x="403" y="289"/>
      <point x="414" y="274"/>
      <point x="422" y="257" type="curve" smooth="yes"/>
      <point x="429" y="240"/>
      <point x="432" y="220"/>
    </contour>
  </outline>
</glyph>
<glyph name="seven" format="2">
  <advance width="530"/>
  <unicode hex="0037"/>
  <outline>
    <contour>
      <point x="543" y="758" type="curve" smooth="yes"/>
      <point x="546" y="763"/>
      <point x="547" y="767"/>
      <point x="547" y="771" type="curve"/>
      <point x="546" y="775"/>
      <point x="545" y="779"/>
      <point x="543" y="782" type="curve" smooth="yes"/>
      <point x="541" y="785"/>
      <point x="539" y="788"/>
      <point x="536" y="791" type="curve" smooth="yes"/>
      <point x="529" y="798" type="line"/>
      <point x="116" y="796" type="line"/>
      <point x="103" y="789"/>
      <point x="90" y="777"/>
      <point x="75" y="758" type="curve" smooth="yes"/>
      <point x="60" y="739"/>
      <point x="47" y="717"/>
      <point x="34" y="694" type="curve" smooth="yes"/>
      <point x="31" y="689"/>
      <point x="31" y="686"/>
      <point x="32" y="683" type="curve" smooth="yes"/>
      <point x="33" y="680"/>
      <point x="36" y="679"/>
      <point x="41" y="678" type="curve" smooth="yes"/>
      <point x="46" y="677"/>
      <point x="51" y="678"/>
      <point x="58" y="679" type="curve" smooth="yes"/>
      <point x="65" y="680"/>
      <point x="72" y="681"/>
      <point x="79" y="682" type="curve" smooth="yes"/>
      <point x="96" y="685"/>
      <point x="117" y="691"/>
      <point x="141" y="699" type="curve"/>
      <point x="197" y="700"/>
      <point x="247" y="700"/>
      <point x="291" y="699" type="curve"/>
      <point x="310" y="699"/>
      <point x="328" y="699"/>
      <point x="346" y="698" type="curve" smooth="yes"/>
      <point x="364" y="697"/>
      <point x="380" y="697"/>
      <point x="394" y="697" type="curve"/>
      <point x="407" y="696"/>
      <point x="418" y="696"/>
      <point x="426" y="695" type="curve" smooth="yes"/>
      <point x="434" y="694"/>
      <point x="438" y="693"/>
      <point x="437" y="692" type="curve"/>
      <point x="432" y="681"/>
      <point x="422" y="660"/>
      <point x="407" y="628" type="curve" smooth="yes"/>
      <point x="391" y="596"/>
      <point x="373" y="559"/>
      <point x="352" y="516" type="curve" smooth="yes"/>
      <point x="331" y="473"/>
      <point x="308" y="427"/>
      <point x="284" y="378" type="curve" smooth="yes"/>
      <point x="260" y="329"/>
      <point x="237" y="281"/>
      <point x="215" y="236" type="curve" smooth="yes"/>
      <point x="193" y="190"/>
      <point x="173" y="149"/>
      <point x="156" y="112" type="curve" smooth="yes"/>
      <point x="139" y="75"/>
      <point x="126" y="47"/>
      <point x="118" y="28" type="curve" smooth="yes"/>
      <point x="114" y="19"/>
      <point x="116" y="12"/>
      <point x="123" y="9" type="curve" smooth="yes"/>
      <point x="130" y="5"/>
      <point x="139" y="3"/>
      <point x="149" y="3" type="curve" smooth="yes"/>
      <point x="160" y="3"/>
      <point x="170" y="5"/>
      <point x="181" y="8" type="curve" smooth="yes"/>
      <point x="191" y="11"/>
      <point x="197" y="15"/>
      <point x="199" y="20" type="curve" smooth="yes"/>
      <point x="203" y="29"/>
      <point x="211" y="46"/>
      <point x="222" y="70" type="curve" smooth="yes"/>
      <point x="233" y="94"/>
      <point x="246" y="123"/>
      <point x="261" y="156" type="curve" smooth="yes"/>
      <point x="276" y="189"/>
      <point x="294" y="226"/>
      <point x="313" y="267" type="curve" smooth="yes"/>
      <point x="332" y="307"/>
      <point x="351" y="348"/>
      <point x="370" y="390" type="curve" smooth="yes"/>
      <point x="389" y="431"/>
      <point x="409" y="472"/>
      <point x="428" y="512" type="curve" smooth="yes"/>
      <point x="447" y="552"/>
      <point x="464" y="589"/>
      <point x="480" y="622" type="curve" smooth="yes"/>
      <point x="495" y="655"/>
      <point x="509" y="684"/>
      <point x="520" y="708" type="curve" smooth="yes"/>
      <point x="531" y="732"/>
      <point x="539" y="749"/>
    </contour>
  </outline>
</glyph>
<glyph name="eight" format="2">
  <advance width="575"/>
  <unicode hex="0038"/>
  <outline>
    <contour>
      <point x="544" y="683" type="curve"/>
      <point x="534" y="706"/>
      <point x="521" y="724"/>
      <point x="506" y="737" type="curve" smooth="yes"/>
      <point x="490" y="750"/>
      <point x="472" y="761"/>
      <point x="452" y="769" type="curve"/>
      <point x="431" y="776"/>
      <point x="409" y="782"/>
      <point x="384" y="785" type="curve" smooth="yes"/>
      <point x="359" y="788"/>
      <point x="331" y="792"/>
      <point x="302" y="795" type="curve"/>
      <point x="289" y="794"/>
      <point x="276" y="791"/>
      <point x="265" y="786" type="curve" smooth="yes"/>
      <point x="253" y="781"/>
      <point x="242" y="774"/>
      <point x="232" y="766" type="curve" smooth="yes"/>
      <point x="221" y="757"/>
      <point x="212" y="748"/>
      <point x="203" y="738" type="curve" smooth="yes"/>
      <point x="194" y="727"/>
      <point x="186" y="717"/>
      <point x="179" y="706" type="curve" smooth="yes"/>
      <point x="162" y="681"/>
      <point x="148" y="652"/>
      <point x="137" y="620" type="curve"/>
      <point x="130" y="607"/>
      <point x="127" y="593"/>
      <point x="128" y="578" type="curve" smooth="yes"/>
      <point x="129" y="563"/>
      <point x="131" y="549"/>
      <point x="135" y="536" type="curve" smooth="yes"/>
      <point x="138" y="523"/>
      <point x="143" y="510"/>
      <point x="149" y="498" type="curve" smooth="yes"/>
      <point x="154" y="486"/>
      <point x="159" y="476"/>
      <point x="163" y="467" type="curve" smooth="yes"/>
      <point x="166" y="458"/>
      <point x="168" y="452"/>
      <point x="168" y="448" type="curve"/>
      <point x="167" y="443"/>
      <point x="163" y="441"/>
      <point x="156" y="442" type="curve" smooth="yes"/>
      <point x="136" y="445"/>
      <point x="117" y="438"/>
      <point x="98" y="422" type="curve" smooth="yes"/>
      <point x="79" y="405"/>
      <point x="62" y="384"/>
      <point x="48" y="358" type="curve" smooth="yes"/>
      <point x="34" y="332"/>
      <point x="24" y="303"/>
      <point x="17" y="272" type="curve" smooth="yes"/>
      <point x="10" y="241"/>
      <point x="9" y="211"/>
      <point x="14" y="184" type="curve" smooth="yes"/>
      <point x="17" y="165"/>
      <point x="24" y="147"/>
      <point x="33" y="130" type="curve" smooth="yes"/>
      <point x="42" y="112"/>
      <point x="55" y="95"/>
      <point x="70" y="80" type="curve" smooth="yes"/>
      <point x="85" y="65"/>
      <point x="102" y="51"/>
      <point x="121" y="39" type="curve" smooth="yes"/>
      <point x="140" y="26"/>
      <point x="161" y="16"/>
      <point x="183" y="9" type="curve" smooth="yes"/>
      <point x="226" y="-6"/>
      <point x="269" y="-9"/>
      <point x="310" y="-2" type="curve" smooth="yes"/>
      <point x="351" y="6"/>
      <point x="388" y="22"/>
      <point x="421" y="47" type="curve" smooth="yes"/>
      <point x="454" y="71"/>
      <point x="482" y="102"/>
      <point x="504" y="140" type="curve" smooth="yes"/>
      <point x="525" y="177"/>
      <point x="538" y="218"/>
      <point x="542" y="263" type="curve" smooth="yes"/>
      <point x="544" y="288"/>
      <point x="539" y="310"/>
      <point x="528" y="329" type="curve" smooth="yes"/>
      <point x="516" y="348"/>
      <point x="503" y="365"/>
      <point x="490" y="380" type="curve"/>
      <point x="476" y="394"/>
      <point x="464" y="406"/>
      <point x="455" y="417" type="curve"/>
      <point x="445" y="427"/>
      <point x="443" y="435"/>
      <point x="450" y="442" type="curve" smooth="yes"/>
      <point x="455" y="448"/>
      <point x="463" y="457"/>
      <point x="473" y="469" type="curve" smooth="yes"/>
      <point x="482" y="480"/>
      <point x="492" y="493"/>
      <point x="503" y="508" type="curve" smooth="yes"/>
      <point x="513" y="523"/>
      <point x="523" y="538"/>
      <point x="532" y="555" type="curve" smooth="yes"/>
      <point x="541" y="571"/>
      <point x="549" y="587"/>
      <point x="554" y="603" type="curve" smooth="yes"/>
      <point x="559" y="619"/>
      <point x="561" y="634"/>
      <point x="560" y="648" type="curve" smooth="yes"/>
      <point x="559" y="662"/>
      <point x="554" y="674"/>
    </contour>
    <contour>
      <point x="486" y="570" type="curve" smooth="yes"/>
      <point x="478" y="553"/>
      <point x="469" y="539"/>
      <point x="459" y="527" type="curve" smooth="yes"/>
      <point x="448" y="515"/>
      <point x="436" y="506"/>
      <point x="421" y="499" type="curve" smooth="yes"/>
      <point x="406" y="492"/>
      <point x="388" y="489"/>
      <point x="367" y="488" type="curve" smooth="yes"/>
      <point x="346" y="487"/>
      <point x="321" y="490"/>
      <point x="292" y="496" type="curve" smooth="yes"/>
      <point x="265" y="501"/>
      <point x="245" y="512"/>
      <point x="233" y="527" type="curve" smooth="yes"/>
      <point x="220" y="542"/>
      <point x="212" y="558"/>
      <point x="208" y="574" type="curve" smooth="yes"/>
      <point x="203" y="593"/>
      <point x="203" y="613"/>
      <point x="206" y="635" type="curve"/>
      <point x="213" y="650"/>
      <point x="223" y="663"/>
      <point x="237" y="674" type="curve" smooth="yes"/>
      <point x="250" y="684"/>
      <point x="265" y="692"/>
      <point x="282" y="697" type="curve" smooth="yes"/>
      <point x="298" y="702"/>
      <point x="314" y="705"/>
      <point x="331" y="706" type="curve" smooth="yes"/>
      <point x="348" y="707"/>
      <point x="362" y="705"/>
      <point x="375" y="701" type="curve" smooth="yes"/>
      <point x="389" y="697"/>
      <point x="405" y="692"/>
      <point x="422" y="685" type="curve" smooth="yes"/>
      <point x="439" y="678"/>
      <point x="453" y="669"/>
      <point x="466" y="659" type="curve"/>
      <point x="478" y="648"/>
      <point x="487" y="636"/>
      <point x="492" y="622" type="curve" smooth="yes"/>
      <point x="497" y="607"/>
      <point x="495" y="590"/>
    </contour>
    <contour>
      <point x="482" y="236" type="curve" smooth="yes"/>
      <point x="481" y="213"/>
      <point x="476" y="194"/>
      <point x="467" y="178" type="curve" smooth="yes"/>
      <point x="458" y="162"/>
      <point x="446" y="149"/>
      <point x="433" y="139" type="curve" smooth="yes"/>
      <point x="419" y="128"/>
      <point x="403" y="120"/>
      <point x="386" y="115" type="curve" smooth="yes"/>
      <point x="369" y="109"/>
      <point x="352" y="105"/>
      <point x="335" y="102" type="curve" smooth="yes"/>
      <point x="318" y="99"/>
      <point x="302" y="98"/>
      <point x="287" y="97" type="curve" smooth="yes"/>
      <point x="272" y="96"/>
      <point x="259" y="95"/>
      <point x="248" y="95" type="curve"/>
      <point x="233" y="98"/>
      <point x="217" y="101"/>
      <point x="200" y="102" type="curve" smooth="yes"/>
      <point x="183" y="103"/>
      <point x="166" y="107"/>
      <point x="150" y="113" type="curve" smooth="yes"/>
      <point x="134" y="118"/>
      <point x="119" y="127"/>
      <point x="106" y="140" type="curve" smooth="yes"/>
      <point x="92" y="153"/>
      <point x="81" y="172"/>
      <point x="72" y="198" type="curve" smooth="yes"/>
      <point x="64" y="223"/>
      <point x="62" y="245"/>
      <point x="66" y="265" type="curve" smooth="yes"/>
      <point x="70" y="284"/>
      <point x="78" y="302"/>
      <point x="90" y="317" type="curve" smooth="yes"/>
      <point x="101" y="332"/>
      <point x="116" y="344"/>
      <point x="134" y="355" type="curve" smooth="yes"/>
      <point x="152" y="365"/>
      <point x="171" y="373"/>
      <point x="192" y="379" type="curve" smooth="yes"/>
      <point x="212" y="384"/>
      <point x="232" y="388"/>
      <point x="252" y="389" type="curve" smooth="yes"/>
      <point x="272" y="390"/>
      <point x="290" y="389"/>
      <point x="307" y="386" type="curve" smooth="yes"/>
      <point x="324" y="383"/>
      <point x="342" y="377"/>
      <point x="363" y="370" type="curve" smooth="yes"/>
      <point x="383" y="363"/>
      <point x="402" y="353"/>
      <point x="420" y="341" type="curve" smooth="yes"/>
      <point x="438" y="329"/>
      <point x="453" y="314"/>
      <point x="465" y="297" type="curve" smooth="yes"/>
      <point x="477" y="280"/>
      <point x="483" y="259"/>
    </contour>
  </outline>
</glyph>
<glyph name="nine" format="2">
  <advance width="510"/>
  <unicode hex="0039"/>
  <outline>
    <contour>
      <point x="437" y="291" type="curve" smooth="yes"/>
      <point x="444" y="324"/>
      <point x="451" y="357"/>
      <point x="458" y="391" type="curve" smooth="yes"/>
      <point x="465" y="424"/>
      <point x="470" y="457"/>
      <point x="474" y="490" type="curve" smooth="yes"/>
      <point x="477" y="522"/>
      <point x="479" y="553"/>
      <point x="478" y="584" type="curve" smooth="yes"/>
      <point x="477" y="614"/>
      <point x="472" y="642"/>
      <point x="463" y="667" type="curve" smooth="yes"/>
      <point x="454" y="692"/>
      <point x="441" y="714"/>
      <point x="424" y="733" type="curve" smooth="yes"/>
      <point x="406" y="752"/>
      <point x="382" y="767"/>
      <point x="353" y="778" type="curve" smooth="yes"/>
      <point x="316" y="791"/>
      <point x="282" y="798"/>
      <point x="252" y="798" type="curve" smooth="yes"/>
      <point x="222" y="798"/>
      <point x="196" y="795"/>
      <point x="174" y="788" type="curve" smooth="yes"/>
      <point x="151" y="781"/>
      <point x="133" y="772"/>
      <point x="119" y="761" type="curve" smooth="yes"/>
      <point x="105" y="750"/>
      <point x="95" y="739"/>
      <point x="90" y="730" type="curve" smooth="yes"/>
      <point x="86" y="723"/>
      <point x="81" y="714"/>
      <point x="74" y="702" type="curve" smooth="yes"/>
      <point x="67" y="689"/>
      <point x="59" y="675"/>
      <point x="52" y="659" type="curve" smooth="yes"/>
      <point x="45" y="642"/>
      <point x="38" y="624"/>
      <point x="33" y="605" type="curve" smooth="yes"/>
      <point x="27" y="586"/>
      <point x="24" y="566"/>
      <point x="24" y="545" type="curve" smooth="yes"/>
      <point x="24" y="525"/>
      <point x="27" y="505"/>
      <point x="34" y="485" type="curve" smooth="yes"/>
      <point x="41" y="465"/>
      <point x="52" y="446"/>
      <point x="69" y="429" type="curve" smooth="yes"/>
      <point x="97" y="400"/>
      <point x="127" y="378"/>
      <point x="160" y="365" type="curve" smooth="yes"/>
      <point x="192" y="352"/>
      <point x="223" y="345"/>
      <point x="253" y="344" type="curve" smooth="yes"/>
      <point x="283" y="343"/>
      <point x="310" y="348"/>
      <point x="335" y="359" type="curve" smooth="yes"/>
      <point x="360" y="369"/>
      <point x="379" y="383"/>
      <point x="392" y="400" type="curve" smooth="yes"/>
      <point x="397" y="407"/>
      <point x="401" y="406"/>
      <point x="403" y="399" type="curve" smooth="yes"/>
      <point x="404" y="392"/>
      <point x="404" y="380"/>
      <point x="402" y="365" type="curve" smooth="yes"/>
      <point x="399" y="349"/>
      <point x="395" y="330"/>
      <point x="389" y="309" type="curve" smooth="yes"/>
      <point x="382" y="287"/>
      <point x="374" y="265"/>
      <point x="363" y="243" type="curve" smooth="yes"/>
      <point x="352" y="221"/>
      <point x="340" y="200"/>
      <point x="325" y="181" type="curve" smooth="yes"/>
      <point x="310" y="162"/>
      <point x="293" y="147"/>
      <point x="273" y="136" type="curve" smooth="yes"/>
      <point x="243" y="119"/>
      <point x="216" y="111"/>
      <point x="192" y="110" type="curve" smooth="yes"/>
      <point x="168" y="109"/>
      <point x="147" y="111"/>
      <point x="130" y="116" type="curve" smooth="yes"/>
      <point x="112" y="121"/>
      <point x="98" y="127"/>
      <point x="87" y="134" type="curve" smooth="yes"/>
      <point x="76" y="141"/>
      <point x="68" y="143"/>
      <point x="65" y="142" type="curve" smooth="yes"/>
      <point x="62" y="141"/>
      <point x="59" y="138"/>
      <point x="55" y="134" type="curve" smooth="yes"/>
      <point x="50" y="129"/>
      <point x="46" y="124"/>
      <point x="42" y="117" type="curve" smooth="yes"/>
      <point x="38" y="110"/>
      <point x="35" y="101"/>
      <point x="32" y="91" type="curve" smooth="yes"/>
      <point x="29" y="81"/>
      <point x="29" y="70"/>
      <point x="31" y="57" type="curve" smooth="yes"/>
      <point x="33" y="42"/>
      <point x="40" y="30"/>
      <point x="53" y="23" type="curve"/>
      <point x="65" y="15"/>
      <point x="78" y="9"/>
      <point x="92" y="6" type="curve" smooth="yes"/>
      <point x="109" y="3"/>
      <point x="127" y="1"/>
      <point x="148" y="2" type="curve"/>
      <point x="169" y="1"/>
      <point x="190" y="2"/>
      <point x="211" y="5" type="curve" smooth="yes"/>
      <point x="228" y="8"/>
      <point x="247" y="14"/>
      <point x="267" y="22" type="curve" smooth="yes"/>
      <point x="286" y="29"/>
      <point x="303" y="42"/>
      <point x="317" y="59" type="curve" smooth="yes"/>
      <point x="330" y="74"/>
      <point x="342" y="90"/>
      <point x="354" y="105" type="curve" smooth="yes"/>
      <point x="365" y="120"/>
      <point x="376" y="136"/>
      <point x="387" y="154" type="curve" smooth="yes"/>
      <point x="397" y="172"/>
      <point x="406" y="192"/>
      <point x="415" y="215" type="curve" smooth="yes"/>
      <point x="424" y="237"/>
      <point x="431" y="262"/>
    </contour>
    <contour>
      <point x="428" y="564" type="curve"/>
      <point x="419" y="543"/>
      <point x="412" y="525"/>
      <point x="405" y="510" type="curve" smooth="yes"/>
      <point x="398" y="494"/>
      <point x="387" y="481"/>
      <point x="372" y="472" type="curve" smooth="yes"/>
      <point x="357" y="463"/>
      <point x="337" y="456"/>
      <point x="310" y="453" type="curve" smooth="yes"/>
      <point x="283" y="450"/>
      <point x="245" y="450"/>
      <point x="196" y="453" type="curve"/>
      <point x="170" y="459"/>
      <point x="149" y="466"/>
      <point x="134" y="475" type="curve" smooth="yes"/>
      <point x="119" y="484"/>
      <point x="107" y="494"/>
      <point x="100" y="507" type="curve"/>
      <point x="92" y="519"/>
      <point x="88" y="533"/>
      <point x="87" y="550" type="curve" smooth="yes"/>
      <point x="86" y="567"/>
      <point x="86" y="586"/>
      <point x="89" y="608" type="curve"/>
      <point x="98" y="631"/>
      <point x="109" y="649"/>
      <point x="122" y="661" type="curve" smooth="yes"/>
      <point x="135" y="673"/>
      <point x="148" y="682"/>
      <point x="163" y="687" type="curve" smooth="yes"/>
      <point x="178" y="692"/>
      <point x="193" y="695"/>
      <point x="208" y="696" type="curve" smooth="yes"/>
      <point x="223" y="697"/>
      <point x="237" y="697"/>
      <point x="250" y="698" type="curve" smooth="yes"/>
      <point x="271" y="700"/>
      <point x="289" y="700"/>
      <point x="305" y="697" type="curve" smooth="yes"/>
      <point x="321" y="694"/>
      <point x="335" y="689"/>
      <point x="348" y="683" type="curve" smooth="yes"/>
      <point x="360" y="677"/>
      <point x="370" y="670"/>
      <point x="379" y="662" type="curve" smooth="yes"/>
      <point x="388" y="653"/>
      <point x="395" y="645"/>
      <point x="401" y="636" type="curve" smooth="yes"/>
      <point x="415" y="615"/>
      <point x="424" y="591"/>
    </contour>
  </outline>
</glyph>
<glyph name="colon" format="2">
  <advance width="202"/>
  <unicode hex="003A"/>
  <outline>
    <contour>
      <point x="156" y="414" type="curve" smooth="yes"/>
      <point x="145" y="425"/>
      <point x="133" y="431"/>
      <point x="118" y="432" type="curve"/>
      <point x="103" y="432"/>
      <point x="89" y="427"/>
      <point x="78" y="416" type="curve" smooth="yes"/>
      <point x="67" y="405"/>
      <point x="61" y="393"/>
      <point x="61" y="378" type="curve"/>
      <point x="60" y="363"/>
      <point x="65" y="349"/>
      <point x="76" y="338" type="curve" smooth="yes"/>
      <point x="87" y="327"/>
      <point x="100" y="321"/>
      <point x="115" y="321" type="curve"/>
      <point x="130" y="320"/>
      <point x="143" y="325"/>
      <point x="154" y="336" type="curve" smooth="yes"/>
      <point x="165" y="347"/>
      <point x="171" y="360"/>
      <point x="172" y="375" type="curve"/>
      <point x="172" y="390"/>
      <point x="167" y="403"/>
    </contour>
    <contour>
      <point x="140" y="122" type="curve" smooth="yes"/>
      <point x="129" y="133"/>
      <point x="117" y="139"/>
      <point x="102" y="140" type="curve"/>
      <point x="87" y="140"/>
      <point x="73" y="135"/>
      <point x="62" y="124" type="curve" smooth="yes"/>
      <point x="51" y="113"/>
      <point x="45" y="101"/>
      <point x="45" y="86" type="curve"/>
      <point x="44" y="71"/>
      <point x="49" y="57"/>
      <point x="60" y="46" type="curve" smooth="yes"/>
      <point x="71" y="35"/>
      <point x="84" y="29"/>
      <point x="99" y="29" type="curve"/>
      <point x="114" y="28"/>
      <point x="127" y="33"/>
      <point x="138" y="44" type="curve" smooth="yes"/>
      <point x="149" y="55"/>
      <point x="155" y="68"/>
      <point x="156" y="83" type="curve"/>
      <point x="156" y="98"/>
      <point x="151" y="111"/>
    </contour>
  </outline>
</glyph>
<glyph name="semicolon" format="2">
  <advance width="215"/>
  <unicode hex="003B"/>
  <unicode hex="037E"/>
  <outline>
    <contour>
      <point x="166" y="411" type="curve" smooth="yes"/>
      <point x="155" y="422"/>
      <point x="142" y="428"/>
      <point x="127" y="429" type="curve" smooth="yes"/>
      <point x="111" y="430"/>
      <point x="97" y="424"/>
      <point x="86" y="413" type="curve" smooth="yes"/>
      <point x="75" y="402"/>
      <point x="69" y="389"/>
      <point x="69" y="374" type="curve"/>
      <point x="68" y="358"/>
      <point x="73" y="344"/>
      <point x="84" y="333" type="curve" smooth="yes"/>
      <point x="95" y="322"/>
      <point x="109" y="316"/>
      <point x="124" y="315" type="curve" smooth="yes"/>
      <point x="139" y="314"/>
      <point x="153" y="320"/>
      <point x="164" y="331" type="curve" smooth="yes"/>
      <point x="175" y="342"/>
      <point x="181" y="355"/>
      <point x="182" y="371" type="curve" smooth="yes"/>
      <point x="183" y="386"/>
      <point x="177" y="400"/>
    </contour>
    <contour>
      <point x="152" y="109" type="curve" smooth="yes"/>
      <point x="128" y="140"/>
      <point x="101" y="145"/>
      <point x="71" y="123" type="curve" smooth="yes"/>
      <point x="56" y="112"/>
      <point x="47" y="97"/>
      <point x="44" y="79" type="curve" smooth="yes"/>
      <point x="41" y="61"/>
      <point x="45" y="44"/>
      <point x="56" y="29" type="curve" smooth="yes"/>
      <point x="61" y="22"/>
      <point x="67" y="17"/>
      <point x="72" y="15" type="curve" smooth="yes"/>
      <point x="77" y="13"/>
      <point x="83" y="11"/>
      <point x="90" y="9" type="curve"/>
      <point x="88" y="6"/>
      <point x="84" y="2"/>
      <point x="79" y="-4" type="curve" smooth="yes"/>
      <point x="73" y="-10"/>
      <point x="67" y="-17"/>
      <point x="61" y="-25" type="curve"/>
      <point x="54" y="-32"/>
      <point x="49" y="-40"/>
      <point x="44" y="-47" type="curve" smooth="yes"/>
      <point x="39" y="-54"/>
      <point x="35" y="-59"/>
      <point x="34" y="-64" type="curve" smooth="yes"/>
      <point x="33" y="-70"/>
      <point x="35" y="-77"/>
      <point x="41" y="-84" type="curve" smooth="yes"/>
      <point x="46" y="-91"/>
      <point x="50" y="-98"/>
      <point x="51" y="-103" type="curve"/>
      <point x="60" y="-100"/>
      <point x="70" y="-94"/>
      <point x="80" y="-83" type="curve" smooth="yes"/>
      <point x="90" y="-72"/>
      <point x="100" y="-61"/>
      <point x="109" y="-50" type="curve" smooth="yes"/>
      <point x="120" y="-37"/>
      <point x="130" y="-22"/>
      <point x="139" y="-6" type="curve"/>
      <point x="144" y="-2"/>
      <point x="149" y="5"/>
      <point x="154" y="14" type="curve" smooth="yes"/>
      <point x="159" y="23"/>
      <point x="162" y="33"/>
      <point x="164" y="44" type="curve" smooth="yes"/>
      <point x="165" y="55"/>
      <point x="165" y="67"/>
      <point x="164" y="79" type="curve" smooth="yes"/>
      <point x="163" y="90"/>
      <point x="159" y="100"/>
    </contour>
  </outline>
</glyph>
<glyph name="less" format="2">
  <advance width="387"/>
  <unicode hex="003C"/>
  <outline>
    <contour>
      <point x="384" y="627" type="curve"/>
      <point x="384" y="627" type="line"/>
      <point x="342" y="677" type="line"/>
      <point x="337" y="675"/>
      <point x="326" y="668"/>
      <point x="309" y="655" type="curve" smooth="yes"/>
      <point x="292" y="642"/>
      <point x="272" y="627"/>
      <point x="249" y="609" type="curve" smooth="yes"/>
      <point x="226" y="591"/>
      <point x="201" y="572"/>
      <point x="176" y="551" type="curve" smooth="yes"/>
      <point x="150" y="530"/>
      <point x="126" y="510"/>
      <point x="103" y="491" type="curve" smooth="yes"/>
      <point x="80" y="472"/>
      <point x="61" y="455"/>
      <point x="44" y="441" type="curve" smooth="yes"/>
      <point x="27" y="426"/>
      <point x="16" y="416"/>
      <point x="11" y="411" type="curve" smooth="yes"/>
      <point x="4" y="405"/>
      <point x="1" y="399"/>
      <point x="1" y="393" type="curve"/>
      <point x="0" y="387"/>
      <point x="2" y="381"/>
      <point x="5" y="376" type="curve" smooth="yes"/>
      <point x="8" y="371"/>
      <point x="12" y="366"/>
      <point x="17" y="362" type="curve" smooth="yes"/>
      <point x="22" y="357"/>
      <point x="26" y="353"/>
      <point x="31" y="350" type="curve"/>
      <point x="36" y="345"/>
      <point x="47" y="336"/>
      <point x="62" y="322" type="curve" smooth="yes"/>
      <point x="77" y="307"/>
      <point x="95" y="291"/>
      <point x="116" y="272" type="curve" smooth="yes"/>
      <point x="137" y="253"/>
      <point x="159" y="233"/>
      <point x="182" y="212" type="curve" smooth="yes"/>
      <point x="205" y="191"/>
      <point x="228" y="172"/>
      <point x="249" y="155" type="curve" smooth="yes"/>
      <point x="270" y="137"/>
      <point x="288" y="122"/>
      <point x="304" y="109" type="curve" smooth="yes"/>
      <point x="319" y="96"/>
      <point x="330" y="89"/>
      <point x="335" y="87" type="curve"/>
      <point x="375" y="141" type="line"/>
      <point x="376" y="144"/>
      <point x="377" y="146"/>
      <point x="377" y="149" type="curve" smooth="yes"/>
      <point x="377" y="152"/>
      <point x="376" y="155"/>
      <point x="374" y="158" type="curve" smooth="yes"/>
      <point x="372" y="161"/>
      <point x="368" y="165"/>
      <point x="361" y="168" type="curve" smooth="yes"/>
      <point x="358" y="169"/>
      <point x="352" y="175"/>
      <point x="341" y="184" type="curve" smooth="yes"/>
      <point x="330" y="193"/>
      <point x="316" y="205"/>
      <point x="301" y="219" type="curve"/>
      <point x="285" y="232"/>
      <point x="268" y="247"/>
      <point x="249" y="264" type="curve" smooth="yes"/>
      <point x="230" y="280"/>
      <point x="211" y="296"/>
      <point x="193" y="312" type="curve" smooth="yes"/>
      <point x="175" y="328"/>
      <point x="158" y="343"/>
      <point x="143" y="357" type="curve"/>
      <point x="127" y="370"/>
      <point x="114" y="381"/>
      <point x="105" y="390" type="curve"/>
      <point x="114" y="399"/>
      <point x="127" y="410"/>
      <point x="143" y="423" type="curve" smooth="yes"/>
      <point x="159" y="436"/>
      <point x="176" y="451"/>
      <point x="195" y="466" type="curve" smooth="yes"/>
      <point x="214" y="481"/>
      <point x="233" y="496"/>
      <point x="253" y="511" type="curve" smooth="yes"/>
      <point x="272" y="526"/>
      <point x="290" y="540"/>
      <point x="307" y="553" type="curve" smooth="yes"/>
      <point x="323" y="566"/>
      <point x="337" y="576"/>
      <point x="349" y="585" type="curve" smooth="yes"/>
      <point x="360" y="594"/>
      <point x="367" y="599"/>
      <point x="370" y="600" type="curve" smooth="yes"/>
      <point x="377" y="604"/>
      <point x="382" y="608"/>
      <point x="385" y="611" type="curve" smooth="yes"/>
      <point x="387" y="614"/>
      <point x="388" y="616"/>
      <point x="388" y="619" type="curve" smooth="yes"/>
      <point x="388" y="622"/>
      <point x="387" y="624"/>
    </contour>
  </outline>
</glyph>
<glyph name="equal" format="2">
  <advance width="403"/>
  <unicode hex="003D"/>
  <outline>
    <contour>
      <point x="315" y="491" type="curve" smooth="yes"/>
      <point x="300" y="492"/>
      <point x="282" y="492"/>
      <point x="259" y="493" type="curve"/>
      <point x="236" y="493"/>
      <point x="212" y="493"/>
      <point x="189" y="494" type="curve"/>
      <point x="166" y="494"/>
      <point x="144" y="494"/>
      <point x="124" y="494" type="curve" smooth="yes"/>
      <point x="82" y="494" type="line" smooth="yes"/>
      <point x="72" y="494"/>
      <point x="64" y="491"/>
      <point x="59" y="486" type="curve" smooth="yes"/>
      <point x="54" y="480"/>
      <point x="50" y="473"/>
      <point x="48" y="465" type="curve" smooth="yes"/>
      <point x="46" y="457"/>
      <point x="46" y="449"/>
      <point x="47" y="440" type="curve" smooth="yes"/>
      <point x="48" y="431"/>
      <point x="50" y="423"/>
      <point x="53" y="416" type="curve"/>
      <point x="57" y="414"/>
      <point x="65" y="413"/>
      <point x="78" y="412" type="curve" smooth="yes"/>
      <point x="90" y="411"/>
      <point x="105" y="410"/>
      <point x="122" y="410" type="curve"/>
      <point x="139" y="409"/>
      <point x="158" y="409"/>
      <point x="177" y="409" type="curve" smooth="yes"/>
      <point x="233" y="409" type="line" smooth="yes"/>
      <point x="251" y="409"/>
      <point x="267" y="409"/>
      <point x="281" y="410" type="curve"/>
      <point x="294" y="410"/>
      <point x="303" y="410"/>
      <point x="308" y="410" type="curve" smooth="yes"/>
      <point x="312" y="410"/>
      <point x="317" y="414"/>
      <point x="323" y="423" type="curve" smooth="yes"/>
      <point x="328" y="431"/>
      <point x="333" y="440"/>
      <point x="336" y="450" type="curve" smooth="yes"/>
      <point x="339" y="460"/>
      <point x="339" y="469"/>
      <point x="337" y="478" type="curve"/>
      <point x="334" y="486"/>
      <point x="327" y="490"/>
    </contour>
    <contour>
      <point x="315" y="341" type="curve" smooth="yes"/>
      <point x="301" y="341"/>
      <point x="283" y="341"/>
      <point x="260" y="342" type="curve"/>
      <point x="237" y="342"/>
      <point x="213" y="342"/>
      <point x="190" y="343" type="curve"/>
      <point x="166" y="343"/>
      <point x="144" y="343"/>
      <point x="124" y="344" type="curve"/>
      <point x="104" y="344"/>
      <point x="90" y="344"/>
      <point x="82" y="344" type="curve" smooth="yes"/>
      <point x="72" y="344"/>
      <point x="64" y="341"/>
      <point x="59" y="336" type="curve" smooth="yes"/>
      <point x="54" y="330"/>
      <point x="50" y="323"/>
      <point x="48" y="315" type="curve" smooth="yes"/>
      <point x="46" y="307"/>
      <point x="46" y="299"/>
      <point x="47" y="290" type="curve" smooth="yes"/>
      <point x="48" y="281"/>
      <point x="50" y="273"/>
      <point x="53" y="266" type="curve"/>
      <point x="57" y="264"/>
      <point x="65" y="263"/>
      <point x="78" y="262" type="curve" smooth="yes"/>
      <point x="90" y="261"/>
      <point x="105" y="260"/>
      <point x="122" y="260" type="curve"/>
      <point x="139" y="259"/>
      <point x="158" y="259"/>
      <point x="177" y="259" type="curve" smooth="yes"/>
      <point x="233" y="259" type="line" smooth="yes"/>
      <point x="251" y="259"/>
      <point x="267" y="259"/>
      <point x="281" y="260" type="curve"/>
      <point x="294" y="260"/>
      <point x="303" y="260"/>
      <point x="308" y="260" type="curve" smooth="yes"/>
      <point x="312" y="260"/>
      <point x="317" y="264"/>
      <point x="323" y="273" type="curve" smooth="yes"/>
      <point x="328" y="282"/>
      <point x="333" y="291"/>
      <point x="336" y="301" type="curve" smooth="yes"/>
      <point x="339" y="311"/>
      <point x="339" y="320"/>
      <point x="337" y="329" type="curve"/>
      <point x="334" y="337"/>
      <point x="327" y="341"/>
    </contour>
  </outline>
</glyph>
<glyph name="greater" format="2">
  <advance width="402"/>
  <unicode hex="003E"/>
  <outline>
    <contour>
      <point x="377" y="411" type="curve" smooth="yes"/>
      <point x="372" y="416"/>
      <point x="361" y="426"/>
      <point x="344" y="441" type="curve" smooth="yes"/>
      <point x="327" y="455"/>
      <point x="308" y="472"/>
      <point x="285" y="491" type="curve" smooth="yes"/>
      <point x="262" y="510"/>
      <point x="238" y="530"/>
      <point x="213" y="551" type="curve" smooth="yes"/>
      <point x="187" y="572"/>
      <point x="163" y="591"/>
      <point x="140" y="609" type="curve" smooth="yes"/>
      <point x="117" y="627"/>
      <point x="97" y="642"/>
      <point x="80" y="655" type="curve" smooth="yes"/>
      <point x="63" y="668"/>
      <point x="51" y="675"/>
      <point x="46" y="677" type="curve"/>
      <point x="4" y="627" type="line" smooth="yes"/>
      <point x="1" y="624"/>
      <point x="0" y="622"/>
      <point x="0" y="619" type="curve" smooth="yes"/>
      <point x="0" y="616"/>
      <point x="1" y="614"/>
      <point x="4" y="611" type="curve" smooth="yes"/>
      <point x="6" y="608"/>
      <point x="11" y="604"/>
      <point x="18" y="600" type="curve" smooth="yes"/>
      <point x="21" y="599"/>
      <point x="28" y="594"/>
      <point x="39" y="585" type="curve" smooth="yes"/>
      <point x="50" y="576"/>
      <point x="64" y="566"/>
      <point x="81" y="553" type="curve" smooth="yes"/>
      <point x="98" y="540"/>
      <point x="116" y="526"/>
      <point x="136" y="511" type="curve" smooth="yes"/>
      <point x="155" y="496"/>
      <point x="174" y="481"/>
      <point x="193" y="466" type="curve" smooth="yes"/>
      <point x="212" y="451"/>
      <point x="229" y="436"/>
      <point x="245" y="423" type="curve" smooth="yes"/>
      <point x="261" y="410"/>
      <point x="274" y="399"/>
      <point x="283" y="390" type="curve"/>
      <point x="274" y="382"/>
      <point x="261" y="371"/>
      <point x="246" y="357" type="curve" smooth="yes"/>
      <point x="230" y="343"/>
      <point x="213" y="328"/>
      <point x="195" y="312" type="curve" smooth="yes"/>
      <point x="177" y="296"/>
      <point x="159" y="280"/>
      <point x="140" y="264" type="curve" smooth="yes"/>
      <point x="121" y="247"/>
      <point x="103" y="232"/>
      <point x="88" y="219" type="curve" smooth="yes"/>
      <point x="72" y="205"/>
      <point x="59" y="193"/>
      <point x="48" y="184" type="curve" smooth="yes"/>
      <point x="37" y="175"/>
      <point x="30" y="169"/>
      <point x="27" y="168" type="curve" smooth="yes"/>
      <point x="16" y="162"/>
      <point x="11" y="156"/>
      <point x="11" y="149" type="curve" smooth="yes"/>
      <point x="11" y="146"/>
      <point x="12" y="144"/>
      <point x="13" y="141" type="curve"/>
      <point x="53" y="87" type="line"/>
      <point x="58" y="89"/>
      <point x="69" y="96"/>
      <point x="85" y="109" type="curve" smooth="yes"/>
      <point x="100" y="122"/>
      <point x="119" y="137"/>
      <point x="140" y="155" type="curve" smooth="yes"/>
      <point x="161" y="172"/>
      <point x="183" y="191"/>
      <point x="206" y="212" type="curve" smooth="yes"/>
      <point x="229" y="233"/>
      <point x="251" y="253"/>
      <point x="272" y="272" type="curve" smooth="yes"/>
      <point x="293" y="291"/>
      <point x="311" y="307"/>
      <point x="326" y="322" type="curve" smooth="yes"/>
      <point x="341" y="336"/>
      <point x="352" y="345"/>
      <point x="357" y="350" type="curve"/>
      <point x="362" y="353"/>
      <point x="367" y="357"/>
      <point x="372" y="362" type="curve" smooth="yes"/>
      <point x="377" y="366"/>
      <point x="381" y="371"/>
      <point x="384" y="376" type="curve" smooth="yes"/>
      <point x="387" y="381"/>
      <point x="388" y="387"/>
      <point x="388" y="393" type="curve"/>
      <point x="387" y="399"/>
      <point x="384" y="405"/>
    </contour>
  </outline>
</glyph>
<glyph name="question" format="2">
  <advance width="452"/>
  <unicode hex="003F"/>
  <outline>
    <contour>
      <point x="419" y="509" type="curve" smooth="yes"/>
      <point x="422" y="532"/>
      <point x="424" y="556"/>
      <point x="423" y="583" type="curve" smooth="yes"/>
      <point x="422" y="609"/>
      <point x="418" y="634"/>
      <point x="411" y="658" type="curve" smooth="yes"/>
      <point x="404" y="682"/>
      <point x="393" y="704"/>
      <point x="379" y="723" type="curve" smooth="yes"/>
      <point x="365" y="742"/>
      <point x="347" y="755"/>
      <point x="325" y="763" type="curve" smooth="yes"/>
      <point x="302" y="771"/>
      <point x="284" y="777"/>
      <point x="270" y="782" type="curve" smooth="yes"/>
      <point x="256" y="786"/>
      <point x="244" y="789"/>
      <point x="235" y="790" type="curve" smooth="yes"/>
      <point x="226" y="791"/>
      <point x="218" y="792"/>
      <point x="212" y="792" type="curve"/>
      <point x="205" y="791"/>
      <point x="198" y="791"/>
      <point x="191" y="790" type="curve" smooth="yes"/>
      <point x="184" y="789"/>
      <point x="175" y="788"/>
      <point x="165" y="787" type="curve" smooth="yes"/>
      <point x="154" y="786"/>
      <point x="140" y="785"/>
      <point x="123" y="786" type="curve"/>
      <point x="112" y="786"/>
      <point x="104" y="781"/>
      <point x="98" y="771" type="curve" smooth="yes"/>
      <point x="91" y="761"/>
      <point x="87" y="750"/>
      <point x="84" y="738" type="curve" smooth="yes"/>
      <point x="81" y="725"/>
      <point x="81" y="714"/>
      <point x="83" y="704" type="curve" smooth="yes"/>
      <point x="85" y="693"/>
      <point x="89" y="688"/>
      <point x="95" y="688" type="curve"/>
      <point x="108" y="687"/>
      <point x="123" y="688"/>
      <point x="142" y="691" type="curve" smooth="yes"/>
      <point x="161" y="693"/>
      <point x="180" y="695"/>
      <point x="201" y="696" type="curve" smooth="yes"/>
      <point x="221" y="697"/>
      <point x="241" y="697"/>
      <point x="261" y="695" type="curve" smooth="yes"/>
      <point x="281" y="693"/>
      <point x="299" y="688"/>
      <point x="315" y="679" type="curve" smooth="yes"/>
      <point x="330" y="670"/>
      <point x="343" y="656"/>
      <point x="352" y="638" type="curve" smooth="yes"/>
      <point x="361" y="619"/>
      <point x="365" y="594"/>
      <point x="364" y="562" type="curve" smooth="yes"/>
      <point x="363" y="529"/>
      <point x="356" y="505"/>
      <point x="343" y="488" type="curve" smooth="yes"/>
      <point x="330" y="471"/>
      <point x="313" y="460"/>
      <point x="293" y="453" type="curve" smooth="yes"/>
      <point x="272" y="446"/>
      <point x="249" y="442"/>
      <point x="224" y="442" type="curve" smooth="yes"/>
      <point x="199" y="442"/>
      <point x="174" y="442"/>
      <point x="149" y="443" type="curve" smooth="yes"/>
      <point x="130" y="444"/>
      <point x="115" y="442"/>
      <point x="104" y="438" type="curve" smooth="yes"/>
      <point x="93" y="433"/>
      <point x="86" y="428"/>
      <point x="81" y="423" type="curve" smooth="yes"/>
      <point x="76" y="418"/>
      <point x="73" y="413"/>
      <point x="72" y="408" type="curve" smooth="yes"/>
      <point x="71" y="403"/>
      <point x="71" y="400"/>
      <point x="71" y="399" type="curve"/>
      <point x="48" y="176" type="line"/>
      <point x="56" y="170"/>
      <point x="62" y="165"/>
      <point x="66" y="162" type="curve"/>
      <point x="69" y="158"/>
      <point x="72" y="156"/>
      <point x="75" y="156" type="curve"/>
      <point x="77" y="155"/>
      <point x="80" y="157"/>
      <point x="83" y="160" type="curve" smooth="yes"/>
      <point x="86" y="163"/>
      <point x="91" y="169"/>
      <point x="98" y="176" type="curve" smooth="yes"/>
      <point x="103" y="181"/>
      <point x="107" y="190"/>
      <point x="110" y="202" type="curve" smooth="yes"/>
      <point x="112" y="214"/>
      <point x="114" y="228"/>
      <point x="115" y="243" type="curve" smooth="yes"/>
      <point x="116" y="258"/>
      <point x="116" y="273"/>
      <point x="116" y="290" type="curve" smooth="yes"/>
      <point x="116" y="307"/>
      <point x="116" y="323"/>
      <point x="117" y="338" type="curve"/>
      <point x="126" y="339"/>
      <point x="137" y="341"/>
      <point x="150" y="344" type="curve" smooth="yes"/>
      <point x="161" y="346"/>
      <point x="176" y="348"/>
      <point x="194" y="350" type="curve" smooth="yes"/>
      <point x="212" y="352"/>
      <point x="234" y="354"/>
      <point x="259" y="356" type="curve" smooth="yes"/>
      <point x="301" y="359"/>
      <point x="336" y="373"/>
      <point x="365" y="398" type="curve" smooth="yes"/>
      <point x="394" y="423"/>
      <point x="412" y="460"/>
    </contour>
    <contour>
      <point x="110" y="85" type="curve" smooth="yes"/>
      <point x="90" y="116"/>
      <point x="66" y="123"/>
      <point x="39" y="106" type="curve" smooth="yes"/>
      <point x="24" y="97"/>
      <point x="15" y="86"/>
      <point x="11" y="73" type="curve" smooth="yes"/>
      <point x="6" y="60"/>
      <point x="9" y="46"/>
      <point x="18" y="31" type="curve" smooth="yes"/>
      <point x="28" y="16"/>
      <point x="39" y="6"/>
      <point x="50" y="2" type="curve" smooth="yes"/>
      <point x="61" y="-2"/>
      <point x="74" y="1"/>
      <point x="89" y="10" type="curve" smooth="yes"/>
      <point x="104" y="19"/>
      <point x="113" y="31"/>
      <point x="118" y="44" type="curve" smooth="yes"/>
      <point x="122" y="57"/>
      <point x="119" y="70"/>
    </contour>
  </outline>
</glyph>
<glyph name="at" format="2">
  <advance width="694"/>
  <unicode hex="0040"/>
  <unicode hex="201E"/>
  <outline>
    <contour>
      <point x="533" y="75" type="curve" smooth="yes"/>
      <point x="536" y="82"/>
      <point x="535" y="89"/>
      <point x="530" y="95" type="curve" smooth="yes"/>
      <point x="525" y="101"/>
      <point x="520" y="106"/>
      <point x="513" y="110" type="curve" smooth="yes"/>
      <point x="506" y="114"/>
      <point x="499" y="117"/>
      <point x="492" y="120" type="curve" smooth="yes"/>
      <point x="485" y="122"/>
      <point x="480" y="122"/>
      <point x="479" y="121" type="curve"/>
      <point x="460" y="108"/>
      <point x="441" y="98"/>
      <point x="421" y="93" type="curve" smooth="yes"/>
      <point x="400" y="88"/>
      <point x="378" y="85"/>
      <point x="354" y="85" type="curve" smooth="yes"/>
      <point x="315" y="85"/>
      <point x="278" y="92"/>
      <point x="244" y="106" type="curve" smooth="yes"/>
      <point x="209" y="120"/>
      <point x="179" y="140"/>
      <point x="154" y="166" type="curve" smooth="yes"/>
      <point x="129" y="191"/>
      <point x="109" y="222"/>
      <point x="94" y="258" type="curve" smooth="yes"/>
      <point x="79" y="293"/>
      <point x="72" y="333"/>
      <point x="72" y="377" type="curve" smooth="yes"/>
      <point x="72" y="421"/>
      <point x="79" y="464"/>
      <point x="94" y="505" type="curve" smooth="yes"/>
      <point x="109" y="546"/>
      <point x="129" y="583"/>
      <point x="154" y="615" type="curve" smooth="yes"/>
      <point x="179" y="647"/>
      <point x="209" y="673"/>
      <point x="244" y="692" type="curve" smooth="yes"/>
      <point x="278" y="711"/>
      <point x="315" y="721"/>
      <point x="354" y="721" type="curve" smooth="yes"/>
      <point x="393" y="721"/>
      <point x="429" y="714"/>
      <point x="461" y="699" type="curve" smooth="yes"/>
      <point x="493" y="684"/>
      <point x="521" y="664"/>
      <point x="544" y="638" type="curve" smooth="yes"/>
      <point x="567" y="612"/>
      <point x="584" y="581"/>
      <point x="597" y="545" type="curve" smooth="yes"/>
      <point x="610" y="508"/>
      <point x="616" y="468"/>
      <point x="616" y="424" type="curve" smooth="yes"/>
      <point x="616" y="406"/>
      <point x="614" y="388"/>
      <point x="610" y="369" type="curve" smooth="yes"/>
      <point x="606" y="350"/>
      <point x="601" y="331"/>
      <point x="595" y="314" type="curve" smooth="yes"/>
      <point x="588" y="297"/>
      <point x="581" y="281"/>
      <point x="574" y="266" type="curve" smooth="yes"/>
      <point x="567" y="251"/>
      <point x="559" y="238"/>
      <point x="552" y="227" type="curve" smooth="yes"/>
      <point x="548" y="222"/>
      <point x="542" y="222"/>
      <point x="534" y="229" type="curve"/>
      <point x="525" y="235"/>
      <point x="517" y="244"/>
      <point x="508" y="257" type="curve" smooth="yes"/>
      <point x="499" y="269"/>
      <point x="491" y="283"/>
      <point x="484" y="299" type="curve" smooth="yes"/>
      <point x="477" y="314"/>
      <point x="472" y="328"/>
      <point x="470" y="341" type="curve" smooth="yes"/>
      <point x="469" y="353"/>
      <point x="470" y="367"/>
      <point x="473" y="383" type="curve" smooth="yes"/>
      <point x="476" y="398"/>
      <point x="479" y="414"/>
      <point x="484" y="430" type="curve" smooth="yes"/>
      <point x="488" y="446"/>
      <point x="492" y="462"/>
      <point x="497" y="477" type="curve" smooth="yes"/>
      <point x="502" y="492"/>
      <point x="505" y="506"/>
      <point x="506" y="518" type="curve" smooth="yes"/>
      <point x="507" y="530"/>
      <point x="505" y="538"/>
      <point x="499" y="543" type="curve" smooth="yes"/>
      <point x="493" y="548"/>
      <point x="486" y="550"/>
      <point x="477" y="550" type="curve" smooth="yes"/>
      <point x="469" y="550"/>
      <point x="461" y="548"/>
      <point x="454" y="544" type="curve" smooth="yes"/>
      <point x="447" y="539"/>
      <point x="442" y="534"/>
      <point x="441" y="527" type="curve" smooth="yes"/>
      <point x="440" y="522"/>
      <point x="439" y="515"/>
      <point x="437" y="504" type="curve" smooth="yes"/>
      <point x="434" y="493"/>
      <point x="431" y="480"/>
      <point x="428" y="466" type="curve" smooth="yes"/>
      <point x="425" y="452"/>
      <point x="421" y="438"/>
      <point x="418" y="423" type="curve" smooth="yes"/>
      <point x="414" y="408"/>
      <point x="410" y="395"/>
      <point x="407" y="382" type="curve" smooth="yes"/>
      <point x="403" y="369"/>
      <point x="400" y="359"/>
      <point x="397" y="351" type="curve" smooth="yes"/>
      <point x="394" y="343"/>
      <point x="391" y="339"/>
      <point x="390" y="338" type="curve"/>
      <point x="385" y="336"/>
      <point x="379" y="330"/>
      <point x="372" y="319" type="curve" smooth="yes"/>
      <point x="365" y="308"/>
      <point x="356" y="297"/>
      <point x="345" y="287" type="curve" smooth="yes"/>
      <point x="334" y="277"/>
      <point x="320" y="270"/>
      <point x="305" y="266" type="curve" smooth="yes"/>
      <point x="290" y="262"/>
      <point x="272" y="266"/>
      <point x="251" y="277" type="curve"/>
      <point x="240" y="285"/>
      <point x="234" y="300"/>
      <point x="231" y="322" type="curve" smooth="yes"/>
      <point x="228" y="343"/>
      <point x="230" y="366"/>
      <point x="235" y="391" type="curve" smooth="yes"/>
      <point x="240" y="416"/>
      <point x="248" y="440"/>
      <point x="259" y="463" type="curve" smooth="yes"/>
      <point x="270" y="486"/>
      <point x="284" y="504"/>
      <point x="301" y="515" type="curve" smooth="yes"/>
      <point x="309" y="520"/>
      <point x="318" y="525"/>
      <point x="327" y="528" type="curve" smooth="yes"/>
      <point x="336" y="531"/>
      <point x="344" y="533"/>
      <point x="353" y="534" type="curve" smooth="yes"/>
      <point x="362" y="535"/>
      <point x="370" y="536"/>
      <point x="378" y="537" type="curve"/>
      <point x="386" y="537"/>
      <point x="393" y="537"/>
      <point x="399" y="538" type="curve"/>
      <point x="404" y="538"/>
      <point x="408" y="541"/>
      <point x="411" y="547" type="curve" smooth="yes"/>
      <point x="414" y="552"/>
      <point x="416" y="559"/>
      <point x="418" y="566" type="curve" smooth="yes"/>
      <point x="419" y="573"/>
      <point x="420" y="580"/>
      <point x="419" y="587" type="curve" smooth="yes"/>
      <point x="418" y="593"/>
      <point x="417" y="597"/>
      <point x="414" y="598" type="curve" smooth="yes"/>
      <point x="401" y="604"/>
      <point x="380" y="604"/>
      <point x="353" y="598" type="curve" smooth="yes"/>
      <point x="325" y="592"/>
      <point x="295" y="579"/>
      <point x="262" y="558" type="curve" smooth="yes"/>
      <point x="249" y="550"/>
      <point x="236" y="537"/>
      <point x="224" y="520" type="curve" smooth="yes"/>
      <point x="212" y="503"/>
      <point x="202" y="483"/>
      <point x="193" y="462" type="curve" smooth="yes"/>
      <point x="184" y="440"/>
      <point x="177" y="417"/>
      <point x="172" y="392" type="curve" smooth="yes"/>
      <point x="167" y="367"/>
      <point x="166" y="344"/>
      <point x="168" y="321" type="curve" smooth="yes"/>
      <point x="169" y="298"/>
      <point x="174" y="276"/>
      <point x="183" y="257" type="curve" smooth="yes"/>
      <point x="192" y="237"/>
      <point x="205" y="221"/>
      <point x="222" y="209" type="curve" smooth="yes"/>
      <point x="237" y="199"/>
      <point x="252" y="194"/>
      <point x="268" y="193" type="curve" smooth="yes"/>
      <point x="284" y="192"/>
      <point x="299" y="194"/>
      <point x="314" y="199" type="curve" smooth="yes"/>
      <point x="329" y="203"/>
      <point x="342" y="209"/>
      <point x="354" y="216" type="curve" smooth="yes"/>
      <point x="365" y="223"/>
      <point x="374" y="230"/>
      <point x="379" y="236" type="curve" smooth="yes"/>
      <point x="382" y="239"/>
      <point x="386" y="243"/>
      <point x="391" y="248" type="curve" smooth="yes"/>
      <point x="407" y="262" type="line"/>
      <point x="414" y="267"/>
      <point x="420" y="273"/>
      <point x="427" y="279" type="curve"/>
      <point x="434" y="256"/>
      <point x="442" y="234"/>
      <point x="453" y="215" type="curve" smooth="yes"/>
      <point x="462" y="198"/>
      <point x="474" y="183"/>
      <point x="488" y="169" type="curve" smooth="yes"/>
      <point x="502" y="155"/>
      <point x="519" y="147"/>
      <point x="539" y="144" type="curve"/>
      <point x="545" y="141"/>
      <point x="551" y="141"/>
      <point x="558" y="142" type="curve" smooth="yes"/>
      <point x="564" y="143"/>
      <point x="570" y="146"/>
      <point x="575" y="149" type="curve" smooth="yes"/>
      <point x="582" y="152"/>
      <point x="588" y="157"/>
      <point x="594" y="162" type="curve"/>
      <point x="627" y="207"/>
      <point x="650" y="254"/>
      <point x="665" y="301" type="curve" smooth="yes"/>
      <point x="680" y="348"/>
      <point x="687" y="395"/>
      <point x="687" y="441" type="curve" smooth="yes"/>
      <point x="687" y="494"/>
      <point x="678" y="543"/>
      <point x="660" y="587" type="curve" smooth="yes"/>
      <point x="642" y="630"/>
      <point x="618" y="668"/>
      <point x="587" y="699" type="curve" smooth="yes"/>
      <point x="556" y="730"/>
      <point x="520" y="755"/>
      <point x="479" y="772" type="curve" smooth="yes"/>
      <point x="438" y="789"/>
      <point x="394" y="798"/>
      <point x="348" y="798" type="curve" smooth="yes"/>
      <point x="302" y="798"/>
      <point x="258" y="785"/>
      <point x="217" y="759" type="curve" smooth="yes"/>
      <point x="176" y="732"/>
      <point x="140" y="698"/>
      <point x="109" y="656" type="curve" smooth="yes"/>
      <point x="78" y="613"/>
      <point x="54" y="566"/>
      <point x="36" y="513" type="curve" smooth="yes"/>
      <point x="18" y="460"/>
      <point x="9" y="406"/>
      <point x="9" y="353" type="curve" smooth="yes"/>
      <point x="9" y="300"/>
      <point x="19" y="252"/>
      <point x="38" y="209" type="curve" smooth="yes"/>
      <point x="57" y="166"/>
      <point x="82" y="129"/>
      <point x="114" y="99" type="curve" smooth="yes"/>
      <point x="146" y="69"/>
      <point x="183" y="46"/>
      <point x="225" y="30" type="curve" smooth="yes"/>
      <point x="267" y="13"/>
      <point x="311" y="5"/>
      <point x="357" y="5" type="curve" smooth="yes"/>
      <point x="375" y="5"/>
      <point x="394" y="7"/>
      <point x="413" y="12" type="curve" smooth="yes"/>
      <point x="432" y="17"/>
      <point x="450" y="23"/>
      <point x="467" y="30" type="curve" smooth="yes"/>
      <point x="484" y="37"/>
      <point x="498" y="44"/>
      <point x="511" y="53" type="curve" smooth="yes"/>
      <point x="523" y="61"/>
      <point x="530" y="68"/>
    </contour>
  </outline>
</glyph>
<glyph name="A" format="2">
  <advance width="509"/>
  <unicode hex="0041"/>
  <outline>
    <contour>
      <point x="484" y="87" type="curve"/>
      <point x="484" y="87" type="line"/>
      <point x="451" y="739" type="line"/>
      <point x="448" y="755"/>
      <point x="444" y="768"/>
      <point x="439" y="777" type="curve" smooth="yes"/>
      <point x="434" y="786"/>
      <point x="428" y="792"/>
      <point x="422" y="797" type="curve" smooth="yes"/>
      <point x="416" y="801"/>
      <point x="410" y="803"/>
      <point x="403" y="803" type="curve" smooth="yes"/>
      <point x="397" y="803"/>
      <point x="391" y="802"/>
      <point x="385" y="800" type="curve" smooth="yes"/>
      <point x="371" y="795"/>
      <point x="356" y="784"/>
      <point x="341" y="767" type="curve"/>
      <point x="280" y="645"/>
      <point x="226" y="533"/>
      <point x="178" y="430" type="curve" smooth="yes"/>
      <point x="157" y="386"/>
      <point x="137" y="342"/>
      <point x="118" y="299" type="curve" smooth="yes"/>
      <point x="98" y="255"/>
      <point x="80" y="214"/>
      <point x="64" y="177" type="curve" smooth="yes"/>
      <point x="48" y="140"/>
      <point x="35" y="107"/>
      <point x="25" y="79" type="curve" smooth="yes"/>
      <point x="15" y="51"/>
      <point x="9" y="31"/>
      <point x="8" y="19" type="curve" smooth="yes"/>
      <point x="7" y="13"/>
      <point x="10" y="9"/>
      <point x="16" y="6" type="curve" smooth="yes"/>
      <point x="22" y="3"/>
      <point x="29" y="2"/>
      <point x="37" y="1" type="curve" smooth="yes"/>
      <point x="45" y="0"/>
      <point x="53" y="1"/>
      <point x="61" y="4" type="curve" smooth="yes"/>
      <point x="69" y="6"/>
      <point x="75" y="9"/>
      <point x="79" y="13" type="curve"/>
      <point x="170" y="257" type="line"/>
      <point x="404" y="256" type="line"/>
      <point x="404" y="216"/>
      <point x="404" y="176"/>
      <point x="405" y="136" type="curve" smooth="yes"/>
      <point x="406" y="96"/>
      <point x="411" y="56"/>
      <point x="420" y="16" type="curve" smooth="yes"/>
      <point x="421" y="12"/>
      <point x="425" y="9"/>
      <point x="430" y="7" type="curve" smooth="yes"/>
      <point x="435" y="4"/>
      <point x="441" y="3"/>
      <point x="448" y="3" type="curve"/>
      <point x="454" y="2"/>
      <point x="460" y="3"/>
      <point x="466" y="6" type="curve" smooth="yes"/>
      <point x="472" y="8"/>
      <point x="476" y="11"/>
      <point x="478" y="16" type="curve" smooth="yes"/>
      <point x="481" y="23"/>
      <point x="483" y="30"/>
      <point x="484" y="38" type="curve" smooth="yes"/>
      <point x="485" y="46"/>
      <point x="485" y="54"/>
      <point x="485" y="61" type="curve" smooth="yes"/>
      <point x="485" y="70"/>
      <point x="485" y="78"/>
    </contour>
    <contour>
      <point x="396" y="357" type="curve"/>
      <point x="387" y="354" name=".hr01"/>
      <point x="375" y="352"/>
      <point x="358" y="350" type="curve" smooth="yes"/>
      <point x="341" y="348"/>
      <point x="324" y="347"/>
      <point x="306" y="347" type="curve"/>
      <point x="287" y="346"/>
      <point x="270" y="347"/>
      <point x="254" y="349" type="curve"/>
      <point x="237" y="350"/>
      <point x="224" y="353"/>
      <point x="215" y="357" type="curve"/>
      <point x="219" y="368"/>
      <point x="225" y="382"/>
      <point x="234" y="401" type="curve" smooth="yes"/>
      <point x="243" y="420"/>
      <point x="253" y="440"/>
      <point x="264" y="463" type="curve" smooth="yes"/>
      <point x="275" y="485"/>
      <point x="286" y="508"/>
      <point x="298" y="533" type="curve" smooth="yes"/>
      <point x="310" y="557"/>
      <point x="321" y="580"/>
      <point x="332" y="601" type="curve" smooth="yes"/>
      <point x="342" y="622"/>
      <point x="351" y="640"/>
      <point x="359" y="657" type="curve" smooth="yes"/>
      <point x="366" y="673"/>
      <point x="371" y="684"/>
      <point x="374" y="690" type="curve"/>
      <point x="377" y="693"/>
      <point x="379" y="691"/>
      <point x="381" y="683" type="curve" smooth="yes"/>
      <point x="383" y="675"/>
      <point x="385" y="664"/>
      <point x="386" y="649" type="curve" smooth="yes"/>
      <point x="387" y="634"/>
      <point x="389" y="616"/>
      <point x="390" y="596" type="curve" smooth="yes"/>
      <point x="391" y="575"/>
      <point x="392" y="554"/>
      <point x="393" y="533" type="curve" smooth="yes"/>
      <point x="395" y="482" name=".hr02"/>
      <point x="396" y="424"/>
    </contour>
  </outline>
</glyph>
<glyph name="B" format="2">
  <advance width="550"/>
  <unicode hex="0042"/>
  <outline>
    <contour>
      <point x="515" y="555" type="curve"/>
      <point x="522" y="573"/>
      <point x="527" y="592"/>
      <point x="530" y="613" type="curve" smooth="yes"/>
      <point x="533" y="633"/>
      <point x="533" y="653"/>
      <point x="531" y="672" type="curve" smooth="yes"/>
      <point x="528" y="691"/>
      <point x="523" y="709"/>
      <point x="515" y="725" type="curve" smooth="yes"/>
      <point x="507" y="740"/>
      <point x="496" y="752"/>
      <point x="483" y="761" type="curve"/>
      <point x="455" y="778"/>
      <point x="424" y="788"/>
      <point x="390" y="791" type="curve"/>
      <point x="355" y="793"/>
      <point x="321" y="790"/>
      <point x="286" y="781" type="curve" smooth="yes"/>
      <point x="251" y="772"/>
      <point x="218" y="759"/>
      <point x="187" y="742" type="curve" smooth="yes"/>
      <point x="155" y="724"/>
      <point x="128" y="704"/>
      <point x="106" y="682" type="curve" smooth="yes"/>
      <point x="101" y="677"/>
      <point x="98" y="671"/>
      <point x="98" y="664" type="curve"/>
      <point x="97" y="657"/>
      <point x="98" y="650"/>
      <point x="100" y="644" type="curve" smooth="yes"/>
      <point x="102" y="637"/>
      <point x="105" y="632"/>
      <point x="109" y="627" type="curve" smooth="yes"/>
      <point x="112" y="622"/>
      <point x="115" y="619"/>
      <point x="118" y="618" type="curve" smooth="yes"/>
      <point x="122" y="617"/>
      <point x="127" y="617"/>
      <point x="133" y="618" type="curve" smooth="yes"/>
      <point x="139" y="619"/>
      <point x="145" y="620"/>
      <point x="151" y="622" type="curve" smooth="yes"/>
      <point x="158" y="625"/>
      <point x="165" y="628"/>
      <point x="172" y="631" type="curve"/>
      <point x="66" y="136" type="line" smooth="yes"/>
      <point x="65" y="129"/>
      <point x="62" y="126"/>
      <point x="58" y="125" type="curve" smooth="yes"/>
      <point x="54" y="124"/>
      <point x="50" y="123"/>
      <point x="46" y="122" type="curve" smooth="yes"/>
      <point x="41" y="121"/>
      <point x="37" y="118"/>
      <point x="33" y="114" type="curve" smooth="yes"/>
      <point x="28" y="110"/>
      <point x="25" y="101"/>
      <point x="22" y="88" type="curve"/>
      <point x="21" y="80"/>
      <point x="21" y="73"/>
      <point x="24" y="67" type="curve" smooth="yes"/>
      <point x="27" y="60"/>
      <point x="30" y="55"/>
      <point x="35" y="50" type="curve" smooth="yes"/>
      <point x="40" y="45"/>
      <point x="46" y="40"/>
      <point x="53" y="35" type="curve"/>
      <point x="54" y="32"/>
      <point x="56" y="28"/>
      <point x="59" y="25" type="curve" smooth="yes"/>
      <point x="62" y="22"/>
      <point x="67" y="19"/>
      <point x="74" y="16" type="curve" smooth="yes"/>
      <point x="80" y="13"/>
      <point x="89" y="10"/>
      <point x="100" y="7" type="curve" smooth="yes"/>
      <point x="115" y="4"/>
      <point x="138" y="2"/>
      <point x="167" y="3" type="curve" smooth="yes"/>
      <point x="196" y="4"/>
      <point x="226" y="5"/>
      <point x="256" y="6" type="curve" smooth="yes"/>
      <point x="291" y="8"/>
      <point x="328" y="10"/>
      <point x="367" y="13" type="curve"/>
      <point x="392" y="24"/>
      <point x="413" y="37"/>
      <point x="429" y="52" type="curve" smooth="yes"/>
      <point x="444" y="67"/>
      <point x="457" y="83"/>
      <point x="467" y="100" type="curve" smooth="yes"/>
      <point x="476" y="117"/>
      <point x="483" y="134"/>
      <point x="488" y="152" type="curve" smooth="yes"/>
      <point x="493" y="169"/>
      <point x="497" y="186"/>
      <point x="500" y="202" type="curve" smooth="yes"/>
      <point x="506" y="232"/>
      <point x="504" y="260"/>
      <point x="495" y="285" type="curve" smooth="yes"/>
      <point x="486" y="310"/>
      <point x="474" y="331"/>
      <point x="461" y="350" type="curve" smooth="yes"/>
      <point x="445" y="372"/>
      <point x="426" y="392"/>
      <point x="404" y="409" type="curve"/>
      <point x="419" y="422"/>
      <point x="433" y="437"/>
      <point x="446" y="453" type="curve" smooth="yes"/>
      <point x="457" y="466"/>
      <point x="470" y="482"/>
      <point x="483" y="500" type="curve" smooth="yes"/>
      <point x="496" y="517"/>
      <point x="506" y="536"/>
    </contour>
    <contour>
      <point x="456" y="579" type="curve"/>
      <point x="454" y="568"/>
      <point x="449" y="557"/>
      <point x="442" y="544" type="curve" smooth="yes"/>
      <point x="434" y="531"/>
      <point x="425" y="518"/>
      <point x="415" y="506" type="curve" smooth="yes"/>
      <point x="405" y="494"/>
      <point x="395" y="484"/>
      <point x="384" y="475" type="curve" smooth="yes"/>
      <point x="373" y="466"/>
      <point x="362" y="459"/>
      <point x="353" y="456" type="curve" smooth="yes"/>
      <point x="336" y="451"/>
      <point x="319" y="447"/>
      <point x="301" y="446" type="curve" smooth="yes"/>
      <point x="282" y="444"/>
      <point x="265" y="443"/>
      <point x="250" y="444" type="curve" smooth="yes"/>
      <point x="233" y="445"/>
      <point x="215" y="446"/>
      <point x="198" y="448" type="curve"/>
      <point x="233" y="654" type="line"/>
      <point x="270" y="679"/>
      <point x="305" y="694"/>
      <point x="340" y="700" type="curve" smooth="yes"/>
      <point x="375" y="706"/>
      <point x="404" y="705"/>
      <point x="427" y="697" type="curve" smooth="yes"/>
      <point x="450" y="688"/>
      <point x="465" y="674"/>
      <point x="472" y="653" type="curve" smooth="yes"/>
      <point x="479" y="632"/>
      <point x="474" y="608"/>
    </contour>
    <contour>
      <point x="417" y="295" type="curve" smooth="yes"/>
      <point x="432" y="275"/>
      <point x="438" y="253"/>
      <point x="435" y="228" type="curve" smooth="yes"/>
      <point x="431" y="203"/>
      <point x="421" y="181"/>
      <point x="404" y="162" type="curve" smooth="yes"/>
      <point x="391" y="147"/>
      <point x="375" y="134"/>
      <point x="357" y="125" type="curve" smooth="yes"/>
      <point x="339" y="116"/>
      <point x="321" y="109"/>
      <point x="304" y="104" type="curve" smooth="yes"/>
      <point x="292" y="101"/>
      <point x="277" y="99"/>
      <point x="258" y="99" type="curve"/>
      <point x="239" y="98"/>
      <point x="220" y="98"/>
      <point x="202" y="99" type="curve" smooth="yes"/>
      <point x="181" y="100"/>
      <point x="158" y="101"/>
      <point x="135" y="103" type="curve"/>
      <point x="178" y="322" type="line"/>
      <point x="209" y="335"/>
      <point x="239" y="343"/>
      <point x="268" y="346" type="curve" smooth="yes"/>
      <point x="281" y="347"/>
      <point x="294" y="348"/>
      <point x="307" y="348" type="curve"/>
      <point x="320" y="347"/>
      <point x="334" y="345"/>
      <point x="347" y="342" type="curve" smooth="yes"/>
      <point x="360" y="339"/>
      <point x="372" y="333"/>
      <point x="384" y="326" type="curve" smooth="yes"/>
      <point x="396" y="318"/>
      <point x="407" y="308"/>
    </contour>
  </outline>
</glyph>
<glyph name="C" format="2">
  <advance width="548"/>
  <unicode hex="0043"/>
  <outline>
    <contour>
      <point x="460" y="774" type="curve"/>
      <point x="390" y="795"/>
      <point x="324" y="794"/>
      <point x="261" y="770" type="curve" smooth="yes"/>
      <point x="198" y="746"/>
      <point x="145" y="701"/>
      <point x="101" y="635" type="curve" smooth="yes"/>
      <point x="78" y="599"/>
      <point x="59" y="560"/>
      <point x="44" y="517" type="curve" smooth="yes"/>
      <point x="29" y="474"/>
      <point x="19" y="430"/>
      <point x="14" y="386" type="curve" smooth="yes"/>
      <point x="8" y="342"/>
      <point x="7" y="299"/>
      <point x="11" y="257" type="curve" smooth="yes"/>
      <point x="15" y="214"/>
      <point x="24" y="176"/>
      <point x="39" y="141" type="curve" smooth="yes"/>
      <point x="53" y="106"/>
      <point x="73" y="76"/>
      <point x="98" y="52" type="curve" smooth="yes"/>
      <point x="123" y="27"/>
      <point x="155" y="11"/>
      <point x="192" y="3" type="curve" smooth="yes"/>
      <point x="229" y="-5"/>
      <point x="273" y="-4"/>
      <point x="322" y="8" type="curve" smooth="yes"/>
      <point x="371" y="19"/>
      <point x="427" y="42"/>
      <point x="490" y="78" type="curve" smooth="yes"/>
      <point x="499" y="83"/>
      <point x="504" y="90"/>
      <point x="507" y="99" type="curve" smooth="yes"/>
      <point x="510" y="108"/>
      <point x="510" y="117"/>
      <point x="509" y="127" type="curve"/>
      <point x="507" y="136"/>
      <point x="504" y="145"/>
      <point x="499" y="154" type="curve" smooth="yes"/>
      <point x="494" y="162"/>
      <point x="489" y="168"/>
      <point x="483" y="171" type="curve"/>
      <point x="476" y="176"/>
      <point x="468" y="177"/>
      <point x="461" y="176" type="curve" smooth="yes"/>
      <point x="454" y="175"/>
      <point x="445" y="171"/>
      <point x="434" y="165" type="curve" smooth="yes"/>
      <point x="423" y="159"/>
      <point x="411" y="151"/>
      <point x="396" y="142" type="curve" smooth="yes"/>
      <point x="381" y="132"/>
      <point x="362" y="121"/>
      <point x="339" y="109" type="curve" smooth="yes"/>
      <point x="294" y="86"/>
      <point x="256" y="77"/>
      <point x="223" y="84" type="curve" smooth="yes"/>
      <point x="190" y="90"/>
      <point x="163" y="106"/>
      <point x="142" y="132" type="curve" smooth="yes"/>
      <point x="121" y="158"/>
      <point x="107" y="191"/>
      <point x="98" y="232" type="curve" smooth="yes"/>
      <point x="89" y="272"/>
      <point x="85" y="314"/>
      <point x="88" y="359" type="curve" smooth="yes"/>
      <point x="91" y="403"/>
      <point x="99" y="447"/>
      <point x="113" y="491" type="curve" smooth="yes"/>
      <point x="127" y="534"/>
      <point x="147" y="572"/>
      <point x="172" y="604" type="curve" smooth="yes"/>
      <point x="190" y="627"/>
      <point x="209" y="645"/>
      <point x="229" y="659" type="curve" smooth="yes"/>
      <point x="248" y="673"/>
      <point x="269" y="683"/>
      <point x="292" y="690" type="curve" smooth="yes"/>
      <point x="315" y="696"/>
      <point x="339" y="699"/>
      <point x="366" y="698" type="curve" smooth="yes"/>
      <point x="392" y="697"/>
      <point x="421" y="694"/>
      <point x="452" y="687" type="curve" smooth="yes"/>
      <point x="468" y="684"/>
      <point x="480" y="686"/>
      <point x="487" y="694" type="curve" smooth="yes"/>
      <point x="494" y="702"/>
      <point x="498" y="712"/>
      <point x="499" y="723" type="curve"/>
      <point x="499" y="734"/>
      <point x="496" y="744"/>
      <point x="489" y="755" type="curve" smooth="yes"/>
      <point x="482" y="766"/>
      <point x="473" y="772"/>
    </contour>
  </outline>
</glyph>
<glyph name="D" format="2">
  <advance width="640"/>
  <unicode hex="0044"/>
  <outline>
    <contour>
      <point x="612" y="588" type="curve"/>
      <point x="601" y="632"/>
      <point x="581" y="669"/>
      <point x="553" y="698" type="curve" smooth="yes"/>
      <point x="524" y="727"/>
      <point x="495" y="749"/>
      <point x="464" y="762" type="curve" smooth="yes"/>
      <point x="431" y="776"/>
      <point x="398" y="785"/>
      <point x="365" y="789" type="curve" smooth="yes"/>
      <point x="332" y="793"/>
      <point x="301.978" y="794.472"/>
      <point x="275" y="793" type="curve" smooth="yes"/>
      <point x="246.97" y="791.471"/>
      <point x="223" y="788"/>
      <point x="203" y="784" type="curve" smooth="yes"/>
      <point x="182" y="779"/>
      <point x="168" y="776"/>
      <point x="160" y="773" type="curve"/>
      <point x="156" y="767"/>
      <point x="152" y="759"/>
      <point x="147" y="748" type="curve" smooth="yes"/>
      <point x="142" y="737"/>
      <point x="139" y="727"/>
      <point x="138" y="717" type="curve" smooth="yes"/>
      <point x="136" y="706"/>
      <point x="137" y="698"/>
      <point x="140" y="692" type="curve" smooth="yes"/>
      <point x="143" y="685"/>
      <point x="151" y="684"/>
      <point x="163" y="687" type="curve" smooth="yes"/>
      <point x="181" y="692"/>
      <point x="194" y="695"/>
      <point x="202" y="696" type="curve"/>
      <point x="210" y="696"/>
      <point x="215" y="695"/>
      <point x="218" y="693" type="curve" smooth="yes"/>
      <point x="221" y="690"/>
      <point x="221" y="687"/>
      <point x="219" y="683" type="curve"/>
      <point x="133" y="92" type="line"/>
      <point x="126" y="99"/>
      <point x="117" y="103"/>
      <point x="108" y="106" type="curve" smooth="yes"/>
      <point x="100" y="109"/>
      <point x="91" y="110"/>
      <point x="81" y="111" type="curve"/>
      <point x="70" y="111"/>
      <point x="59" y="107"/>
      <point x="47" y="100" type="curve" smooth="yes"/>
      <point x="34" y="93"/>
      <point x="27" y="85"/>
      <point x="26" y="77" type="curve" smooth="yes"/>
      <point x="25" y="69"/>
      <point x="26" y="62"/>
      <point x="31" y="55" type="curve" smooth="yes"/>
      <point x="36" y="48"/>
      <point x="42" y="41"/>
      <point x="50" y="36" type="curve"/>
      <point x="57" y="30"/>
      <point x="63" y="26"/>
      <point x="68" y="23" type="curve" smooth="yes"/>
      <point x="94" y="9"/>
      <point x="122" y="1"/>
      <point x="153" y="-3" type="curve" smooth="yes"/>
      <point x="183" y="-6"/>
      <point x="213" y="-4"/>
      <point x="244" y="1" type="curve" smooth="yes"/>
      <point x="275" y="6"/>
      <point x="305" y="15"/>
      <point x="334" y="27" type="curve" smooth="yes"/>
      <point x="363" y="39"/>
      <point x="389" y="53"/>
      <point x="412" y="69" type="curve" smooth="yes"/>
      <point x="456" y="98"/>
      <point x="493" y="134"/>
      <point x="522" y="176" type="curve" smooth="yes"/>
      <point x="551" y="217"/>
      <point x="573" y="261"/>
      <point x="589" y="308" type="curve" smooth="yes"/>
      <point x="605" y="355"/>
      <point x="614.969" y="402.002"/>
      <point x="618" y="451" type="curve" smooth="yes"/>
      <point x="620.969" y="499.002"/>
      <point x="619" y="545"/>
    </contour>
    <contour>
      <point x="192" y="85" type="curve"/>
      <point x="279" y="701" type="line"/>
      <point x="346" y="703"/>
      <point x="401" y="693"/>
      <point x="443" y="671" type="curve"/>
      <point x="484" y="648"/>
      <point x="515" y="619"/>
      <point x="534" y="583" type="curve" smooth="yes"/>
      <point x="553" y="546"/>
      <point x="562.5" y="505.986"/>
      <point x="561" y="461" type="curve" smooth="yes"/>
      <point x="559.499" y="415.981"/>
      <point x="548" y="371"/>
      <point x="529" y="327" type="curve" smooth="yes"/>
      <point x="509" y="282"/>
      <point x="481" y="241"/>
      <point x="446" y="204" type="curve" smooth="yes"/>
      <point x="410" y="166"/>
      <point x="368" y="136"/>
      <point x="319" y="115" type="curve" smooth="yes"/>
      <point x="300" y="107"/>
      <point x="283" y="101"/>
      <point x="268" y="97" type="curve" smooth="yes"/>
      <point x="252" y="92"/>
      <point x="238" y="89"/>
      <point x="227" y="88" type="curve" smooth="yes"/>
      <point x="214" y="86"/>
      <point x="203" y="85"/>
    </contour>
  </outline>
</glyph>
<glyph name="E" format="2">
  <advance width="509"/>
  <unicode hex="0045"/>
  <outline>
    <contour>
      <point x="503" y="772" type="curve" smooth="yes"/>
      <point x="502" y="779"/>
      <point x="500" y="784"/>
      <point x="496" y="789" type="curve" smooth="yes"/>
      <point x="492" y="794"/>
      <point x="487" y="797"/>
      <point x="481" y="798" type="curve"/>
      <point x="118" y="794" type="line"/>
      <point x="12" y="28" type="line" smooth="yes"/>
      <point x="11" y="21"/>
      <point x="11" y="15"/>
      <point x="13" y="12" type="curve"/>
      <point x="14" y="8"/>
      <point x="16" y="5"/>
      <point x="18" y="3" type="curve" smooth="yes"/>
      <point x="21" y="0"/>
      <point x="23" y="-1"/>
      <point x="26" y="-2" type="curve"/>
      <point x="367" y="-3" type="line"/>
      <point x="378" y="-3"/>
      <point x="387" y="2"/>
      <point x="394" y="13" type="curve" smooth="yes"/>
      <point x="401" y="23"/>
      <point x="407" y="34"/>
      <point x="410" y="47" type="curve" smooth="yes"/>
      <point x="413" y="60"/>
      <point x="413" y="72"/>
      <point x="411" y="83" type="curve" smooth="yes"/>
      <point x="409" y="94"/>
      <point x="404" y="99"/>
      <point x="396" y="100" type="curve" smooth="yes"/>
      <point x="383" y="101"/>
      <point x="366" y="102"/>
      <point x="344" y="103" type="curve"/>
      <point x="321" y="103"/>
      <point x="297" y="103"/>
      <point x="272" y="104" type="curve"/>
      <point x="246" y="104"/>
      <point x="220" y="104"/>
      <point x="194" y="104" type="curve" smooth="yes"/>
      <point x="128" y="104" type="line" smooth="yes"/>
      <point x="115" y="104"/>
      <point x="106" y="105"/>
      <point x="101" y="108" type="curve"/>
      <point x="95" y="110"/>
      <point x="91" y="113"/>
      <point x="89" y="116" type="curve" smooth="yes"/>
      <point x="86" y="119"/>
      <point x="86" y="124"/>
      <point x="88" y="129" type="curve"/>
      <point x="118" y="362" type="line"/>
      <point x="347" y="367" type="line"/>
      <point x="358" y="369"/>
      <point x="368" y="375"/>
      <point x="376" y="385" type="curve" smooth="yes"/>
      <point x="384" y="395"/>
      <point x="390" y="406"/>
      <point x="394" y="418" type="curve" smooth="yes"/>
      <point x="397" y="430"/>
      <point x="398" y="441"/>
      <point x="397" y="452" type="curve" smooth="yes"/>
      <point x="396" y="462"/>
      <point x="391" y="468"/>
      <point x="384" y="470" type="curve"/>
      <point x="340" y="470" type="line" smooth="yes"/>
      <point x="321" y="470"/>
      <point x="300" y="470"/>
      <point x="279" y="471" type="curve"/>
      <point x="257" y="471"/>
      <point x="236" y="471"/>
      <point x="216" y="472" type="curve" smooth="yes"/>
      <point x="195" y="473" name=".hr01"/>
      <point x="180" y="473"/>
      <point x="170" y="473" type="curve"/>
      <point x="155" y="474"/>
      <point x="145" y="476"/>
      <point x="140" y="479" type="curve" smooth="yes"/>
      <point x="135" y="482"/>
      <point x="132" y="486"/>
      <point x="131" y="491" type="curve" smooth="yes"/>
      <point x="130" y="496"/>
      <point x="132" y="502"/>
      <point x="137" y="509" type="curve"/>
      <point x="163" y="699" type="line"/>
      <point x="470" y="699" type="line"/>
      <point x="493" y="730"/>
      <point x="504" y="755"/>
    </contour>
  </outline>
</glyph>
<glyph name="F" format="2">
  <advance width="452"/>
  <unicode hex="0046"/>
  <outline>
    <contour>
      <point x="459" y="765" type="curve" smooth="yes"/>
      <point x="458" y="776"/>
      <point x="455" y="784"/>
      <point x="452" y="788" type="curve" smooth="yes"/>
      <point x="448" y="792"/>
      <point x="440" y="794"/>
      <point x="427" y="794" type="curve"/>
      <point x="126" y="792" type="line"/>
      <point x="2" y="3" type="line"/>
      <point x="12" y="-4"/>
      <point x="21" y="-7"/>
      <point x="29" y="-8" type="curve" smooth="yes"/>
      <point x="37" y="-9"/>
      <point x="44" y="-8"/>
      <point x="50" y="-6" type="curve"/>
      <point x="55" y="-3"/>
      <point x="60" y="0"/>
      <point x="64" y="4" type="curve" smooth="yes"/>
      <point x="74" y="14" type="line"/>
      <point x="124" y="353" type="line"/>
      <point x="284" y="353" type="line"/>
      <point x="298" y="361"/>
      <point x="308" y="370"/>
      <point x="315" y="380" type="curve" smooth="yes"/>
      <point x="321" y="389"/>
      <point x="325" y="399"/>
      <point x="326" y="408" type="curve" smooth="yes"/>
      <point x="327" y="417"/>
      <point x="327" y="425"/>
      <point x="325" y="433" type="curve" smooth="yes"/>
      <point x="323" y="441"/>
      <point x="321" y="448"/>
      <point x="318" y="454" type="curve"/>
      <point x="185" y="456" type="line"/>
      <point x="173" y="456"/>
      <point x="163" y="458"/>
      <point x="154" y="461" type="curve" smooth="yes"/>
      <point x="145" y="464"/>
      <point x="139" y="466"/>
      <point x="138" y="468" type="curve"/>
      <point x="170" y="689" type="line"/>
      <point x="431" y="686" type="line"/>
      <point x="444" y="706"/>
      <point x="452" y="722"/>
      <point x="456" y="735" type="curve" smooth="yes"/>
      <point x="459" y="747"/>
      <point x="460" y="757"/>
    </contour>
  </outline>
</glyph>
<glyph name="G" format="2">
  <advance width="567"/>
  <unicode hex="0047"/>
  <outline>
    <contour>
      <point x="562" y="772" type="curve"/>
      <point x="561" y="783"/>
      <point x="559" y="789"/>
      <point x="554" y="790" type="curve" smooth="yes"/>
      <point x="549" y="791"/>
      <point x="542" y="791"/>
      <point x="533" y="792" type="curve"/>
      <point x="461" y="794"/>
      <point x="397" y="786"/>
      <point x="340" y="769" type="curve" smooth="yes"/>
      <point x="283" y="751"/>
      <point x="234" y="726"/>
      <point x="193" y="695" type="curve" smooth="yes"/>
      <point x="151" y="664"/>
      <point x="116" y="627"/>
      <point x="89" y="586" type="curve" smooth="yes"/>
      <point x="61" y="544"/>
      <point x="40" y="500"/>
      <point x="26" y="455" type="curve" smooth="yes"/>
      <point x="12" y="409"/>
      <point x="4.98902" y="363"/>
      <point x="4" y="318" type="curve" smooth="yes"/>
      <point x="2.98902" y="272"/>
      <point x="9" y="229"/>
      <point x="22" y="189" type="curve" smooth="yes"/>
      <point x="34" y="149"/>
      <point x="52" y="114"/>
      <point x="77" y="83" type="curve" smooth="yes"/>
      <point x="101" y="52"/>
      <point x="131" y="30"/>
      <point x="167" y="15" type="curve" smooth="yes"/>
      <point x="183" y="8"/>
      <point x="204" y="4"/>
      <point x="230" y="2" type="curve" smooth="yes"/>
      <point x="255" y="0"/>
      <point x="281" y="-1"/>
      <point x="307" y="-1" type="curve"/>
      <point x="333" y="0"/>
      <point x="357" y="1"/>
      <point x="378" y="2" type="curve" smooth="yes"/>
      <point x="399" y="3"/>
      <point x="414" y="4"/>
      <point x="422" y="4" type="curve"/>
      <point x="438" y="5"/>
      <point x="450" y="8"/>
      <point x="459" y="14" type="curve" smooth="yes"/>
      <point x="467" y="19"/>
      <point x="473" y="26"/>
      <point x="476" y="33" type="curve" smooth="yes"/>
      <point x="480" y="41"/>
      <point x="482" y="51"/>
      <point x="483" y="62" type="curve"/>
      <point x="533" y="349" type="line" smooth="yes"/>
      <point x="534" y="354"/>
      <point x="534" y="359"/>
      <point x="531" y="362" type="curve" smooth="yes"/>
      <point x="528" y="365"/>
      <point x="526" y="368"/>
      <point x="523" y="369" type="curve"/>
      <point x="312" y="369" type="line"/>
      <point x="293" y="355"/>
      <point x="280" y="339"/>
      <point x="275" y="322" type="curve" smooth="yes"/>
      <point x="269" y="304"/>
      <point x="269" y="291"/>
      <point x="275" y="283" type="curve"/>
      <point x="418" y="274" type="line"/>
      <point x="431" y="263"/>
      <point x="438" y="248"/>
      <point x="438" y="227" type="curve" smooth="yes"/>
      <point x="438" y="206"/>
      <point x="435" y="186"/>
      <point x="430" y="165" type="curve" smooth="yes"/>
      <point x="424" y="141"/>
      <point x="415" y="116"/>
      <point x="403" y="89" type="curve"/>
      <point x="361" y="84"/>
      <point x="324" y="81.0154"/>
      <point x="292" y="82" type="curve" smooth="yes"/>
      <point x="259" y="83.0154"/>
      <point x="230" y="89"/>
      <point x="204" y="101" type="curve" smooth="yes"/>
      <point x="165" y="119"/>
      <point x="134" y="146"/>
      <point x="113" y="181" type="curve" smooth="yes"/>
      <point x="91" y="216"/>
      <point x="79" y="255"/>
      <point x="77" y="299" type="curve" smooth="yes"/>
      <point x="75" y="343"/>
      <point x="83" y="390"/>
      <point x="102" y="439" type="curve" smooth="yes"/>
      <point x="121" y="488"/>
      <point x="151" y="535"/>
      <point x="192" y="581" type="curve" smooth="yes"/>
      <point x="211" y="602"/>
      <point x="231" y="620"/>
      <point x="250" y="634" type="curve" smooth="yes"/>
      <point x="269" y="648"/>
      <point x="287" y="659"/>
      <point x="306" y="668" type="curve" smooth="yes"/>
      <point x="325" y="677"/>
      <point x="343" y="683"/>
      <point x="360" y="687" type="curve" smooth="yes"/>
      <point x="377" y="691"/>
      <point x="394" y="693"/>
      <point x="409" y="694" type="curve" smooth="yes"/>
      <point x="445" y="697"/>
      <point x="479" y="692"/>
      <point x="512" y="680" type="curve"/>
      <point x="518" y="680"/>
      <point x="524" y="683"/>
      <point x="530" y="690" type="curve" smooth="yes"/>
      <point x="535" y="697"/>
      <point x="541" y="705"/>
      <point x="546" y="714" type="curve" smooth="yes"/>
      <point x="551" y="723"/>
      <point x="555" y="733"/>
      <point x="558" y="744" type="curve" smooth="yes"/>
      <point x="561" y="755"/>
      <point x="562" y="764"/>
    </contour>
  </outline>
</glyph>
<glyph name="H" format="2">
  <advance width="541"/>
  <unicode hex="0048"/>
  <outline>
    <contour>
      <point x="537" y="774" type="curve"/>
      <point x="534" y="776"/>
      <point x="529" y="779"/>
      <point x="524" y="783" type="curve"/>
      <point x="518" y="786"/>
      <point x="512" y="789"/>
      <point x="506" y="791" type="curve"/>
      <point x="499" y="792"/>
      <point x="493" y="791"/>
      <point x="487" y="788" type="curve" smooth="yes"/>
      <point x="480" y="785"/>
      <point x="474" y="777"/>
      <point x="469" y="765" type="curve"/>
      <point x="416" y="437" type="line"/>
      <point x="137" y="436" type="line"/>
      <point x="193" y="768" type="line"/>
      <point x="192" y="770"/>
      <point x="190" y="774"/>
      <point x="187" y="779" type="curve" smooth="yes"/>
      <point x="184" y="784"/>
      <point x="179" y="787"/>
      <point x="174" y="790" type="curve" smooth="yes"/>
      <point x="169" y="793"/>
      <point x="162" y="793"/>
      <point x="154" y="792" type="curve" smooth="yes"/>
      <point x="145" y="791"/>
      <point x="135" y="784"/>
      <point x="123" y="773" type="curve"/>
      <point x="-1" y="37" type="line"/>
      <point x="0" y="34"/>
      <point x="3" y="29"/>
      <point x="8" y="22" type="curve"/>
      <point x="12" y="14"/>
      <point x="17" y="7"/>
      <point x="23" y="2" type="curve" smooth="yes"/>
      <point x="29" y="-3"/>
      <point x="36" y="-5"/>
      <point x="43" y="-3" type="curve" smooth="yes"/>
      <point x="50" y="-1"/>
      <point x="56" y="8"/>
      <point x="62" y="24" type="curve"/>
      <point x="120" y="336" type="line"/>
      <point x="405" y="336" type="line"/>
      <point x="348" y="24" type="line"/>
      <point x="351" y="21"/>
      <point x="355" y="17"/>
      <point x="362" y="12" type="curve"/>
      <point x="368" y="6"/>
      <point x="375" y="2"/>
      <point x="382" y="-2" type="curve" smooth="yes"/>
      <point x="389" y="-5"/>
      <point x="395" y="-5"/>
      <point x="402" y="-2" type="curve" smooth="yes"/>
      <point x="409" y="2"/>
      <point x="413" y="10"/>
      <point x="416" y="24" type="curve" smooth="yes"/>
      <point x="417" y="28"/>
      <point x="419" y="41"/>
      <point x="423" y="63" type="curve" smooth="yes"/>
      <point x="426" y="84"/>
      <point x="431" y="112"/>
      <point x="436" y="146" type="curve" smooth="yes"/>
      <point x="441" y="179"/>
      <point x="448" y="217"/>
      <point x="455" y="259" type="curve" smooth="yes"/>
      <point x="462" y="301"/>
      <point x="469" y="344"/>
      <point x="476" y="388" type="curve" smooth="yes"/>
      <point x="483" y="432"/>
      <point x="490" y="475"/>
      <point x="497" y="518" type="curve" smooth="yes"/>
      <point x="504" y="561"/>
      <point x="510" y="600"/>
      <point x="516" y="636" type="curve" smooth="yes"/>
      <point x="521" y="671"/>
      <point x="526" y="701"/>
      <point x="530" y="726" type="curve" smooth="yes"/>
      <point x="533" y="751"/>
      <point x="536" y="767"/>
    </contour>
  </outline>
</glyph>
<glyph name="I" format="2">
  <advance width="278"/>
  <unicode hex="0049"/>
  <outline>
    <contour>
      <point x="109" y="16" type="curve"/>
      <point x="109" y="16" type="line"/>
      <point x="223" y="783" type="line"/>
      <point x="212" y="795"/>
      <point x="201" y="800"/>
      <point x="189" y="798" type="curve" smooth="yes"/>
      <point x="177" y="796"/>
      <point x="165" y="791"/>
      <point x="153" y="783" type="curve"/>
      <point x="44" y="37" type="line"/>
      <point x="48" y="32"/>
      <point x="52" y="27"/>
      <point x="57" y="21" type="curve" smooth="yes"/>
      <point x="62" y="15"/>
      <point x="67" y="10"/>
      <point x="73" y="7" type="curve" smooth="yes"/>
      <point x="78" y="4"/>
      <point x="84" y="2"/>
      <point x="90" y="3" type="curve" smooth="yes"/>
      <point x="96" y="4"/>
      <point x="102" y="8"/>
    </contour>
  </outline>
</glyph>
<glyph name="J" format="2">
  <advance width="450"/>
  <unicode hex="004A"/>
  <outline>
    <contour>
      <point x="467" y="796" type="curve"/>
      <point x="467" y="796" type="line"/>
      <point x="236" y="794" type="line"/>
      <point x="227" y="792"/>
      <point x="221" y="788"/>
      <point x="216" y="782" type="curve" smooth="yes"/>
      <point x="211" y="776"/>
      <point x="207" y="769"/>
      <point x="205" y="762" type="curve" smooth="yes"/>
      <point x="202" y="755"/>
      <point x="201" y="747"/>
      <point x="202" y="740" type="curve" smooth="yes"/>
      <point x="203" y="733"/>
      <point x="204" y="727"/>
      <point x="207" y="722" type="curve"/>
      <point x="299" y="722" type="line"/>
      <point x="297" y="643"/>
      <point x="295" y="573"/>
      <point x="293" y="512" type="curve" smooth="yes"/>
      <point x="291" y="451"/>
      <point x="288.46" y="396.968"/>
      <point x="285" y="351" type="curve" smooth="yes"/>
      <point x="281.46" y="303.963"/>
      <point x="276" y="265"/>
      <point x="269" y="232" type="curve" smooth="yes"/>
      <point x="262" y="199"/>
      <point x="253" y="172"/>
      <point x="241" y="151" type="curve" smooth="yes"/>
      <point x="223" y="118"/>
      <point x="203" y="98"/>
      <point x="182" y="90" type="curve" smooth="yes"/>
      <point x="161" y="82"/>
      <point x="142" y="83"/>
      <point x="125" y="94" type="curve" smooth="yes"/>
      <point x="108" y="104"/>
      <point x="94" y="122"/>
      <point x="85" y="147" type="curve" smooth="yes"/>
      <point x="76" y="172"/>
      <point x="74" y="202"/>
      <point x="79" y="237" type="curve"/>
      <point x="80" y="239"/>
      <point x="76" y="241"/>
      <point x="69" y="243" type="curve" smooth="yes"/>
      <point x="61" y="245"/>
      <point x="52" y="246"/>
      <point x="42" y="246" type="curve" smooth="yes"/>
      <point x="33" y="246"/>
      <point x="24" y="245"/>
      <point x="17" y="242" type="curve" smooth="yes"/>
      <point x="9" y="239"/>
      <point x="5" y="233"/>
      <point x="5" y="225" type="curve"/>
      <point x="6" y="214"/>
      <point x="5" y="205"/>
      <point x="3" y="197" type="curve"/>
      <point x="2" y="188"/>
      <point x="0" y="179"/>
      <point x="-1" y="170" type="curve" smooth="yes"/>
      <point x="-2" y="160"/>
      <point x="-1" y="148"/>
      <point x="0" y="135" type="curve" smooth="yes"/>
      <point x="1" y="121"/>
      <point x="5" y="103"/>
      <point x="12" y="81" type="curve" smooth="yes"/>
      <point x="18" y="61"/>
      <point x="29" y="45"/>
      <point x="45" y="33" type="curve" smooth="yes"/>
      <point x="60" y="21"/>
      <point x="78" y="12"/>
      <point x="97" y="7" type="curve" smooth="yes"/>
      <point x="116" y="2"/>
      <point x="135" y="-1"/>
      <point x="155" y="0" type="curve" smooth="yes"/>
      <point x="174" y="1"/>
      <point x="191" y="3"/>
      <point x="205" y="8" type="curve" smooth="yes"/>
      <point x="235" y="19"/>
      <point x="262" y="41"/>
      <point x="286" y="76" type="curve" smooth="yes"/>
      <point x="309" y="110"/>
      <point x="329" y="154"/>
      <point x="345" y="209" type="curve" smooth="yes"/>
      <point x="349" y="222"/>
      <point x="352" y="239"/>
      <point x="355" y="260" type="curve" smooth="yes"/>
      <point x="358" y="281"/>
      <point x="359.962" y="305.003"/>
      <point x="362" y="332" type="curve" smooth="yes"/>
      <point x="363.962" y="358.003"/>
      <point x="365.983" y="386.001"/>
      <point x="367" y="416" type="curve" smooth="yes"/>
      <point x="367.983" y="445.001"/>
      <point x="369.103" y="473.997"/>
      <point x="370" y="503" type="curve" smooth="yes"/>
      <point x="372.103" y="570.997"/>
      <point x="373" y="644"/>
      <point x="373" y="723" type="curve"/>
      <point x="450" y="722" type="line"/>
      <point x="456" y="727"/>
      <point x="461" y="732"/>
      <point x="464" y="739" type="curve" smooth="yes"/>
      <point x="467" y="746"/>
      <point x="470" y="753"/>
      <point x="471" y="760" type="curve" smooth="yes"/>
      <point x="472" y="767"/>
      <point x="472" y="773"/>
      <point x="471" y="780" type="curve" smooth="yes"/>
      <point x="470" y="787"/>
      <point x="469" y="792"/>
    </contour>
  </outline>
</glyph>
<glyph name="K" format="2">
  <advance width="507"/>
  <unicode hex="004B"/>
  <outline>
    <contour>
      <point x="221" y="328" type="line"/>
      <point x="500" y="728" type="line" smooth="yes"/>
      <point x="503" y="733"/>
      <point x="506" y="737"/>
      <point x="508" y="739" type="curve" smooth="yes"/>
      <point x="510" y="741"/>
      <point x="511" y="743"/>
      <point x="512" y="745" type="curve"/>
      <point x="512" y="746"/>
      <point x="511" y="748"/>
      <point x="510" y="751" type="curve"/>
      <point x="504" y="761" type="line" smooth="yes"/>
      <point x="501" y="766"/>
      <point x="498" y="771"/>
      <point x="494" y="776" type="curve" smooth="yes"/>
      <point x="490" y="781"/>
      <point x="486" y="784"/>
      <point x="481" y="787" type="curve" smooth="yes"/>
      <point x="476" y="790"/>
      <point x="470" y="791"/>
      <point x="464" y="790" type="curve" smooth="yes"/>
      <point x="458" y="789"/>
      <point x="451" y="785"/>
      <point x="444" y="778" type="curve"/>
      <point x="195" y="430" type="line"/>
      <point x="174" y="438" type="line"/>
      <point x="237" y="770" type="line"/>
      <point x="238" y="780"/>
      <point x="236" y="787"/>
      <point x="232" y="792" type="curve" smooth="yes"/>
      <point x="229" y="796"/>
      <point x="222" y="798"/>
      <point x="213" y="797" type="curve" smooth="yes"/>
      <point x="204" y="796"/>
      <point x="189" y="790"/>
      <point x="170" y="778" type="curve"/>
      <point x="-3" y="43" type="line"/>
      <point x="-1" y="39"/>
      <point x="2" y="34"/>
      <point x="7" y="27" type="curve" smooth="yes"/>
      <point x="12" y="20"/>
      <point x="17" y="15"/>
      <point x="24" y="11" type="curve"/>
      <point x="30" y="6"/>
      <point x="37" y="4"/>
      <point x="44" y="4" type="curve"/>
      <point x="51" y="3"/>
      <point x="59" y="7"/>
      <point x="67" y="15" type="curve"/>
      <point x="132" y="283" type="line"/>
      <point x="327" y="7" type="line"/>
      <point x="332" y="6"/>
      <point x="341" y="6"/>
      <point x="352" y="6" type="curve" smooth="yes"/>
      <point x="363" y="6"/>
      <point x="374" y="8"/>
      <point x="385" y="11" type="curve" smooth="yes"/>
      <point x="396" y="14"/>
      <point x="404" y="20"/>
      <point x="411" y="28" type="curve" smooth="yes"/>
      <point x="417" y="36"/>
      <point x="417" y="48"/>
      <point x="411" y="63" type="curve"/>
    </contour>
  </outline>
</glyph>
